<svg xmlns="http://www.w3.org/2000/svg" xmlns:xlink="http://www.w3.org/1999/xlink" width="1150" height="627.49"><style><![CDATA[.B{opacity:.1}.C{fill:#007bff}.D{fill:#3f3d56}.E{fill:#efb7b9}.F{fill:#454b69}]]></style><path d="M1137.8 582.18a188.54 188.54 0 0 1-16.41 31.56 135.82 135.82 0 0 1-9.94 13.67.7.7 0 0 1-.11.12H0l.15-.12c1-.78 6.87-5.53 16-13.67 6.55-5.83 14.77-13.4 24-22.53 75.5-74.25 220.5-250 99.73-411C27.6 30.54 148.5 3.38 228.23.2a227.81 227.81 0 0 1 89.86 14.69c36.84 14 104.17 35.46 191.9 45.3l8.72.93a840.12 840.12 0 0 0 139.78 2.54l4.14-.28a830.62 830.62 0 0 0 136.72-21.15l8.64-2.05c149.63-34.62 287.57 83.37 253.08 216.7-12.75 49.32-9.5 101.9 33 144.42 69.6 69.42 61.17 137.8 43.75 180.86z" class="B C"/><path d="M1137.8 582.18a188.54 188.54 0 0 1-16.41 31.56 135.82 135.82 0 0 1-9.94 13.67H.15c1-.78 6.87-5.53 16-13.67 6.55-5.83 14.77-13.4 24-22.53L157.28 567a22.79 22.79 0 0 1 4.6-.47l903.7-1.2a23.45 23.45 0 0 1 5.47.65z" class="F"/><path d="M16.15 613.74H1121.4a135.82 135.82 0 0 1-9.94 13.67H.15c.98-.83 6.85-5.58 16-13.67z" opacity=".4"/><path d="M733.22 302.74l-2.22.43-100.36 19.28c-29.15 5.6-58.72 11.23-88.33 9.08-21.45-1.56-41.5-7.92-62.1-13.5-11.65-3.16-24-4.42-27.95-17.46-5.45-18 3.42-44.65 5.5-62.9 2-17.9 3.18-36.25-.38-53.94a95.9 95.9 0 0 0-3.12-11.74c-3.57-10.6-9.18-21.6-6.15-32.35 2.4-8.53 9.68-14.62 16.5-20.26 13.36-11 27-23.33 32.3-39.82 2.6-8 3.1-16.6 5.9-24.55 5.3-15.1 18.65-26.4 33.5-32.37s31.16-7.25 47.17-7.25a319.6 319.6 0 0 1 42.27 2.81c15.28 2 30.7 5.3 44.13 12.87s24.75 20 27.88 35.14c4.43 21.4-7.87 44.2-1.27 65 3.32 10.5 11 19 16.33 28.62a68.17 68.17 0 0 1 5 53c-6.38 19.77-22 39.77-14 58.94 5.1 12.2 18.1 18.7 27.15 28.36q1.2 1.3 2.26 2.6z" class="F"/><path d="M731 300.22v2.95l-100.36 19.28c-29.15 5.6-58.72 11.23-88.33 9.08-21.45-1.56-41.5-7.92-62.1-13.5-11.65-3.16-24-4.42-27.95-17.46-5.45-18 3.42-44.65 5.5-62.9 2-17.9 32.8-83.25 29.23-100.94l184 8c1.24 9.77 49.87 58.8 46.84 68.18-6.38 19.77-22 39.77-14 58.94 5.1 12.2 18.1 18.7 27.16 28.36z" class="B"/><use xlink:href="#B" class="E"/><use xlink:href="#B" class="B"/><path d="M611.6 359.48l16.7-35.38c7.83-16.58 15.83-34 15-52.3-.16-3.64-.2-8.2 3-9.84a8.58 8.58 0 0 1 4.39-.56 177.59 177.59 0 0 1 51.51 10.42c3.2 1.16 6.5 2.5 8.75 5.06s3.16 6 3.93 9.3a271.54 271.54 0 0 1 5.73 33.87c3 28.22 1.5 56.7 0 85l-4.44 86.43a8.26 8.26 0 0 1-.73 3.56c-1.1 2-3.58 2.67-5.8 3.05-8.6 1.47-17.37 1.17-26.07.84-61.2-2.32-122.72-5.88-183.52 1.54q.4-13.5-.43-27c-2.4-38.9-12.5-76.83-22.4-114.5-5.77-22-11.36-46-2.07-66.73a28.59 28.59 0 0 1 5.79-8.82c3.95-3.87 9.34-5.9 14.68-7.37a93.43 93.43 0 0 1 28.29-3.2l63.05 137.27c2.88 6.28 5.25 12.9 8.12 19.1 2.58-10.7-.52-23.26 2.58-34.87 3.34-12.05 8.6-23.58 13.93-34.84z" fill="#fff"/><use xlink:href="#C" class="C"/><use xlink:href="#C" class="B"/><circle cx="589.91" cy="162.75" r="85.72" class="E"/><path d="M544.93 276.98c2.35-22.18-6.87-43.88-17.3-63.6-5-9.42-10.36-18.8-12.87-29.16s-1.8-22.07 4.63-30.58c5.46-7.24 14.12-11.15 22.13-15.4 22.6-12 43.28-29.64 53.22-53.23-5.62 3.06-4.16 12.2.8 16.22s11.72 4.8 17.82 6.73c22.24 7 35.58 29.18 46.28 49.9 1.75 3.38 3.53 6.95 3.5 10.76s-1.76 7.2-3.58 10.43c-5.28 9.4-11.74 18.43-14.14 28.94-2.75 12 .15 24.62 3.92 36.4 4 12.52 9.3 25.14 18.9 34.12s24.5 13.44 36.3 7.64c-11.8-20.27-24-42.92-19.4-65.9 2.22-11 8.2-21 10.73-31.94 4.84-20.87-3.22-42.34-11.13-62.26L661.1 66.6c-3.6-9.1-7.72-18.8-16-23.94-5.6-3.47-12.38-4.37-18.94-5-21.12-1.88-43-1.26-62.66 6.6-35.82 14.3-58.28 49.6-76.1 83.8-5.34 10.25-10.6 21.14-10.4 32.7.12 6.34 1.9 12.5 3.33 18.7 5.86 25.16 6.18 51.23 6.48 77.06.23 19.82-.8 38.5-9.47 56.55 11.88 2.36 29.1 8.73 40.87 4.07 15.33-6.06 24.77-24.73 26.7-40.16z" class="F"/><path d="M486.78 256.1q.06-4.23 0-8.54c-.3-25.83-.62-51.9-6.48-77.06a130.05 130.05 0 0 1-3.06-14.88 38.89 38.89 0 0 0-.27 5.19c.12 6.34 1.9 12.5 3.33 18.7 5.83 25 6.2 50.92 6.48 76.6zm209.1-67.8a60.51 60.51 0 0 0 1.3-17.82 55.54 55.54 0 0 1-1.3 8.82c-2.54 11-8.5 20.9-10.73 31.94a53 53 0 0 0-.8 14.78 52.45 52.45 0 0 1 .8-5.78c2.22-11.03 8.2-20.98 10.73-31.94zm-33.52-24.26a14.41 14.41 0 0 0 .78-4.41c0-3.8-1.76-7.38-3.5-10.76-10.7-20.72-24-42.88-46.28-49.9-6.1-1.92-12.85-2.7-17.82-6.73a12.68 12.68 0 0 1-4.38-8.8c-10.84 19.9-29.46 35.12-49.64 45.8-8 4.25-16.67 8.16-22.13 15.4-5.13 6.8-6.62 15.65-5.73 24.2a30.61 30.61 0 0 1 5.73-15.21c5.46-7.24 14.12-11.15 22.13-15.4 20.18-10.7 38.8-25.9 49.64-45.8a12.68 12.68 0 0 0 4.38 8.8c5 4 11.72 4.8 17.82 6.73 22.24 7 35.58 29.18 46.28 49.9a39.4 39.4 0 0 1 2.73 6.17zm5.9 105.46c-9.6-9-14.9-21.6-18.9-34.12a98.77 98.77 0 0 1-4.8-21.71c-.93 10.27 1.62 20.78 4.8 30.7 4 12.52 9.3 25.14 18.9 34.12s24.5 13.44 36.3 7.64l-4.23-7.4c-10.97 3.1-23.57-1.3-32.07-9.25zm-123.32-1.52c-1.93 15.43-11.37 34.1-26.74 40.2-10.67 4.23-25.86-.63-37.45-3.32a86.63 86.63 0 0 1-3.42 8.25c11.88 2.36 29.1 8.73 40.87 4.07 15.37-6.1 24.8-24.77 26.74-40.2a69.48 69.48 0 0 0 .22-11.62c-.06.87-.15 1.75-.22 2.62z" class="B"/><path d="M666.1 515.92c-15.45-2.45-31.13-7.18-46.45-4-8.88 1.84-17 6.26-24.38 11.6 4.06 3.25 8.8 6.15 11.38 10.67a42 42 0 0 1 3.58 9.87c1.62 6 3.25 12.12 3.5 18.36s-1 12.74-4.72 17.77c19.48 1.92 38.36-2.88 57.36-7.57a15.71 15.71 0 0 0 6.07-2.45c3-2.36 3.88-6.56 3.9-10.4 0-6.84-1.92-13.5-3.87-20.07-2.32-7.87-4.04-15.97-6.37-23.8z" fill="#fff"/><use xlink:href="#D" class="C"/><use xlink:href="#D" opacity=".08"/><path d="M422.8 334.26c3.63-8.62 7.32-17.52 7.42-26.87.1-10.1-4-19.7-7.14-29.3a169.49 169.49 0 0 1-7.71-36.19 5 5 0 0 1 .5-3.47c.83-1.17 2.43-1.4 3.84-1.72 6.92-1.58 12.15-7.17 16.47-12.8a140.34 140.34 0 0 0 16.86-28.16c3.3-7.37 7.8-16.36 15.87-16.43a458.36 458.36 0 0 1-12.08 45.25c8.45-2.16 16.48-5.3 24.93-7.46a14.93 14.93 0 0 1 5.12-.68c5.06.53 8.16 7.38 5.22 11.53 4.13 4.84 11 6.14 16.4 9.46s9.28 11.54 4.48 15.7c-.94.8-2.13 1.38-2.8 2.42-2.32 3.58 3.36 7.7 2.9 11.93-.38 3.47-4.83 5.1-8.2 4.17s-6-3.44-9-5.3-6.92-3-9.83-1.08c-.78 9.4-1.62 19-5.7 27.57-1.5 3.13-3.4 6.06-4.6 9.3a45.88 45.88 0 0 0-2.12 10.93l-3.63 33.2c-17.32 3.47-32.85-1.72-47.2-12z" class="E"/><path d="M418.58 364l-3.2-21.6a35.1 35.1 0 0 1-.51-5.32c0-5 2.2-9.77 4.33-14.32 17.65 8.24 36.73 11.17 56.2 11.18 2.57 0 5.5-.24 7.1-2.25 3.3 3.8 3.4 9.94 2 14.78s-4.12 9.2-5.92 13.92c-.9 2.4-1.65 5-3.4 6.84-2.7 2.9-7.08 3.4-11.06 3.4a70.71 70.71 0 0 1-12.48-1.19c-10.66-1.98-22.42-7.35-33.08-5.44z" fill="#fff"/><path d="M484.4 363.13q-20.55-2.34-40.83-6.6c-6.63-1.4-13.32-2.94-20.08-2.67-4.4.18-9.13 1.06-13-1.12 3.77 12.83 4 26.35-.5 38.94-2.67 7.5-6.74 14.5-8.7 22.2-4.08 16.15 1.52 33.76-3.58 49.62a12.56 12.56 0 0 1-3.08 5.52c-1.56 1.43-3.7 2.17-5.13 3.72-2.12 2.28-2.25 5.7-2.26 8.82l-.1 27.55c-.06 17.54.17 36.14 9.43 51 10.56 17 32.8 25.8 52.14 20.64a38.76 38.76 0 0 0 14.16-6.93c6.72-5.34 11-13.06 15.2-20.58 5-9 10-18.2 11.6-28.33 1.14-7.17.5-14.5-.32-21.7-4.52-40-14.33-79.66-12.22-119.8a36.31 36.31 0 0 1 7.27-20.28z" class="C"/><path d="M541.67 529.13c-6.95.4-13.95.8-20.87 0-5-.6-9.88-1.83-14.84-2.67a95.11 95.11 0 0 0-76.59 21.28c-3.84 3.28-7.72 8.3-5.6 12.9 2.28 4.94 9.25 4.8 14.62 3.88a44 44 0 0 0-15 11.73c-1.5 1.83-2.92 4-2.63 6.37.6 4.95 7.33 5.85 12.3 5.42-1.62 1.74-.53 4.82 1.53 6s4.62.94 6.95.5a51.52 51.52 0 0 0 14.76-5.11c-.94 2.45.7 5.32 3 6.54s5.12 1.13 7.7.7c12.22-2 22.42-10.5 34.34-13.84 19.06-5.33 39 3.17 58.8 3.77 6.2.2 12.56-.44 18.2-3 6.93-3.15 12.52-9.06 19.84-11.16 8.13-2.32 17.46.35 24.9-3.66 5.4-2.9.53-25.34-.85-29.66-2.53-7.9-5.07-13.14-13.5-13.94-21.33-2.1-45.6 2.7-67.1 3.93z" class="E"/><path d="M594.88 523s32.3 27.33 13.66 57.15l36-12.43v-26.1c0-1.24-13.67-19.87-13.67-19.87l-16.15-2.5z" fill="#fff"/><use xlink:href="#E" class="D"/><use xlink:href="#E" class="B"/><g class="D"><circle cx="260.36" cy="530.01" r="4.97"/><circle cx="260.36" cy="523.8" r="4.97"/><circle cx="260.36" cy="517.59" r="4.97"/><circle cx="260.36" cy="511.38" r="4.97"/><circle cx="260.36" cy="505.17" r="4.97"/><circle cx="260.36" cy="498.96" r="4.97"/><circle cx="260.36" cy="492.74" r="4.97"/><circle cx="267.82" cy="495.23" r="4.97"/><circle cx="272.79" cy="492.74" r="4.97"/><circle cx="277.76" cy="490.26" r="4.97"/><circle cx="260.36" cy="486.53" r="4.97"/><circle cx="260.36" cy="480.32" r="4.97"/><circle cx="260.36" cy="474.11" r="4.97"/><circle cx="260.36" cy="467.9" r="4.97"/></g><path d="M281 451.87q-1.86.27-3.72.4a28.56 28.56 0 0 0 3.2-3.28 21 21 0 0 0-3-5.83 10.22 10.22 0 0 1-4 1.26l-3.7.4c1.63-1.33 3.15-3.33 4.75-5a21.1 21.1 0 1 0 6.93 15.61 20.68 20.68 0 0 0-.32-3.63zm16.57 24.7a9.64 9.64 0 0 1-4.18 1.39l-3.7.4a36.4 36.4 0 0 0 3.68-3.82 12.44 12.44 0 1 0 4.21 2z" class="C"/><g class="D"><circle cx="252.91" cy="495.23" r="4.97"/><circle cx="247.94" cy="492.74" r="4.97"/><circle cx="242.97" cy="490.26" r="4.97"/></g><path d="M223.16 476.56a9.64 9.64 0 0 0 4.18 1.39l3.7.4a35.42 35.42 0 0 1-3.68-3.82 12.44 12.44 0 0 1 8.477 23.274 12.44 12.44 0 0 1-12.687-21.274z" class="C"/><path d="M256.8 525h12.1a25 25 0 0 1 25 25v32.87a4.24 4.24 0 0 1-4.24 4.24H236a4.24 4.24 0 0 1-4.24-4.24V550a25 25 0 0 1 25.03-25z" class="D"/><g class="B"><path d="M281.34 453.23a18.83 18.83 0 0 1-1.6 1.52c.57 0 1.13-.1 1.7-.15l-.1-1.37zm-9.06-5.93l3.72-.4a12 12 0 0 0 3.23-.88 21.92 21.92 0 0 0-1.74-2.87 7.52 7.52 0 0 1-2 .85 28.79 28.79 0 0 1-3.21 3.29zm-30.55 10.66a21.08 21.08 0 0 1 32.5-17.76l.32-.34a21.1 21.1 0 1 0-27.82 31.73 21 21 0 0 1-5-13.63z"/><path d="M289.68 480.83l3.7-.4a9.65 9.65 0 0 0 4.18-1.4 12.43 12.43 0 0 1 5 8.8 11.38 11.38 0 0 0 .07-1.31 12.38 12.38 0 0 0-5-10 9.64 9.64 0 0 1-4.18 1.39l-1 .13a25.37 25.37 0 0 1-2.78 2.78zm.5-4.23a10.19 10.19 0 0 1 1.24.09l1.94-2.15a12.4 12.4 0 0 0-15.6 12l.06 1.24a12.42 12.42 0 0 1 12.36-11.18z"/><path d="M231.05 480.83l-3.7-.4a9.65 9.65 0 0 1-4.18-1.4 12.43 12.43 0 0 0-5 8.8 11.38 11.38 0 0 1-.07-1.31 12.38 12.38 0 0 1 5-10 9.64 9.64 0 0 0 4.18 1.39l1 .13a23.67 23.67 0 0 0 2.78 2.78zm-.5-4.23a10.51 10.51 0 0 0-1.25.09l-1.93-2.15a12.4 12.4 0 0 1 15.6 12l-.06 1.24a12.42 12.42 0 0 0-12.36-11.18z"/></g><use xlink:href="#F" class="C"/><use xlink:href="#F" class="B"/><g class="D"><ellipse cx="147.32" cy="556.41" rx="5.78" ry="7.57"/><ellipse cx="147.32" cy="547.16" rx="5.78" ry="7.57"/><ellipse cx="147.32" cy="537.9" rx="5.78" ry="7.57"/><ellipse cx="147.32" cy="528.65" rx="5.78" ry="7.57"/><ellipse cx="147.32" cy="519.39" rx="5.78" ry="7.57"/><ellipse cx="147.32" cy="510.13" rx="5.78" ry="7.57"/><ellipse cx="147.32" cy="500.88" rx="5.78" ry="7.57"/></g><path d="M169 437.54a29.42 29.42 0 0 0 2.15-3.17l-15.2-2.5 16.44.12a27.71 27.71 0 0 0 .53-22l-22.05 11.44 20.34-15a27.71 27.71 0 0 0-49.197 2.365 27.71 27.71 0 0 0 3.427 28.635 27.1 27.1 0 0 0-3.16 5.05L142 452.84l-21-7.1a27.74 27.74 0 0 0 4.47 26c-8.935 11.36-7.64 27.68 2.978 37.486s26.988 9.807 37.604 0 11.913-26.126 2.978-37.486c7.905-10.052 7.905-24.208 0-34.26z" class="C"/><path d="M119.5 454.67a27.59 27.59 0 0 0 5.93 17.13c-8.935 11.36-7.64 27.68 2.978 37.486s26.988 9.807 37.604 0 11.913-26.126 2.978-37.486c3.7-4.7-49.5-20.24-49.5-17.13z" class="B"/><path d="M196.85 601.58h-97.7a4.15 4.15 0 0 1-4.15-4.15v-48.7a4.15 4.15 0 0 1 5.93-3.75c28.07 13.32 50.33 28.85 94 .2 2.6-1.7 6 .62 6 3.7v48.5a4.15 4.15 0 0 1-4.08 4.17z" class="C"/><path fill="#9c9ca1" d="M921.83 587.8l-151.35 20.02L700 570.2v-8.8l220.22-24.02 1.6 50.45z"/><path fill="#939498" d="M740.85 574.2L897 555.78l-1.6 28.83-121.63 8.92-32.92-19.34z"/><path d="M777.7 597.4v9.46l-7.2 1L700 570.2v-8.8l67.27 36s8.82.83 10.42.03z" opacity=".4"/><path d="M805.36 447.26L773 597.3a9.58 9.58 0 0 0 10.62 11.53l204.73-27.1a9.58 9.58 0 0 0 7.84-6.48l44.17-133.2a9.6 9.6 0 0 0-9.56-12.6l-216.52 10.28a9.6 9.6 0 0 0-8.92 7.52z" class="D"/><ellipse cx="937.28" cy="638.27" rx="8.7" ry="5.59" transform="matrix(.104528 -.994522 .994522 .104528 179.55 1367.46)" fill="#fff"/><defs ><path id="B" d="M543 250.74c1.1 6.2 1.67 13-1.5 18.4-4.2 7.24-13.4 9.55-21.6 11.2l-28.5 5.7c-1.94.4-4 .83-5.45 2.16-1.7 1.53-2.3 3.95-2.54 6.23-1.15 10.32 2.5 20.5 5.83 30.32 6.73 19.9 12.38 40.24 20.9 59.45s20.2 37.55 36.86 50.4 38.73 19.68 59.14 14.66c17.78-4.37 32.36-16.92 44.93-30.23 10.37-11 20.07-23 25.1-37.27 3.47-9.8 4.6-20.24 5.7-30.58q2.53-23.78 5.06-47.56c.8-7.44 1.3-15.8-3.52-21.52-2.12-2.5-5-4.18-7.94-5.73-10.94-5.8-22.46-10.6-32.64-17.6s-19.2-16.64-22.3-28.6c-1.85-7.18-1.52-15-4.67-21.7-3.52-7.5-11-12.58-19-14.8s-16.44-1.93-24.68-1-40 3.3-43.4 12.6c-1.83 5 5.76 15.73 7.56 20.65a144.17 144.17 0 0 1 6.68 24.85z"/><path id="C" d="M605 453.93c11.28.7 22.24-5.07 30-13.24s12.88-18.53 17.2-29A286 286 0 0 0 667 365.58c3-13.4 5.13-27.27 3.06-40.85-2.86-18.75-13.47-35.8-15.28-54.67-.3-3.3-.1-7.16 2.54-9.15 1.64-1.23 3.8-1.4 5.84-1.52 18.86-1.12 39.58-.9 54.2 11.06 4.45 3.64 8.06 8.2 12.4 11.94 10.36 9 25 13.58 31.65 25.53 2.32 4.16 3.43 8.87 5.05 13.35 3.82 10.6 10.43 19.92 17 29.1l-20.06 80.66c-3.73 15.77-7.5 31.6-13.35 46.7-3.84 9.9-8.67 20-7.5 30.6.47 4.17 1.86 8.16 3.07 12.18a140 140 0 0 1 5.89 43.53l-285.34.7c13.67-19.6 17.68-43.64 16.3-67.5-.67-11.43-3.25-22.93-9-32.82-9.06-15.5-25-25.6-40.7-34.25-11-6-22.8 27.76-34.7 23.9 1.92-13.58 2.8-66 2-79.67-.26-4.48-.66-9.08.72-13.36.94-2.93 2.67-5.55 3.84-8.4 4.7-11.4.22-26 7.8-35.7 5.24-6.75 14.43-8.67 21.9-12.83 7.67-4.28 13.6-11 20.28-16.74a90.19 90.19 0 0 1 46.16-20.61 58.14 58.14 0 0 1 8.81 26c.5 5.8.14 11.7.95 17.48 1.1 7.83 4.35 15.18 7.56 22.42 13.37 30.2 26.8 60.47 43.73 88.82 4.8 8 10 16 16.94 22.23s16.93 10.68 26.25 10.24z"/><path id="D" d="M770.42 347.25c7.67 1 13.62 7.2 18 13.55 12.3 17.7 17.6 39.16 23.5 59.9q11 38.67 25.87 76.12a114.56 114.56 0 0 0 7.76 16.7c2.47 4.13 5.47 8.1 6.56 12.8 2.64 11.34-6.7 22-16.46 28.32a65.14 65.14 0 0 1-16.85 8.12c-5.82 1.74-11.9 2.4-17.92 3.06l-55.5 6c-25.55 2.78-51.33 5.56-76.9 2.88-1.6-5.6 1.55-9.56 1.32-15.4-.16-4.17-2-8.05-3.64-11.9a76 76 0 0 1-5.93-21.51c-.3-2.73-.4-5.53-1.43-8.07s-3.27-4.82-6-5c15-1.5 26.4-4.32 41.4-5.82 5.57-.56 11.36-1.2 16.1-4.15 5.9-3.67 9.2-10.3 11.8-16.7 6.5-15.9 10.67-33.42 7.26-50.26-2.8-13.8-10.6-26.67-10.57-40.76 0-8.4 2.86-16.52 6.24-24.2 3.58-8.12 8.25-16.42 16.1-20.54s20.4-4.33 29.28-3.13z"/><path id="E" d="M256.8 521.32h12.1a25 25 0 0 1 25 25v37.1a0 0 0 0 1 0 0h-62.1a0 0 0 0 1 0 0v-37.1a25 25 0 0 1 25-25z"/><path id="F" d="M196.85 599.13h-97.7a4.15 4.15 0 0 1-4.15-4.15v-46.24a4.15 4.15 0 0 1 5.93-3.75c28.07 13.32 58.3 17.9 94 .2a4.16 4.16 0 0 1 6 3.71v46a4.15 4.15 0 0 1-4.08 4.22z"/></defs></svg>