<svg xmlns="http://www.w3.org/2000/svg" xmlns:xlink="http://www.w3.org/1999/xlink" width="1121.04" height="851.8"><style><![CDATA[.B{opacity:.1}.C{opacity:.2}.D{fill:#514e7f}.E{fill:#007bff}.F{fill:#464353}.G{fill:#b2b1bb}.H{fill:#5e5a6b}.I{fill:#ffc1c7}.J{fill:#ff6584}.K{fill:#3f3d56}.L{fill:#65617d}.M{fill:#a1616a}.N{fill:#fbbebe}.O{stroke-miterlimit:10}.P{stroke-dasharray:12}]]></style><defs><linearGradient id="A" x1="261.88" y1="444.05" x2="261.88" y2="24.1" gradientUnits="userSpaceOnUse"><stop offset="0" stop-color="gray" stop-opacity=".25"/><stop offset=".54" stop-color="gray" stop-opacity=".12"/><stop offset="1" stop-color="gray" stop-opacity=".1"/></linearGradient><linearGradient id="B" x1="493.3" y1="875.74" x2="493.3" y2="319.35" xlink:href="#A"/><path id="C" d="M1046.87 483.98c-1.1-.3-3 1-5.44 3.1l-3.9 3.6-.67.65-.3.28-6.12 5.83-4.2 3.78c-1.9 1.65-3 6.18-3.52 12.38a135.91 135.91 0 0 1-15.64 3.26l-.86.13-.45.07-.54-3.08s-9-7.5-6.38-16.9c1.5-5.38 16.28-15.45 28.6-23.07l6.95-4.2 4.1-2.4 5.93-3.37s5.26 20.66 2.45 19.92z"/><path id="D" d="M1043.73 502.47l.43 2.9q-2.7 1.37-5.4 2.57-3.3 1.47-6.65 2.7l-6.8-53.3-5.2-40.86-.24-2-.76-5.96h.36l7.6-.83 2.44-.25 1.84 12.33 12.3 82.2z"/><path id="E" d="M1068.07 407.98l-1.26 82.7-1.85 1.45v.58l-1.1.5-.77.34-2.1 1.55-.5.35-5.06 3.45v-2.4l1.32-89.9 7.58.95z"/><path id="F" d="M251.3 154.3s4 .3 6.54-1.42 13.5-6.4 13.78-9.52c0 0 6.54 15.92 10.23 16.5 0 0-11.37 8.95-12.22 11.8s-23 9.8-23 9.8z"/><path id="G" d="M129.15 410.9s.3.56.9 1.47a42.53 42.53 0 0 0 3.49 4.61 132.78 132.78 0 0 0 17.77 2.57l9.72.37h1.4a14.32 14.32 0 0 0 1-2c1.23-2.92 5.9-8 11-13 .24-.25.5-.5.74-.73 7.3-7.07 15.17-13.76 15.17-13.76l.76-48.7s-1.73 2.3-4.2 5.4c-4.52 5.65-11.5 13.9-14.8 15.25-5.07 2.14-42.96 48.52-42.96 48.52z"/><path id="H" d="M93.83 834.98l85.35-92.5 339-10.9 59.18 120.08H93.83v-16.66z"/><path id="I" d="M209.52 786.9l-19.38 9.58-12.36-71.78c.24-12.23-15.1-70.3-16.1-72.68-12.22-29.17-22.7-138.76-22.7-138.76h17.1l14.43 20.64z"/><path id="J" d="M325.05 720.32l-66 69.55-7.74.55-9.43.68a10.63 10.63 0 0 1-10.48-6.29c-20-45-83.94-262.6-97.4-308.68a8.74 8.74 0 0 1 6.13-10.9l9-2.42.67.08 96.15 12.9a14.65 14.65 0 0 1 12 10.06l70.38 219.93a14.64 14.64 0 0 1-3.28 14.54z"/><path id="K" d="M622.85 589.7s-6.4 3.1-7.47 15.6a49.17 49.17 0 0 1-3.65 13.74l-4.2 8.85-3.35 11.14.35 22.68-8.76 14.18-3 28.08-11.64-5.6s4.8-34.22 8.4-41.15 8.4-43.63 8.4-43.63-.22-13.47 1.5-15.84-3-1.94-3.45-6.9c-.26-2.94-3.54-11.1-6.17-17.25 3.88-3.72 11.77-7.53 11.77-7.53l7.54-3.77z"/></defs><g opacity=".9"><path d="M1119.76 402.74v.12a.15.15 0 0 0 0 .06c0 .3-.08.58-.13.87l-1.34 7.1c-3.6 16.2-11 32.23-20.9 46.73l-1.18 1.67-2.32 3.23-1.67 2.2a156 156 0 0 1-12.54 14.37c-2.44 2.46-5 4.84-7.53 7.1l-1.12 1q-2.07 1.8-4.2 3.5c-.6.5-1.23 1-1.85 1.45l-1.08.84-.77.57c-.7.53-1.4 1-2.1 1.55l-.5.35c-1.67 1.2-3.35 2.34-5.06 3.45a124.1 124.1 0 0 1-11.29 6.5q-2.7 1.37-5.4 2.57-3.3 1.47-6.65 2.7c-.6.23-1.2.44-1.82.66-1.7.6-3.44 1.14-5.16 1.64l-.88.26-1.5.4a135.91 135.91 0 0 1-15.64 3.26l-.86.13-.45.07c-6.7 1-13.36 1.5-20 1.83a251.24 251.24 0 0 1-27.45 0l-2.5-.17h-.45c-1.73-.13-3.46-.3-5.18-.47l-3-.34c-1.52-.18-3-.4-4.54-.6h-.07l-1.45-.23c-1.3-.2-2.6-.43-3.9-.7l-1.32-.24-2.4-.5q-6.28-1.35-12.32-3.28l-.92-.3q-4.38-1.46-8.6-3.25-3.13-1.35-6.15-2.87-4.32-2.2-8.42-4.7-5.73-3.5-11.1-7.56c-4.7-3.5-9.24-7.3-13.64-11.2l-.9-.82-1.66-1.5a269.69 269.69 0 0 1-56.13-71.36q-2.28-4.26-4.42-8.66l-1.3-2.7a2.14 2.14 0 0 1-.1-.22l-.66-1.4c-1.8-3.88-3.5-7.85-5.1-11.87l-.72-1.82-1.12-2.94-.45-1.23q-2.07-5.6-3.86-11.35l-.6-2q-.95-3.12-1.8-6.28c-.53-1.94-1-3.9-1.5-5.9-.08-.3-.15-.62-.22-.94-4-16.88-5.7-35.12-1.65-53.63.27-1.26.57-2.52.9-3.77.48-1.87 1-3.74 1.66-5.6l.44-1.32.18-.48c0-.1.07-.23.1-.34a.68.68 0 0 0 .07-.2l1.08-2.77a96.15 96.15 0 0 1 1.19-2.77l.06-.13c0-.12.1-.23.16-.35l1-2.14.36-.72.1-.36.6-1.1a90 90 0 0 1 9.68-14.69 82.9 82.9 0 0 1 6.6-7.25 71.48 71.48 0 0 1 11.59-9.28q1-.6 1.92-1.17a47.93 47.93 0 0 1 17.37-6.3c7.94-1.12 15.4.17 22.64 1.9l.73.18 3.65.9 12.8 3.13c4 .9 8 1.65 12.13 2.18a85.33 85.33 0 0 0 12.55.7c.62 0 1.26 0 1.9-.06a68.25 68.25 0 0 0 22.5-4.94 43.33 43.33 0 0 0 14.64-9.67 32.88 32.88 0 0 0 2.26-2.6 30.24 30.24 0 0 0 3.18-5 60.08 60.08 0 0 0 .81-1.6c.1-.18.2-.38.3-.57l1.53-3c.06-.1.1-.22.17-.32l2.24-4.22a80.88 80.88 0 0 1 10.82-15.94 45.31 45.31 0 0 1 16.06-11.53c1-.43 2-.84 3.1-1.22a45.16 45.16 0 0 1 14.48-2.59h1.73a50.55 50.55 0 0 1 14.42 2.55 74.65 74.65 0 0 1 19.81 10.26 133.59 133.59 0 0 1 24.81 22.79l1.73 2.08a172.85 172.85 0 0 1 16.59 24.47c14.46 25.62 23.94 55.63 30.78 86.2l.33 1.46.47 2.15.94 4.43.68 3.28.47 2.37.3 1.5a238.63 238.63 0 0 1 3.63 24.75c0 .3 0 .62.07.93a136 136 0 0 1-.74 30.7z" class="B E"/><use xlink:href="#C" class="K"/><use xlink:href="#C" class="B"/><path d="M1044.7 472.72l-4.7 4.88-4.23 4.44-.78.8-5.67 6c-10.22 10.94-21.78 23.75-21.78 25.8a6.64 6.64 0 0 1-.49 2.22l-.86.13-.45.07c-6.7 1-13.36 1.5-20 1.83a251.24 251.24 0 0 1-27.45 0l-2.5-.17h-.45c-1.73-.13-3.46-.3-5.18-.47l-3-.34 3.63-5.12c2.45-3.52 4.88-7.16 6.9-10.46l.35-.56c1.2-2 2.26-3.9 3.07-5.52a14.74 14.74 0 0 0 1.63-4.62 25.25 25.25 0 0 1 1.79-5.73c4.4-11.2 15.94-34 22.38-46.6l4.54-8.76 21.57-5.82 7.45-2h.1l.27-.08 7.86-2.1 2.6-.7 3-.8 7.6 12.95 2.22 32.34z" class="K"/><path d="M937.27 516.32l-4.87-6.45s4.37-1.06 10.07-2.67l9.37-2.84 5.9-2.08 2.8-1.1c4.14-1.74 7.25-3.5 7.88-5.1a3.29 3.29 0 0 0-.16-1.89 51.24 51.24 0 0 0-3.68-8.34l-1.73-3.22c-2-3.65-4.4-7.83-7-12.24l-6.92-11.4-6.32-10.1c-.06-.1-.13-.2-.2-.3L924 420.1l-5.62 13.5-.24.22-9.25 8.2-.22.2-9.48 8.45-7.35 6.6-9.2 8.32a73.67 73.67 0 0 0-6.21 6 64.9 64.9 0 0 0-4 10.81c4.4 3.92 8.93 7.7 13.64 11.22 3.6 2.68 7.28 5.2 11.1 7.55q4.1 2.52 8.42 4.7 3 1.5 6.15 2.87 4.2 1.8 8.6 3.25l.92.3q6 1.94 12.32 3.28l2.4.5z" class="B"/><path d="M1014.03 421.5l-.9 1.38-1.4 2.17-2.2 3.45-.62 1-6.4 10.02-34.2 54.7a20.62 20.62 0 0 0-1 1.89c-.57 1.43-3.14 3-6.7 4.57l-2.5 1.07-6.22 2.25-9.36 2.9c-6.26 1.8-11.24 3-11.24 3l4.67 6.2-2.4-.5q-6.28-1.35-12.32-3.28l-.92-.3q-4.38-1.46-8.6-3.25-3.13-1.35-6.15-2.87-4.32-2.2-8.42-4.7-5.73-3.5-11.1-7.56c-4.7-3.5-9.24-7.3-13.64-11.2l-.9-.82a68.23 68.23 0 0 1 3.77-10c0-.22 2.92-3 7.22-6.9l9.2-8.32 7.35-6.6 8.9-7.96 9.24-8.22 5.63-13.5h1.14l20.57.32h3.12l6.42.1 7.64.1 43.74.68h1.13l6.6.1z" class="K"/><path d="M1014.6 282.17l-3.38 30.73s-34.62 13.8-35.46 13.5-23.08-20.27-19.42-33.5c1.83-6.63 2.68-15.83 3.06-23.34s.32-13.25.32-13.25 50.38-18 45.87-5.63c-1.63 4.5-.9 9.9.7 14.92a69.75 69.75 0 0 0 8.3 16.56z" class="N"/><path d="M1006.3 265.56c-.3.36-.62.7-.93 1-12.178 12.922-32.286 14.2-46 2.92.38-7.45.32-13.25.32-13.25s50.38-18 45.87-5.63c-1.6 4.54-.87 9.93.74 14.96z" class="B"/><path d="M1014.6 242.3c-.01 18.64-15.13 33.746-33.77 33.74s-33.75-15.12-33.75-33.76 15.11-33.754 33.75-33.76a33.56 33.56 0 0 1 33.77 33.78z" class="N"/><path d="M972.93 314.02S959.7 284.7 955.2 284.7s-11.54 151.65-11.54 151.65l69 1.1 2.82-79.63-14.08-70.58s-12.7 27.87-28.47 26.8z" class="B"/><path d="M972.93 316.27s-13.22-29.32-17.73-29.32-11.54 151.66-11.54 151.66l78.25 1.18-6.47-79.73-14.08-70.57s-12.66 27.87-28.43 26.78z" class="B"/><path d="M972.93 315.14s-13.22-29.3-17.73-29.3-11.54 151.65-11.54 151.65l78.25 1.18-6.47-79.76-14.08-70.58s-12.66 27.9-28.43 26.82z" class="L"/><path d="M960.1 276.62s-2.36-3.46-5.74-2.33-5.9-2-9.3 1.12-16.9 7.32-19.42 5.9-11.54 4.8-13.5 8.45-8.45 13.5-8.45 13.5-5.62 6.75-4.78 10.4-2 7.88-5.35 9.57-10.13 18.58-10.13 18.58 1.82 22.58-5.78 26.52-2 21.1-2 21.1l35.9-8.5 10.16-23.06s-3.94 67.55-8.73 73.74-5.34 10.14-5.34 10.14 18.57 3.94 22.5 7.3 14.36-.84 14.36-.84l10.13-89.8s3.66-16.88 3.66-25.6 1.8-56.23 1.8-56.23z" class="B"/><path d="M958.98 276.62s-2.37-3.46-5.75-2.33-5.9-2-9.3 1.12-16.88 7.32-19.42 5.9-11.54 4.8-13.5 8.45-8.44 13.5-8.44 13.5-5.63 6.75-4.8 10.4-2 7.88-5.34 9.57-10.14 18.58-10.14 18.58 1.82 22.58-5.78 26.52c-1.9 1-3 3.18-3.5 5.92-2.18 11 6.86 21.12 18.1 20.77l19.34-8 10.13-29.15s-3.94 67.55-8.72 73.74-5.34 10.12-5.34 10.12 18.58 3.94 22.52 7.3 14.35-.84 14.35-.84l10.13-89.8s3.66-16.88 3.66-25.6 1.8-56.2 1.8-56.2z" class="E"/><path d="M896.94 325.5s3.38 9.3 12.67 8.45-12.67-8.45-12.67-8.45zm9-14.06s6.2 1.13 8.44 6.47-8.44-6.47-8.44-6.47zm17.45-9.54c0 1.13 3.94 20.83 0 29s-3.38 17.73-3.38 17.73zm83.12-32.06s2.2-2.6 4.46-2.3 3.66 1.7 6.48 2.82 9.56 1.4 9.56 2.25 5.92 4.22 9.86 5.06 16.32 9.3 19.42 25.62 8.44 21.1 8.44 21.1l-29.83 14.63 25.9 105c2.8 7.05 3.1 48.7 3.1 48.7s-18.3 8.16-23.08 10.7-2.82-24.2-12.67-39.7-21.1-38-21.1-38L989.9 377.6s-11-64.17-1.7-76 19.14-27.52 18.34-31.75z" class="B"/><path d="M1064.96 492.12v.58l-1.1.5-.77.34-7.64 3.46-11.74 5.48a42.14 42.14 0 0 0-1.83.93 1.06 1.06 0 0 1-1.14 0c-1.5-1-2.18-6.08-3.24-12.7-.44-2.74-.94-5.74-1.6-8.8l-.32-1.44a70.75 70.75 0 0 0-2.86-9.62 40.28 40.28 0 0 0-3.51-7.12c-1.3-2-2.6-4.18-3.92-6.38-3.52-5.92-7-12.23-9.92-17.64l-.6-1.13-2.07-3.9-3.2-6.16-1.27-2.5a2.34 2.34 0 0 0-.13-.26l-17.18-48.14s-.42-2.4-1-6.38c-1.57-10.44-4.42-31.67-4.4-48.3a90.08 90.08 0 0 1 .7-12.13l.2-1.3.25-1.36a16.18 16.18 0 0 1 2.57-6.53c9.28-11.82 19.18-27.52 18.34-31.74l.2-.2a9.24 9.24 0 0 1 1.36-1.18 5.33 5.33 0 0 1 2-.9 3.4 3.4 0 0 1 .9 0c2.25.28 3.66 1.7 6.47 2.82s9.57 1.4 9.57 2.25 5.9 4.22 9.85 5.07 16.33 9.28 19.42 25.6c3 15.73 8.06 20.74 8.43 21.1l-1.1.54-16.93 8.3-3.63 1.77-8.17 4 5.2 21.9c0 .17.1.35.13.53l.28 1.16 9.73 40.44 2.2 9 3 12.2c2.6 10.36 4.6 17.95 5.33 19.73 1 2.58 1.72 9.83 2.18 18 .8 12.5.96 27.1.98 30.14z" class="E"/><path d="M1068.63 393.06l-3.12.38c-9 .82-26.7 1-26.7 1s-13.23-26.18-24.5-25.33c0 0 10.4-11.82 14.64-10.4.7.23 1.14-.3 1.36-1.3 1.12-5-2.77-22.35-2.77-22.35l-5.35-23.36 31 7.6c2.82.56 11.54 5.07 11.54 5.07s.28 12.1 2.53 14.9 4.8 16.33 4.5 19.7 3.1 19.14-.28 23.36 4.18 9.56-2.86 10.72z" class="B"/><path d="M1069.76 393.06l-3.12.38c-9 .82-26.72 1-26.72 1s-13.23-26.18-24.48-25.33c0 0 10.4-11.82 14.63-10.4.7.23 1.15-.3 1.36-1.3 1.13-5-2.77-22.35-2.77-22.35l-5.34-23.36 31 7.6c2.8.56 11.54 5.07 11.54 5.07s.28 12.1 2.53 14.9 4.78 16.33 4.5 19.7 3.1 19.14-.28 23.36 4.18 9.56-2.85 10.72z" class="E"/><path d="M1037.95 331.7s25.9 2.82 27 9.3-27-9.3-27-9.3zm-23.35-89.4a33.56 33.56 0 0 1-9.23 23.18.48.48 0 0 1-.08-.16c-1-2.14-2-4.36-1.88-6.7.1-2.83 1.72-5.4 2.25-8.2.67-3.54-.5-7.13-1.63-10.54-.83-2.5-2.44-5.53-5.06-5.22a6.9 6.9 0 0 1-1.55.18c-1.4-.22-1.68-2-1.83-3.44a15.59 15.59 0 0 0-12.73-13.35 3.93 3.93 0 0 0-2.23.15c-1 .44-1.5 1.5-2.38 2.1-2.86 2-6.5-1.8-10-1.52-3 .25-4.75 3.27-6 6s-2.74 5.77-5.63 6.4a1.71 1.71 0 0 1-1.37-.15c-.9-.66-.28-2 .2-3.07 1.18-2.67.4-4.8-1.06-6.7a33.76 33.76 0 0 1 60.15 21.08z" class="B"/><path d="M905.57 505.9q-4.32-2.2-8.42-4.7-5.73-3.5-11.1-7.56l-10.5-85.35 18.58-.56.52 4.53 4.5 38.45z" class="G"/><path d="M897.15 501.17q-5.73-3.5-11.1-7.56l-10.5-85.35 10.88-.33-.47 1.74.27 2.2 5.56 45.43z" class="B"/><path d="M972.1 408.82l-.6 4.77-3.2 25.4-9.97 79.92-2.5-.17h-.45l-5.18-.47-3-.34-4.54-.6h-.07l-1.45-.23 1.37-9.88v-.34l12.96-96.9.65-.05z" class="G"/><path d="M962.8 411.36l-.28 2.4-.82 6.93-2 17.04-.17 1.18-3.72 31.54-4 33.58v.4l-1 8.38-.64 5.46-3-.34-4.54-.6h-.07l-1.45-.23 1.42-9.87v-.34l12.96-96.9.65-.05z" class="C"/><use xlink:href="#D" class="L"/><use xlink:href="#D" fill="#ccc" class="B"/><path d="M1044.16 505.38q-2.7 1.37-5.4 2.57l-11.2-98-.47-2.28 2.44-.25 1.84 12.33 12.38 82.72z" class="G"/><use xlink:href="#E" class="L"/><use xlink:href="#E" fill="#ccc" class="B"/><path d="M1068.07 407.98l-1.26 82.7-1.85 1.45v.58l-1.1.5v-.23l.48-85.47z" class="G"/><path d="M1119.74 402.9a.15.15 0 0 0 0 .06c0 .3-.08.58-.13.87l-1.34 7.1-64.74 1.2h-1.12l-22.13.4h-2.44l-24.22.45h-1.1l-54.15 1h-3.6l-5 .1-126-5.47q-2.28-4.26-4.42-8.66l-1.3-2.7 109.7-1.7h1.13l20-.3 6.85.38h.12l105.28 5.8z" class="L"/><path d="M1119.74 402.9a.13.13 0 0 1 0 .06c0 .3-.08.58-.13.87l-1.34 7.1-64.74 1.2h-1.12l-22.13.4h-2.44l-24.22.45h-1.1l-54.15 1h-3.6l-5 .1-22.78-1h-1.12l-29.6-1.28-10.3-.44-62.23-2.7q-2.28-4.26-4.42-8.66l-1.3-2.7 109.7-1.7h1.13l20-.3 6.85.38h.13l3.44.2 1.12.07 100.7 5.54z" class="G"/><path d="M1119.74 402.9a.13.13 0 0 1 0 .06l-105.9.25h-14.87l-110.47.26-79.2-3.42-1.3-2.7 130.83-2 6.85.38h.13l3.44.2 1.12.07 100.7 5.54zm-66.3-45.86c1.7.56 11.54 3.1 13.5 9s-13.5-9-13.5-9z" class="B"/><path d="M1024.38 366.9s-14.35 4.36-20.83 4.36-31.8-.14-31.8-.14-66.15-22.1-46.3 8.16 51.22 13.37 51.22 13.37l5.63 1.27c3.1.7 62.9.14 64.88-2.25s-22.8-24.77-22.8-24.77z" class="N"/><path d="M1065.52 393.44c-9 .82-26.7 1-26.7 1s-13.23-26.18-24.5-25.33c0 0 10.4-11.82 14.64-10.4.7.23 1.14-.3 1.36-1.3 11 3.37 32 11.6 34.1 26.06.54 3.9.9 7.2 1.1 9.98z" class="B"/><path d="M1066.64 393.44c-9 .82-26.72 1-26.72 1s-13.23-26.18-24.48-25.33c0 0 10.4-11.82 14.63-10.4.7.23 1.15-.3 1.36-1.3 11 3.37 32 11.6 34.1 26.06.55 3.9.9 7.2 1.1 9.98z" class="F"/><path d="M1065.52 393.44c-9 .83-26.7 1-26.7 1s-13.23-26.18-24.5-25.33c0 0 10.4-11.82 14.64-10.42.7.24 1.14-.28 1.36-1.3 11 3.37 32 11.6 34.1 26.06.54 3.92.9 7.2 1.1 9.98zm-77.95 75.34s25.33-6.2 29.27-2.82-29.27 2.82-29.27 2.82zm-72.62 24.2s10.7 6.2 11.82 11.26-11.82-11.26-11.82-11.26z" class="B"/><path d="M869.68 282.9v110.92c0 1.9 1 2.18 2.7 3.1 5.63 3.12 19.5 8.68 36.13-.12 1.7-.9 2.76-1.2 2.76-3.14V283.6s-21.15 8.53-41.58-.7z" fill="#333f4f"/><ellipse cx="890.47" cy="282.81" rx="20.79" ry="4.42" fill="#2d394a" stroke="#40868e"/><g class="C"><circle cx="871.57" cy="328.95" r=".47"/><circle cx="873.94" cy="329.61" r=".47"/><circle cx="876.86" cy="330.54" r=".47"/><circle cx="882.11" cy="331.67" r=".47"/><circle cx="887.64" cy="332.34" r=".47"/><circle cx="893.37" cy="332.61" r=".47"/><circle cx="901.59" cy="331.48" r=".47"/><circle cx="898.87" cy="332.14" r=".47"/><circle cx="906.68" cy="330.54" r=".47"/><circle cx="904.23" cy="331.01" r=".47"/><circle cx="909.37" cy="329.61" r=".47"/><circle cx="879.54" cy="331.21" r=".47"/><circle cx="884.96" cy="332.14" r=".47"/><circle cx="890.83" cy="332.61" r=".47"/><circle cx="896.17" cy="332.61" r=".47"/><circle cx="871.57" cy="331.24" r=".47"/><circle cx="873.94" cy="331.91" r=".47"/><circle cx="876.86" cy="332.84" r=".47"/><circle cx="882.11" cy="333.97" r=".47"/><circle cx="887.64" cy="334.64" r=".47"/><circle cx="893.37" cy="334.9" r=".47"/><circle cx="901.59" cy="333.77" r=".47"/><circle cx="898.87" cy="334.44" r=".47"/><circle cx="906.68" cy="332.84" r=".47"/><circle cx="904.23" cy="333.31" r=".47"/><circle cx="909.37" cy="331.91" r=".47"/><circle cx="879.54" cy="333.5" r=".47"/><circle cx="884.96" cy="334.44" r=".47"/><circle cx="890.83" cy="334.9" r=".47"/><circle cx="896.17" cy="334.9" r=".47"/><circle cx="871.57" cy="333.54" r=".47"/><circle cx="873.94" cy="334.2" r=".47"/><circle cx="876.86" cy="335.14" r=".47"/><circle cx="882.11" cy="336.27" r=".47"/><circle cx="887.64" cy="336.94" r=".47"/><circle cx="893.37" cy="337.2" r=".47"/><circle cx="901.59" cy="336.07" r=".47"/><circle cx="898.87" cy="336.73" r=".47"/><circle cx="906.68" cy="335.14" r=".47"/><circle cx="904.23" cy="335.6" r=".47"/><circle cx="909.37" cy="334.2" r=".47"/><circle cx="879.54" cy="335.8" r=".47"/><circle cx="884.96" cy="336.73" r=".47"/><circle cx="890.83" cy="337.2" r=".47"/><circle cx="896.17" cy="337.2" r=".47"/><circle cx="871.57" cy="335.84" r=".47"/><circle cx="873.94" cy="336.5" r=".47"/><circle cx="876.86" cy="337.43" r=".47"/><circle cx="882.11" cy="338.56" r=".47"/><circle cx="887.64" cy="339.23" r=".47"/><circle cx="893.37" cy="339.49" r=".47"/><circle cx="901.59" cy="338.36" r=".47"/><circle cx="898.87" cy="339.03" r=".47"/><circle cx="906.68" cy="337.43" r=".47"/><circle cx="904.23" cy="337.9" r=".47"/><circle cx="909.37" cy="336.5" r=".47"/><circle cx="879.54" cy="338.09" r=".47"/><circle cx="884.96" cy="339.03" r=".47"/><circle cx="890.83" cy="339.49" r=".47"/><circle cx="896.17" cy="339.49" r=".47"/><circle cx="871.57" cy="338.13" r=".47"/><circle cx="873.94" cy="338.79" r=".47"/><circle cx="876.86" cy="339.73" r=".47"/><circle cx="882.11" cy="340.86" r=".47"/><circle cx="887.64" cy="341.53" r=".47"/><circle cx="893.37" cy="341.79" r=".47"/><circle cx="901.59" cy="340.66" r=".47"/><circle cx="898.87" cy="341.32" r=".47"/><circle cx="906.68" cy="339.73" r=".47"/><circle cx="904.23" cy="340.19" r=".47"/><circle cx="909.37" cy="338.79" r=".47"/><circle cx="879.54" cy="340.39" r=".47"/><circle cx="884.96" cy="341.32" r=".47"/><circle cx="890.83" cy="341.79" r=".47"/><circle cx="896.17" cy="341.79" r=".47"/><circle cx="871.57" cy="340.43" r=".47"/><circle cx="873.94" cy="341.09" r=".47"/><circle cx="876.86" cy="342.02" r=".47"/><circle cx="882.11" cy="343.15" r=".47"/><circle cx="887.64" cy="343.82" r=".47"/><circle cx="893.37" cy="344.09" r=".47"/><circle cx="901.59" cy="342.95" r=".47"/><circle cx="898.87" cy="343.62" r=".47"/><circle cx="906.68" cy="342.02" r=".47"/><circle cx="904.23" cy="342.49" r=".47"/><circle cx="909.37" cy="341.09" r=".47"/><circle cx="879.54" cy="342.69" r=".47"/><circle cx="884.96" cy="343.62" r=".47"/><circle cx="890.83" cy="344.09" r=".47"/><circle cx="896.17" cy="344.09" r=".47"/><circle cx="871.57" cy="342.72" r=".47"/><circle cx="873.94" cy="343.38" r=".47"/><circle cx="876.86" cy="344.32" r=".47"/><circle cx="882.11" cy="345.45" r=".47"/><circle cx="887.64" cy="346.12" r=".47"/><circle cx="893.37" cy="346.38" r=".47"/><circle cx="901.59" cy="345.25" r=".47"/><circle cx="898.87" cy="345.91" r=".47"/><circle cx="906.68" cy="344.32" r=".47"/><circle cx="904.23" cy="344.78" r=".47"/><circle cx="909.37" cy="343.38" r=".47"/><circle cx="879.54" cy="344.98" r=".47"/><circle cx="884.96" cy="345.91" r=".47"/><circle cx="890.83" cy="346.38" r=".47"/><circle cx="896.17" cy="346.38" r=".47"/><circle cx="871.57" cy="345.02" r=".47"/><circle cx="873.94" cy="345.68" r=".47"/><circle cx="876.86" cy="346.61" r=".47"/><circle cx="882.11" cy="347.74" r=".47"/><circle cx="887.64" cy="348.41" r=".47"/><circle cx="893.37" cy="348.68" r=".47"/><circle cx="901.59" cy="347.55" r=".47"/><circle cx="898.87" cy="348.21" r=".47"/><circle cx="906.68" cy="346.61" r=".47"/><circle cx="904.23" cy="347.08" r=".47"/><circle cx="909.37" cy="345.68" r=".47"/><circle cx="879.54" cy="347.28" r=".47"/><circle cx="884.96" cy="348.21" r=".47"/><circle cx="890.83" cy="348.68" r=".47"/><circle cx="896.17" cy="348.68" r=".47"/><circle cx="871.57" cy="347.31" r=".47"/><circle cx="873.94" cy="347.98" r=".47"/><circle cx="876.86" cy="348.91" r=".47"/><circle cx="882.11" cy="350.04" r=".47"/><circle cx="887.64" cy="350.71" r=".47"/><circle cx="893.37" cy="350.97" r=".47"/><circle cx="901.59" cy="349.84" r=".47"/><circle cx="898.87" cy="350.51" r=".47"/><circle cx="906.68" cy="348.91" r=".47"/><circle cx="904.23" cy="349.38" r=".47"/><circle cx="909.37" cy="347.98" r=".47"/><circle cx="879.54" cy="349.57" r=".47"/><circle cx="884.96" cy="350.51" r=".47"/><circle cx="890.83" cy="350.97" r=".47"/><circle cx="896.17" cy="350.97" r=".47"/><circle cx="871.57" cy="349.61" r=".47"/><circle cx="873.94" cy="350.27" r=".47"/><circle cx="876.86" cy="351.2" r=".47"/><circle cx="882.11" cy="352.33" r=".47"/><circle cx="887.64" cy="353" r=".47"/><circle cx="893.37" cy="353.27" r=".47"/><circle cx="901.59" cy="352.14" r=".47"/><circle cx="898.87" cy="352.8" r=".47"/><circle cx="906.68" cy="351.2" r=".47"/><circle cx="904.23" cy="351.67" r=".47"/><circle cx="909.37" cy="350.27" r=".47"/><circle cx="879.54" cy="351.87" r=".47"/><circle cx="884.96" cy="352.8" r=".47"/><circle cx="890.83" cy="353.27" r=".47"/><circle cx="896.17" cy="353.27" r=".47"/><circle cx="871.57" cy="351.9" r=".47"/><circle cx="873.94" cy="352.57" r=".47"/><circle cx="876.86" cy="353.5" r=".47"/><circle cx="882.11" cy="354.63" r=".47"/><circle cx="887.64" cy="355.3" r=".47"/><circle cx="893.37" cy="355.56" r=".47"/><circle cx="901.59" cy="354.43" r=".47"/><circle cx="898.87" cy="355.1" r=".47"/><circle cx="906.68" cy="353.5" r=".47"/><circle cx="904.23" cy="353.97" r=".47"/><circle cx="909.37" cy="352.57" r=".47"/><circle cx="879.54" cy="354.16" r=".47"/><circle cx="884.96" cy="355.1" r=".47"/><circle cx="890.83" cy="355.56" r=".47"/><circle cx="896.17" cy="355.56" r=".47"/><circle cx="871.57" cy="354.2" r=".47"/><circle cx="873.94" cy="354.86" r=".47"/><circle cx="876.86" cy="355.8" r=".47"/><circle cx="882.11" cy="356.93" r=".47"/><circle cx="887.64" cy="357.6" r=".47"/><circle cx="893.37" cy="357.86" r=".47"/><circle cx="901.59" cy="356.73" r=".47"/><circle cx="898.87" cy="357.39" r=".47"/><circle cx="906.68" cy="355.8" r=".47"/><circle cx="904.23" cy="356.26" r=".47"/><circle cx="909.37" cy="354.86" r=".47"/><circle cx="879.54" cy="356.46" r=".47"/><circle cx="884.96" cy="357.39" r=".47"/><circle cx="890.83" cy="357.86" r=".47"/><circle cx="896.17" cy="357.86" r=".47"/><circle cx="871.57" cy="356.5" r=".47"/><circle cx="873.94" cy="357.16" r=".47"/><circle cx="876.86" cy="358.09" r=".47"/><circle cx="882.11" cy="359.22" r=".47"/><circle cx="887.64" cy="359.89" r=".47"/><circle cx="893.37" cy="360.15" r=".47"/><circle cx="901.59" cy="359.02" r=".47"/><circle cx="898.87" cy="359.69" r=".47"/><circle cx="906.68" cy="358.09" r=".47"/><circle cx="904.23" cy="358.56" r=".47"/><circle cx="909.37" cy="357.16" r=".47"/><circle cx="879.54" cy="358.75" r=".47"/><circle cx="884.96" cy="359.69" r=".47"/><circle cx="890.83" cy="360.15" r=".47"/><circle cx="896.17" cy="360.15" r=".47"/><circle cx="871.57" cy="358.79" r=".47"/><circle cx="873.94" cy="359.45" r=".47"/><circle cx="876.86" cy="360.39" r=".47"/><circle cx="882.11" cy="361.52" r=".47"/><circle cx="887.64" cy="362.19" r=".47"/><circle cx="893.37" cy="362.45" r=".47"/><circle cx="901.59" cy="361.32" r=".47"/><circle cx="898.87" cy="361.98" r=".47"/><circle cx="906.68" cy="360.39" r=".47"/><circle cx="904.23" cy="360.85" r=".47"/><circle cx="909.37" cy="359.45" r=".47"/><circle cx="879.54" cy="361.05" r=".47"/><circle cx="884.96" cy="361.98" r=".47"/><circle cx="890.83" cy="362.45" r=".47"/><circle cx="896.17" cy="362.45" r=".47"/><circle cx="871.57" cy="361.09" r=".47"/><circle cx="873.94" cy="361.75" r=".47"/><circle cx="876.86" cy="362.68" r=".47"/><circle cx="882.11" cy="363.81" r=".47"/><circle cx="887.64" cy="364.48" r=".47"/><circle cx="893.37" cy="364.75" r=".47"/><circle cx="901.59" cy="363.61" r=".47"/><circle cx="898.87" cy="364.28" r=".47"/><circle cx="906.68" cy="362.68" r=".47"/><circle cx="904.23" cy="363.15" r=".47"/><circle cx="909.37" cy="361.75" r=".47"/><circle cx="879.54" cy="363.35" r=".47"/><circle cx="884.96" cy="364.28" r=".47"/><circle cx="890.83" cy="364.75" r=".47"/><circle cx="896.17" cy="364.75" r=".47"/><circle cx="871.57" cy="363.38" r=".47"/><circle cx="873.94" cy="364.04" r=".47"/><circle cx="876.86" cy="364.98" r=".47"/><circle cx="882.11" cy="366.11" r=".47"/><circle cx="887.64" cy="366.78" r=".47"/><circle cx="893.37" cy="367.04" r=".47"/><circle cx="901.59" cy="365.91" r=".47"/><circle cx="898.87" cy="366.57" r=".47"/><circle cx="906.68" cy="364.98" r=".47"/><circle cx="904.23" cy="365.44" r=".47"/><circle cx="909.37" cy="364.04" r=".47"/><circle cx="879.54" cy="365.64" r=".47"/><circle cx="884.96" cy="366.57" r=".47"/><circle cx="890.83" cy="367.04" r=".47"/><circle cx="896.17" cy="367.04" r=".47"/><circle cx="871.57" cy="365.68" r=".47"/><circle cx="873.94" cy="366.34" r=".47"/><circle cx="876.86" cy="367.27" r=".47"/><circle cx="882.11" cy="368.4" r=".47"/><circle cx="887.64" cy="369.07" r=".47"/><circle cx="893.37" cy="369.34" r=".47"/><circle cx="901.59" cy="368.21" r=".47"/><circle cx="898.87" cy="368.87" r=".47"/><circle cx="906.68" cy="367.27" r=".47"/><circle cx="904.23" cy="367.74" r=".47"/><circle cx="909.37" cy="366.34" r=".47"/><circle cx="879.54" cy="367.94" r=".47"/><circle cx="884.96" cy="368.87" r=".47"/><circle cx="890.83" cy="369.34" r=".47"/><circle cx="896.17" cy="369.34" r=".47"/><circle cx="871.57" cy="367.97" r=".47"/><circle cx="873.94" cy="368.64" r=".47"/><circle cx="876.86" cy="369.57" r=".47"/><circle cx="882.11" cy="370.7" r=".47"/><circle cx="887.64" cy="371.37" r=".47"/><circle cx="893.37" cy="371.63" r=".47"/><circle cx="901.59" cy="370.5" r=".47"/><circle cx="898.87" cy="371.17" r=".47"/><circle cx="906.68" cy="369.57" r=".47"/><circle cx="904.23" cy="370.04" r=".47"/><circle cx="909.37" cy="368.64" r=".47"/><circle cx="879.54" cy="370.23" r=".47"/><circle cx="884.96" cy="371.17" r=".47"/><circle cx="890.83" cy="371.63" r=".47"/><circle cx="896.17" cy="371.63" r=".47"/><circle cx="871.57" cy="370.27" r=".47"/><circle cx="873.94" cy="370.93" r=".47"/><circle cx="876.86" cy="371.86" r=".47"/><circle cx="882.11" cy="372.99" r=".47"/><circle cx="887.64" cy="373.66" r=".47"/><circle cx="893.37" cy="373.93" r=".47"/><circle cx="901.59" cy="372.8" r=".47"/><circle cx="898.87" cy="373.46" r=".47"/><circle cx="906.68" cy="371.86" r=".47"/><circle cx="904.23" cy="372.33" r=".47"/><circle cx="909.37" cy="370.93" r=".47"/><circle cx="879.54" cy="372.53" r=".47"/><circle cx="884.96" cy="373.46" r=".47"/><circle cx="890.83" cy="373.93" r=".47"/><circle cx="896.17" cy="373.93" r=".47"/><circle cx="871.57" cy="372.56" r=".47"/><circle cx="873.94" cy="373.23" r=".47"/><circle cx="876.86" cy="374.16" r=".47"/><circle cx="882.11" cy="375.29" r=".47"/><circle cx="887.64" cy="375.96" r=".47"/><circle cx="893.37" cy="376.22" r=".47"/><circle cx="901.59" cy="375.09" r=".47"/><circle cx="898.87" cy="375.76" r=".47"/><circle cx="906.68" cy="374.16" r=".47"/><circle cx="904.23" cy="374.63" r=".47"/><circle cx="909.37" cy="373.23" r=".47"/><circle cx="879.54" cy="374.82" r=".47"/><circle cx="884.96" cy="375.76" r=".47"/><circle cx="890.83" cy="376.22" r=".47"/><circle cx="896.17" cy="376.22" r=".47"/><circle cx="871.57" cy="374.86" r=".47"/><circle cx="873.94" cy="375.52" r=".47"/><circle cx="876.86" cy="376.46" r=".47"/><circle cx="882.11" cy="377.59" r=".47"/><circle cx="887.64" cy="378.26" r=".47"/><circle cx="893.37" cy="378.52" r=".47"/><circle cx="901.59" cy="377.39" r=".47"/><circle cx="898.87" cy="378.05" r=".47"/><circle cx="906.68" cy="376.46" r=".47"/><circle cx="904.23" cy="376.92" r=".47"/><circle cx="909.37" cy="375.52" r=".47"/><circle cx="879.54" cy="377.12" r=".47"/><circle cx="884.96" cy="378.05" r=".47"/><circle cx="890.83" cy="378.52" r=".47"/><circle cx="896.17" cy="378.52" r=".47"/><circle cx="871.57" cy="377.16" r=".47"/><circle cx="873.94" cy="377.82" r=".47"/><circle cx="876.86" cy="378.75" r=".47"/><circle cx="882.11" cy="379.88" r=".47"/><circle cx="887.64" cy="380.55" r=".47"/><circle cx="893.37" cy="380.81" r=".47"/><circle cx="901.59" cy="379.68" r=".47"/><circle cx="898.87" cy="380.35" r=".47"/><circle cx="906.68" cy="378.75" r=".47"/><circle cx="904.23" cy="379.22" r=".47"/><circle cx="909.37" cy="377.82" r=".47"/><circle cx="879.54" cy="379.41" r=".47"/><circle cx="884.96" cy="380.35" r=".47"/><circle cx="890.83" cy="380.81" r=".47"/><circle cx="896.17" cy="380.81" r=".47"/><circle cx="871.57" cy="379.45" r=".47"/><circle cx="873.94" cy="380.11" r=".47"/><circle cx="876.86" cy="381.05" r=".47"/><circle cx="882.11" cy="382.18" r=".47"/><circle cx="887.64" cy="382.85" r=".47"/><circle cx="893.37" cy="383.11" r=".47"/><circle cx="901.59" cy="381.98" r=".47"/><circle cx="898.87" cy="382.64" r=".47"/><circle cx="906.68" cy="381.05" r=".47"/><circle cx="904.23" cy="381.51" r=".47"/><circle cx="909.37" cy="380.11" r=".47"/><circle cx="879.54" cy="381.71" r=".47"/><circle cx="884.96" cy="382.64" r=".47"/><circle cx="890.83" cy="383.11" r=".47"/><circle cx="896.17" cy="383.11" r=".47"/><circle cx="871.57" cy="381.75" r=".47"/><circle cx="873.94" cy="382.41" r=".47"/><circle cx="876.86" cy="383.34" r=".47"/><circle cx="882.11" cy="384.47" r=".47"/><circle cx="887.64" cy="385.14" r=".47"/><circle cx="893.37" cy="385.4" r=".47"/><circle cx="901.59" cy="384.27" r=".47"/><circle cx="898.87" cy="384.94" r=".47"/><circle cx="906.68" cy="383.34" r=".47"/><circle cx="904.23" cy="383.81" r=".47"/><circle cx="909.37" cy="382.41" r=".47"/><circle cx="879.54" cy="384.01" r=".47"/><circle cx="884.96" cy="384.94" r=".47"/><circle cx="890.83" cy="385.4" r=".47"/><circle cx="896.17" cy="385.4" r=".47"/></g><path d="M945.75 226.7s13.7-5.12 18.24 5.43l4.15 1.07c7.25-10.83 26.34 0 26.34 0l26.8 11.85-1 1.67-26.86-9.37s-3.55 11-8.2 13.65-12.23-1.47-12.23-1.47c-4.72-1.9-5.08-10.18-5-14.18l-4.06-.8c-.28 4-1.76 11.7-9 12.58-9.85 1.18-10.54-7.5-10.54-7.5s-.25-11.06 1.37-12.9z" class="K"/><path d="M955.52 226.8c-.45 1-1.08 2.4-.17 3.06a1.69 1.69 0 0 0 1.36.16c2.9-.63 4.42-3.7 5.63-6.4s3-5.72 6-6c3.47-.3 7.1 3.5 10 1.5.88-.6 1.4-1.66 2.4-2.1a3.89 3.89 0 0 1 2.22-.14 15.58 15.58 0 0 1 12.73 13.34c.15 1.4.44 3.22 1.83 3.44a5.91 5.91 0 0 0 1.55-.18c2.62-.3 4.22 2.72 5.06 5.22 1.14 3.4 2.3 7 1.63 10.55-.52 2.8-2.16 5.35-2.25 8.2-.08 2.34.9 4.57 1.88 6.7s2.55 4.63 4.87 4.33c1.9-.25 2.95-2.27 3.87-4s2.56-3.5 4.4-3c.82.24 1.68.94 2.43.5a1.75 1.75 0 0 0 .71-1.22c.9-3.94-.4-8.36 1.52-11.9 1.47-2.73 4.46-4.2 6.9-6.15a19.7 19.7 0 0 0 2.66-28.22c-2.6-3-6.33-5.73-6.54-9.72-.16-3 1.9-5.84 1.92-8.88s-1.88-5.6-4-7.63a26.23 26.23 0 0 0-23.58-6.21c-2.18.52-4.37 1.34-6.6 1.06-2.58-.32-4.74-2-7.06-3.22-7.62-3.85-17.93-1.05-22.54 6.13-2.67 4.15-3.7 9.57-7.7 12.48-2.62 1.9-6.36 2.62-7.8 5.52-.87 1.74-.62 3.8-.36 5.73a13.42 13.42 0 0 0 4.28 8.19c2.28 2.58 4.36 5.2 2.76 8.87z" class="F"/><path d="M1027.33 199.42a14.89 14.89 0 0 0 .6-2.34 13.86 13.86 0 0 0-.6 2.34zm-71.27 24.94a8.41 8.41 0 0 1 .56-1.5c1.62-3.67-.46-6.3-2.88-8.76a13.42 13.42 0 0 1-4.28-8.19 20.75 20.75 0 0 1-.24-2.61 5.76 5.76 0 0 0-.53.82c-.87 1.74-.62 3.8-.36 5.73a13.42 13.42 0 0 0 4.28 8.19c1.85 1.86 3.5 3.86 3.45 6.32zm63.46 33.28c-1.85-.54-3.5 1.28-4.4 3s-2 3.7-3.88 4c-2.3.3-3.9-2.2-4.87-4.33s-2-4.36-1.88-6.7c0-.28 0-.56.08-.83a15.42 15.42 0 0 0-1.2 4.77c-.08 2.34.9 4.57 1.88 6.7s2.55 4.63 4.87 4.33c1.9-.25 2.95-2.27 3.87-4s2.56-3.5 4.4-3c.82.24 1.68.94 2.43.5a1.75 1.75 0 0 0 .71-1.22 15 15 0 0 0 .33-2.68c-.7.32-1.52-.3-2.35-.55zm11.58-18.74c-2.42 1.94-5.4 3.42-6.9 6.15a9.93 9.93 0 0 0-1 3.81c1.5-2.65 4.42-4.1 6.8-6a20 20 0 0 0 7.1-12 20 20 0 0 1-6.02 8.04zm-25.4 9.92a22.77 22.77 0 0 0 1.07-3.47c.66-3.54-.5-7.14-1.64-10.55-.83-2.5-2.44-5.52-5-5.22a5.94 5.94 0 0 1-1.56.18c-1.4-.22-1.68-2-1.82-3.44a15.59 15.59 0 0 0-12.73-13.34 3.92 3.92 0 0 0-2.23.14c-1 .44-1.5 1.5-2.38 2.1-2.87 2-6.5-1.8-10-1.5-2.94.24-4.75 3.26-6 6s-2.74 5.78-5.63 6.4a1.69 1.69 0 0 1-1.36-.16 1.08 1.08 0 0 1-.45-.84 6.41 6.41 0 0 1-.51 1.72c-.45 1-1.08 2.4-.17 3.06a1.69 1.69 0 0 0 1.36.16c2.9-.63 4.42-3.7 5.63-6.4s3-5.72 6-6c3.47-.3 7.1 3.5 10 1.5.88-.6 1.4-1.66 2.4-2.1a3.89 3.89 0 0 1 2.22-.14 15.58 15.58 0 0 1 12.73 13.34c.15 1.4.44 3.22 1.83 3.44a5.91 5.91 0 0 0 1.55-.18c2.62-.3 4.22 2.72 5.06 5.22 1.04 3.26 2.12 6.7 1.64 10.08z" class="B"/></g><g opacity=".9"><path d="M.03 206.8l.07 2.8a195.83 195.83 0 0 0 3.52 30.36c5.73 29.8 17.7 59.6 31.86 88l.68 1.35 1 2q1 2.06 2.08 4.08l1.57 3 1.14 2.17.72 1.34a249.56 249.56 0 0 0 12.85 21.76l.53.78a135.11 135.11 0 0 0 20.36 24c13.54 12.45 30.74 21.45 49.1 26.6.62.18 1.24.34 1.87.5l3.64.9c.84.2 1.68.4 2.53.56a132.78 132.78 0 0 0 17.77 2.57c3.24.25 6.5.37 9.72.37h1.4a118.48 118.48 0 0 0 11.95-.7l.57-.07a103.62 103.62 0 0 0 31.16-8.39q2.37-1.06 4.65-2.25l.78-.4.38-.2a126.18 126.18 0 0 0 14.66-9.17c5.45-3.9 10.6-8.15 15.56-12.5a239.41 239.41 0 0 0 21-20.68l.3-.33q4.23-4.77 8.07-9.8v-.06q2.67-3.5 5.12-7.15c.08-.1.15-.2.23-.33 2.4-3.57 4.6-7.23 6.63-11l.46-.87q2.2-4.14 4-8.42c6.92-16.08 10-33.5 11.7-50.94 3.45-35.26 1.44-71.6-7.9-106.86q-1.9-7.16-4.2-14.25l-.63-1.9-1-3.05-.44-1.27q-2-5.76-4.33-11.45l-.8-2-2.63-6.12-2.6-5.6-.43-.9c-7.7-15.8-17.8-31.18-32.16-42.77l-3-2.3q-2.25-1.68-4.65-3.22l-1.13-.72-.42-.26-.3-.18-.17-.1c-.8-.5-1.64-1-2.47-1.42l-2.56-1.33h-.12l-.34-.16-2-1-.7-.3-.27-.12-1.13-.47a79 79 0 0 0-15.94-4.77 73.63 73.63 0 0 0-9.16-1.12 60.65 60.65 0 0 0-13.93.75 47.71 47.71 0 0 0-2.08.4 42.47 42.47 0 0 0-16.15 7c-6.3 4.56-10.73 10.67-14.76 17l-.4.64-2 3.2-7.06 11.2c-2.26 3.42-4.63 6.78-7.2 10a85.19 85.19 0 0 1-8.4 9.14 55.46 55.46 0 0 1-1.38 1.25 62.47 62.47 0 0 1-18.91 11.57c-6.28 2.35-13 3.4-19.53 2.05a26.09 26.09 0 0 1-5.38-1.72l-9.6-4.1a71 71 0 0 0-17.53-5 39 39 0 0 0-18.49 2c-1 .35-1.95.75-2.94 1.2a41.76 41.76 0 0 0-11.82 7.91c-.4.4-.8.8-1.2 1.2-8.75 8.94-13.57 21.3-16.16 33.4a152 152 0 0 0-3.25 34.72z" class="B E"/><path d="M167 436.82l-2 2.32 1.87.5 3.64.9 2.53.56a132.78 132.78 0 0 0 17.77 2.57l9.72.37a15.28 15.28 0 0 0 1.62-2.89c1.32-3.1 6.47-8.57 12-13.84l-.18 1.4v.35l-.06 14.27.57-.07a103.62 103.62 0 0 0 31.16-8.39q2.37-1.06 4.65-2.25l.78-.4.38-.2 1.83-9.37.06-.37.2-1c.07-.3.1-.62.17-.9s.07-.4.1-.6l.53-2.9a14.11 14.11 0 0 1 .18-1.64 14.44 14.44 0 0 1 3.87-8.1 7.59 7.59 0 0 0 1.86-3.21c1.1-3.4.9-7.84.75-9.86-.05-.67-.1-1.07-.1-1.07s3.8-2 6.06-8.2a24.53 24.53 0 0 0 1.09-4c1.63-8.8 6.66-27.33 7.28-29.6l.06-.22s.13-.32.36-.93c0-.07.05-.14.07-.22l.1-.23c2.26-6.2 11-31.28 10.3-47.94-.77-19.13 1.16-29.1 1.16-29.1l2.26-41.58v-.44l.13-2.43v-.7c.33.25.63.5.87.7l.55.46.2.18v-.48c.35.3.55.48.55.48s1-16.15.9-25.28c0-1.07 0-2.06-.08-2.9 6.76-2.3 17-6.07 17.63-8 .5-1.6 4.3-5.1 7.56-7.9l1.8-1.5.93-.77 2.2-1.75a2 2 0 0 1-.71-.27 15.24 15.24 0 0 0 1.15-.57c1-.52 2-1.16 3.16-1.9 4.8-3.17 10.68-8.17 13.95-13 1.82-2.7 2.83-5.38 2.4-7.65a4.28 4.28 0 0 0-.16-.64l15.43-22.2a3.78 3.78 0 0 0-.34-4.74l.06-.08-.1-.07-.6-.4.1.1a2 2 0 0 0-2.6.56l-.24.35L341 149.27l-2.35 3.4c-5.2-1.57-12.77 2.85-18.74 7.35a96.47 96.47 0 0 0-5.67 4.63l-1 .9c-.47-1-.74-1.7-.74-1.7-.3 3.16-11.45 7.9-14.05 9.62a9.51 9.51 0 0 1-3.89 1.31c.37-12-8.92-24.65-8.92-24.65l-22.67-28.9a20.85 20.85 0 0 1-.32-4.28 26.53 26.53 0 0 1 1-6.94l.35-1.1a23.61 23.61 0 0 1 1.25-3c.2-.37.38-.75.6-1.12h.1c-.4 1.38-.8 2.77-1.08 4.16-.08.38-.15.75-.2 1.13l-.06.47a15.22 15.22 0 0 0-.08 1.79v.26c.18 2.4 1.95 11.15 4.37 10.76a1.42 1.42 0 0 0 1.3-.63 6.22 6.22 0 0 0 .72-1 6.52 6.52 0 0 0 .41-.84 9.41 9.41 0 0 0 .41-1.2 24.16 24.16 0 0 0 .57-7 20.2 20.2 0 0 1-.36 3.26c.13-2.53-.08-5.2-.16-7.35v-2.72c0-.46 0-.92.05-1.4h.28v1.12-1.13h.3a30 30 0 0 0 6.63-2 30.5 30.5 0 0 0 7.24-4.41 7.59 7.59 0 0 0 1.42-.2 7.49 7.49 0 0 0 3.59-2l.2-.22a5.06 5.06 0 0 1-.86 4.58.76.76 0 0 1-.11.14h.14c2.87-.2 5.32-2.4 6.5-5a1.59 1.59 0 0 0 .12-.27 18.31 18.31 0 0 0 .87-8.89 60.09 60.09 0 0 1-.65-9c0-.73.13-1.46.2-2.2v-.26a14.19 14.19 0 0 0 0-2.44 1.11 1.11 0 0 0 0-.17 9.45 9.45 0 0 0-.24-1.31h.1a2.14 2.14 0 0 0 1.65-.85l.18-.15a3.47 3.47 0 0 0 .58-.68 5.23 5.23 0 0 0 .55-1 16.87 16.87 0 0 0 .69-2.45 37.44 37.44 0 0 0 1.17-10.29 40.02 40.02 0 0 1-.36 3.15c.28-4-.28-7.84-2.9-10.72-1.8-2-4.33-3.15-6.77-4.3a5.08 5.08 0 0 1-2.19-1.56 6.45 6.45 0 0 1-.68-2.74c-.85-5.82-6.32-9.85-11.76-12.2-7-3-15.43-4.35-22.16-.73-3.27 1.75-5.85 4.5-8.8 6.76-3.74 2.83-8 4.82-12 7.3S226.92 46 225 50.22s-1.62 9.2-1.1 14c.27 2.44.6 4.88.73 7.28v.6a37.55 37.55 0 0 1-3 16.1 31.54 31.54 0 0 1-10.33 13.19 11.66 11.66 0 0 0-2.92 2.53 3.15 3.15 0 0 0-.24 3.61 3.91 3.91 0 0 0 .81.76 6.44 6.44 0 0 1 .93.8 2.8 2.8 0 0 1 .52.88 5.3 5.3 0 0 1 .08 2.91c0 .1 0 .18-.05.26l-.12.5a28.45 28.45 0 0 1-7.74 13.09c.16 1.18 1.6 1.64 2.8 1.82a64.8 64.8 0 0 0 9.45.68h1.36c-.15.36-.3.73-.44 1.12-.32.85-.67 1.8-1 2.8-1.44 4.25-2.78 9.45-2.18 12.9 1.16 6.7 4.63 37.3 2.9 42.67s2.7 44.58 2.7 44.58l.35 1.68 1.3 5.8c0 .1-.08.2-.13.3-2.7 6.35-5.74 13.3-7.28 16.12-2.07 3.8-2.1 17.83 1.23 30.68 1.7 6.62 4.32 12.92 8 17.34 0 0 3.78 5.33 3.5 8a1.84 1.84 0 0 1-.19.64c-.82 1.6-.4 4.05-.07 5.37.14.58.27.94.27.94v1l1.67 36.93a97.58 97.58 0 0 1-.8 11.57c-4.6 5.7-11.72 14-15.08 15.4-5.18 2.1-43.82 49-43.82 49a26.69 26.69 0 0 0 .91 1.48z" transform="translate(-39.48 -24.1)" fill="url(#A)"/><path d="M282.28 159.02a10 10 0 0 1-3.7 1.4c-4.83.15-8.8-12.93-8.8-12.93s1.38-1.4 3.57-3.34c6.47-5.76 20.05-16.4 26.42-10.44 7.14 6.67-9.16 20.8-17.48 25.3zM133.52 417a132.78 132.78 0 0 0 17.77 2.57c-2.53-4.47-19-9.78-19-9.78l-2.23 2.6-1.06 1.25-1.62 1.9 3.64.9a65.03 65.03 0 0 0 2.5.56z" class="M"/><path d="M282.28 159.02a10 10 0 0 1-3.7 1.4c-4.83.15-8.8-12.93-8.8-12.93s1.38-1.4 3.57-3.34c1.54 3.56 5.9 13.1 8.94 14.87z" class="B"/><use xlink:href="#F" fill="#ff748e"/><use xlink:href="#F" class="H"/><path d="M128.98 413.65l2 2.8 2.53.56a132.78 132.78 0 0 0 17.77 2.57c-2.53-4.47-19-9.78-19-9.78l-2.23 2.6z" class="B"/><use xlink:href="#G" class="H"/><use xlink:href="#G" class="B"/><path d="M149 403.97a60.35 60.35 0 0 0 12.65 0c7.53-.7 1.88 3.84-12.65 0zm-3.42 4.83s9.95 5.68 13.8 2.84-3.7 2.74-13.8-2.84z" class="B"/><path d="M185.65 289.18a3.9 3.9 0 0 1 .16 2.78 6.22 6.22 0 0 0-.42 3.23 14 14 0 0 0 .31 1.9l.3 1.12 1.68 37.5a98.12 98.12 0 0 1-.78 11.46c-.54 4-1.46 8.1-3 10.52-3.4 5.2-7.82 39.2-8.74 46.54l-.17 1.4-.06 13.54a103.62 103.62 0 0 0 31.16-8.39q2.37-1.06 4.65-2.25l.78-.4.38-.2 1.8-9.35.06-.37.2-1 .17-.9c.06-.28.07-.4.1-.6l.32-1.76a17.25 17.25 0 0 1 .39-2.77 13.64 13.64 0 0 1 3.57-6.88 8.61 8.61 0 0 0 2.16-4.43 32.78 32.78 0 0 0 .29-9.57 5.19 5.19 0 0 0 .55-.39c1.16-.82 4.27-3.46 5.95-9.28a23.92 23.92 0 0 0 .6-2.55c1.7-9.28 7.2-29.56 7.2-29.56l.57-1.54c.13-.33.27-.72.42-1.15 0-.07.05-.14.07-.22l.1-.23c2.87-8.2 10.06-30.5 9.46-45.68-.77-18.94 1.13-28.8 1.13-28.8l2.37-44v-1.1l.22-4.14-21.8-.65h-1.27l-5.18-.16h-.72l-15.77-.47h-2.06l-4.35-.13-12.68 7.4-1.3 3.18c-.17.44-.37.93-.6 1.44s-.43 1.07-.68 1.66l-1.8 4.32-.64 1.54c-2.68 6.38-5.73 13.44-7.27 16.27-1.9 3.52-2 16 .63 28 1.65 7.4 4.37 14.66 8.4 19.57a28 28 0 0 1 3.12 5.57z" class="H"/><path d="M199.86 390.33s7.77 6.13 11 6.1-11-6.1-11-6.1z" class="B"/><path d="M246.6 133.9v12.5l-8.26-3.56-8.22-3.55-17.9-17.62s-14.17-9.2-21.75-17.6c-4.33-4.8-6.5-9.3-2.7-11.68a23.68 23.68 0 0 0 4.95-4.35 80.91 80.91 0 0 0 9.88-14.58l.35-.63c3.7-6.77 6.13-12.55 6.13-12.55s10.38 3.33 17.06 8c.54.37 1.05.76 1.54 1.16 3.73 3.06 5.57 6.6 2.15 10.12a26.72 26.72 0 0 0-2.45 2.92 21.67 21.67 0 0 0-1.52 2.39c-.2.37-.4.74-.58 1.1a25.55 25.55 0 0 0-2.28 15.17z" class="M"/><path d="M245.1 44.6c.43.74 1 1.4 1.43 2.15.84 1.6.7 3.5.62 5.3a30.37 30.37 0 0 0 .55 8.46c.6 2.5 1.68 4.9 1.77 7.46.13 3.62-1.75 7-3.57 10.1a7.28 7.28 0 0 0 5.2-2.42 5 5 0 0 1-1 4.67c3-.14 5.5-2.48 6.65-5.23a18.39 18.39 0 0 0 .85-8.79 59 59 0 0 1-.64-8.89 34.28 34.28 0 0 0 .26-4.85c-.28-3.22-2.26-6-4.16-8.62l-3.85-5.27a2.7 2.7 0 0 0-1.06-1c-3.63-1.55-4.07 5.15-3.05 6.93z" class="F"/><path d="M229.85 79.57a26.72 26.72 0 0 0-2.45 2.92 21.67 21.67 0 0 0-1.52 2.39l-.58 1.1a29.58 29.58 0 0 1-14.19-4.51 29.93 29.93 0 0 1-8.14-7.58 8.92 8.92 0 0 1-.35-.5l.35-.63c3.7-6.77 6.13-12.55 6.13-12.55s10.38 3.33 17.06 8c.54.37 1.05.76 1.54 1.16 3.73 3.13 5.57 6.66 2.15 10.2z" class="B"/><path d="M256.82 55.07c-.001 14.396-10.274 26.742-24.43 29.36a31.1 31.1 0 0 1-5.41.48h-1.13a29.58 29.58 0 0 1-14.77-4.54 30 30 0 0 1-8.14-7.55 29.82 29.82 0 0 1 33.156-46.015A29.82 29.82 0 0 1 256.82 55.07z" class="M"/><path d="M230.9 128.83s15 8.48 11.18 1.33l-19.6-29 22.26 28.6s14.2 19.5 6.44 33c0 0-1.14 11.18.2 13.83s-.38 30.9-.38 30.9-5.3-4.93-8.15-4-22.92 2.65-22.92 2.65z" class="B"/><path d="M249.64 201.6l-.28 5.24c-1.8-1.3-4.3-2.77-6-2.22-2.84.95-22.92 2.66-22.92 2.66l.92-6.52z" class="B"/><path d="M231.46 128.83s15 8.48 11.17 1.33l-19.6-29 22.27 28.6s14.2 19.5 6.44 33c0 0-1.14 11.18.2 13.83s-.38 30.9-.38 30.9-5.3-4.93-8.15-4-22.87 2.64-22.87 2.64z" class="F"/><path d="M239.52 143.37c-.88 9.1-4.63 19.94-4.63 19.94s-2.64 26.9-6 34.87-1.9 18.94-3.8 39.2c-.68 7.3-3 12.3-6.2 15.7-5.22 5.57-12.67 6.73-18.55 6.38-.48 0-.94-.06-1.4-.1-9.48-1-18.57-46.6-18.57-46.6s-4.35-38.84-2.65-44.14-1.7-35.62-2.84-42.25c-.72-4.2 1.45-11.07 3.13-15.54 1-2.58 1.8-4.36 1.8-4.36s3.22-10.23 8.53-15.53a7.77 7.77 0 0 1 5.62-2.36 13.93 13.93 0 0 1 7 2.2l.24.16s34.5 35.24 37.7 43.38c.84 2.28.93 5.58.62 9.05z" class="B"/><path d="M238.35 142.8c-.88 9.1-4.62 19.94-4.62 19.94s-2.65 26.9-6.06 34.87-1.9 18.94-3.8 39.22c-.68 7.3-3 12.3-6.2 15.7-5.22 5.57-12.66 6.73-18.55 6.4l-1.4-.1c-9.47-.94-18.57-46.6-18.57-46.6s-4.35-38.84-2.65-44.14-1.7-35.62-2.84-42.25c-.72-4.2 1.45-11.07 3.13-15.54 1-2.58 1.8-4.36 1.8-4.36s3.23-10.23 8.53-15.53a7.83 7.83 0 0 1 5.62-2.36 13.93 13.93 0 0 1 7 2.2l.25.16s34.48 35.24 37.7 43.4c.9 2.27 1 5.53.66 9.04z" class="H"/><path d="M199.72 281.5s-7.8 7-10.5 6.68 10.5-6.68 10.5-6.68zm2.08 6.68s-8.24 3.82-10.7 4.4 7.52-5.38 10.7-4.4zm31.88-104.6s12.22.15 14.07 4-10.1-5.56-14.07-4zm-1.7 6.68s9.38 2 12.22 4.27-12.22-4.27-12.22-4.27zM216.2 167.1s-1.13 38.5-5.33 43.48 5.33-43.48 5.33-43.48zm-10.5 108.85s-7.8 34 7.9 36.1 10.87-38.65 10.87-38.65z" class="B"/><path d="M205.12 275.38s-7.8 34 7.9 36.1 10.87-38.65 10.87-38.65z" class="M"/><path d="M256.63 51.78a10.89 10.89 0 0 1-1.11-2.06c-2.1-4.35-7.45-2.23-11.4-.14l-2.1 2.7a17.5 17.5 0 0 0-2.4 3.7 29.49 29.49 0 0 0-1 3.32c-.54 1.92-1.34 3.76-2.06 5.63a66.17 66.17 0 0 0-4.21 19.5 31.1 31.1 0 0 1-5.41.48h-.13v-.14c.2-.75.37-1.5.52-2.27a39.37 39.37 0 0 0 .3-13v-.28c-.15-1-.33-1.93-.42-2.9l-1.08 2c-2.37 4.46-4.87 8.83-9.36 10.78a19.53 19.53 0 0 1-5.69 1.28 32.51 32.51 0 0 0-7.11 1.18 4.5 4.5 0 0 0-2.07 1.25 6.17 6.17 0 0 0-1 3.11 25.41 25.41 0 0 1-1.13 4.32 37.88 37.88 0 0 1-9.25 13.8l-1 1a19.18 19.18 0 0 1-6.14 4.25 18.54 18.54 0 0 1-6.51 1c1-2.58 1.8-4.36 1.8-4.36s3.23-10.23 8.53-15.53a7.83 7.83 0 0 1 5.62-2.36 83.25 83.25 0 0 0 10.16-15.24 29.84 29.84 0 0 1 31.044-46.729A29.84 29.84 0 0 1 256.63 51.8z" class="B"/><path d="M258.52 28.5c-1.77-2-4.25-3.12-6.64-4.25a5 5 0 0 1-2.15-1.57 6.69 6.69 0 0 1-.67-2.71c-.83-5.77-6.2-9.76-11.53-12.1-6.87-3-15.12-4.3-21.72-.72-3.2 1.74-5.74 4.47-8.63 6.7-3.66 2.8-7.9 4.77-11.8 7.23s-7.64 5.55-9.5 9.78c-2.87 6.52-.72 14-.35 21.12.56 11.2-4 22.94-13.06 29.58a11.53 11.53 0 0 0-2.87 2.51 3.15 3.15 0 0 0-.23 3.57c.45.62 1.2 1 1.7 1.55 1 1.18.82 3 .42 4.5a28.22 28.22 0 0 1-7.58 13c.15 1.17 1.57 1.63 2.73 1.8a63.91 63.91 0 0 0 9.26.68 15.58 15.58 0 0 0 13-5.23c5.5-5.2 10.2-11.68 11.44-19.14a6.3 6.3 0 0 1 1-3.12 4.68 4.68 0 0 1 2.07-1.25c4.12-1.42 8.8-.72 12.8-2.46 5.18-2.25 7.7-7.7 10.44-12.8.1 1 .27 1.94.42 2.9a39.3 39.3 0 0 1-.77 15.61c-.74 2.88-1.82 5.75-1.74 8.73.06 2.18 2.3 13.75 5.25 10.3s1.86-11.1 1.87-15.4a65.92 65.92 0 0 1 4.34-23.48c.7-1.87 1.5-3.7 2.06-5.63a26.83 26.83 0 0 1 1-3.31 17.25 17.25 0 0 1 2.4-3.7l2.1-2.7c3.94-2.08 9.3-4.2 11.4.14.8 1.67 1.23 3.5 3.3 1.9 1.24-1 1.64-2.85 2-4.28 1.3-6.06 2.38-13.14-1.76-17.72z" class="F"/><path d="M218.52 132.82c-.8-20.4-29.36-24.63-36-5.33-.05.13-.1.26-.13.4-4.36 13.08-2.47 46.18-2.47 46.18s.57 22.22 2.66 29.6 7.95 28.6 7.95 32 5.45 16.48 7.74 17.43 3.46 8.33 4 9.66 2.25 18.6 2.25 18.6 21.4-1.33 21.8-4.74-4.74-20.08-4.74-20.08-3.77-6.82-4.25-12.32-3.5-8-2.95-11.74-1.7-5.7-1.7-8.15-1.7-9.1-1.7-9.1-3.6-2.84-3-6.25-5.1-10.23-3.6-12.7 1.9-8.53 1.9-8.53 1.9-27.28 3.22-34.67 9.1-19.32 9.1-19.32 0-.34-.05-.94z" class="B"/><path d="M217.67 252.52c-5.22 5.57-12.66 6.73-18.55 6.4-.67-2.6-1.67-5.76-3.12-6.36-2.3-.95-7.74-14-7.74-17.43s-5.87-24.63-8-32-2.65-29.6-2.65-29.6-1.9-33.1 2.46-46.17c0-.14.1-.27.13-.4 6.67-19.3 35.23-15.08 36 5.33v.94s-7.77 11.93-9.1 19.32-3.23 34.67-3.23 34.67-.38 6.07-1.9 8.53 4.17 9.3 3.6 12.7 3 6.25 3 6.25 1.7 6.63 1.7 9.1 2.28 4.36 1.7 8.15 2.47 6.25 2.95 11.75a30.49 30.49 0 0 0 2.72 8.85z" class="B"/><path d="M217.4 132.25c-.8-20.4-29.36-24.63-36-5.33 0 .13-.1.26-.13.4-4.36 13.07-2.46 46.17-2.46 46.17s.56 22.22 2.65 29.6 8 28.6 8 32 5.44 16.48 7.74 17.43 3.45 8.33 4 9.66 2.27 18.57 2.27 18.57 21.4-1.33 21.78-4.74-4.74-20.06-4.74-20.06-3.77-6.82-4.26-12.32-3.5-7.95-2.94-11.74-1.7-5.7-1.7-8.15-1.7-9.1-1.7-9.1-3.6-2.85-3-6.26-5.12-10.23-3.6-12.7 1.9-8.53 1.9-8.53 1.9-27.28 3.22-34.67 9.1-19.32 9.1-19.32-.08-.3-.1-.94z" class="H"/><path d="M182.24 184.72c.57-.57 11.37-12.5 14.78-8.24s-14.78 8.24-14.78 8.24zm1 9.24c.42-.43 10.8-.85 13.36-6.68s-13.36 6.68-13.36 6.68z" class="B"/><path d="M171.42 89.2a2.79 2.79 0 0 1 .57 1 4.45 4.45 0 0 0-.57-3.87c-.5-.58-1.25-.92-1.7-1.54l-.1-.16a3 3 0 0 0 .09 3c.46.64 1.2 1 1.7 1.57zm14.46-36.84v-3.22c-.2-3.87-.9-7.84-1.08-11.7-.22 4.74.84 9.73 1.08 14.55 0 .12-.01.25 0 .38zm44.28 47.46c-2.63 3.1-4.7-5.8-5.15-9.3a12.53 12.53 0 0 0-.09 1.84c.06 2.18 2.3 13.75 5.24 10.3 2-2.34 2.2-6.33 2.07-10-.1 2.76-.58 5.42-2.07 7.16zm-2.74-31.8a37.62 37.62 0 0 1 .41 4.5 39.21 39.21 0 0 0-.41-7.34l-.4-2.9c-2.74 5.1-5.27 10.55-10.44 12.8-4 1.73-8.68 1-12.8 2.46a4.51 4.51 0 0 0-2.06 1.25 6.17 6.17 0 0 0-1 3.12c-1.25 7.46-5.94 14-11.45 19.14a15.5 15.5 0 0 1-13 5.22 62.32 62.32 0 0 1-9.26-.67 6.18 6.18 0 0 1-1.39-.36c-.43.48-.88 1-1.35 1.4.16 1.17 1.58 1.63 2.74 1.8a63.7 63.7 0 0 0 9.26.68 15.54 15.54 0 0 0 13-5.23c5.5-5.2 10.2-11.68 11.45-19.14a6.21 6.21 0 0 1 1-3.12 4.59 4.59 0 0 1 2.06-1.25c4.13-1.42 8.8-.72 12.8-2.46 5.17-2.25 7.7-7.7 10.44-12.8.08.97.26 1.94.4 2.9zm33.16-24.68c-.32 1.43-.72 3.32-1.95 4.28-2.07 1.62-2.5-.22-3.3-1.9-2.1-4.35-7.46-2.23-11.4-.14l-2.1 2.7a17.37 17.37 0 0 0-2.4 3.7 29.49 29.49 0 0 0-1 3.32c-.54 1.92-1.34 3.76-2.06 5.63a65.84 65.84 0 0 0-4.34 23.48v1.16a66.16 66.16 0 0 1 4.32-21.8c.72-1.87 1.52-3.7 2.06-5.63a28.72 28.72 0 0 1 1-3.31 16.88 16.88 0 0 1 2.4-3.7l2.1-2.7c3.93-2.08 9.3-4.2 11.4.14.8 1.67 1.23 3.5 3.3 1.9 1.23-1 1.63-2.85 1.95-4.28a37 37 0 0 0 1.15-10.2 47.08 47.08 0 0 1-1.13 7.35z" class="B"/><path d="M286.42 150.9l.6.4a2.34 2.34 0 0 1-.6-3.26l26.33-38.23a2.35 2.35 0 0 1 3.26-.6l-.58-.4a3.76 3.76 0 0 1 1 5.23l-24.76 35.85a3.77 3.77 0 0 1-5.24 1z" class="F"/><path d="M315.516 108.87l.593.408-28.993 42.09-.593-.408a1.74 1.74 0 0 1-.446-2.42l27.02-39.225a1.74 1.74 0 0 1 2.42-.446z" fill="#9f9eff"/><rect x="350.43" y="138.44" width=".47" height="4.17" rx=".17" transform="matrix(.823533 .567269 -.567269 .823533 102.13 -198.24)" class="F"/></g><path d="M853.7 783.67l-8-25.46s-6.7-18.07-5.62-27.76-2.25-20.27-2.25-20.27l6.58-34.25s.36-3.73.34-8.65c0-8.2-1.16-19.7-6.84-22.7-9.08-4.8-27.7-45.28-31.6-45.28s-16.44-2.6-16.44-7a2.61 2.61 0 0 0 0-.48v-.15c0-.05-.06-.23-.1-.35l-.06-.17-.18-.4-.06-.1a10.68 10.68 0 0 0-1.81-2.37c16.94-3.23 33.8-6.78 50.54-10.9h-.62l.62-.15a56.7 56.7 0 0 1-6.65-.46l-.5.1c-24.62-3.36-46.75-22.6-52.77-47-6.68-27 5-55.18 4.48-83a95.32 95.32 0 0 0-15.11-49.58c-1.28-2-2.64-3.92-4.06-5.8a38 38 0 0 0 14.63-55.82c-.43-.62-.88-1.22-1.34-1.8 9.185 15.24 6.604 34.805-6.22 47.14a37.77 37.77 0 0 0-34.356-55.963 37.77 37.77 0 0 0-32.174 20.193l-2.43-1.05a37.76 37.76 0 0 1 33.14-24.73 33.6 33.6 0 0 0-2.25-.07 37.73 37.73 0 0 0-34.79 23.26c-11.32-4.15-23.13-5.87-34.75-2.92a38.2 38.2 0 0 0-6.3 2.19l.52-.4a28.11 28.11 0 0 0-7.87 5c-3.48 3.2-5.93 7.37-8.88 11.1a46.84 46.84 0 0 1-10.55 9.58c.33-.16.66-.35 1-.52-13.4 9.48-31.6 12.2-46.93 6.1-4.3-1.72-8.45-4.07-13-4.7a19.64 19.64 0 0 0-10.29 1.5c.14-.1.27-.23.42-.34a26.91 26.91 0 0 0-10.8 8.1c-5 6.17-7.5 14-9.3 21.7a70.71 70.71 0 0 0-2 16.72c.07 7.22 1.7 14.2 6 19.84 6.68 8.66 15.8 11 25.32 12.56l-.8 2.9c-11.352 44.903 14.895 90.73 59.37 103.66l1.85 3.14.6.14 14.5 25.28-8.5 4.38c-2.23 1.15-7.77 4.16-10.84 7.12a7.21 7.21 0 0 0-2 2.83c-1.3 4.36-8.22 15.68-13 18.72s-8.66 17.85-8.22 25.67-2.6 7-10.4 7.42 0 11.75 0 11.75l.2.76c-.36.62-.77 1.3-1.22 2-2 3.07-4.63 6.47-6.55 6.3-3.47-.33-5.63 8.16-5.4 9.46s-6.06 11.75-8.44 12.84-12.55 3.17-9.74 12.9l-12.34 12.56-10 9.58s-14.28-8.06-37.44 17a20.69 20.69 0 0 1 7.68.72l-.66.32c-6.1 2.9-16.66 7.82-24.47 11l-41.6 1.3v-31s-3.68-8.7-8 0l-1.1 31.32-90.4 2.93 17.16-18.24a14.83 14.83 0 0 0 3.33-14.67L292.83 504.5a12.16 12.16 0 0 0-9.95-8.38l-98.86-13.34-9.02 2.45a8.84 8.84 0 0 0-6.16 11l11 37.47h-13.56l10.4 89.68 6.33 34.5q2.43 13.2 5.67 26.24c5.2 21 15.52 65.8 15.75 91.77l-76 82.86v16.83h485.45a.8.8 0 0 0 .08.16h236.5s-2.6-4.57 3-11.1 2.82-32.43 2.82-32.43-3.14-4.14.7-13.28-3.27-35.26-3.27-35.26zm-603.2-19.55l-12.9.42-12-78.06 24.9 77.64zm332.18 47.44l-8.37-17.08a9.31 9.31 0 0 0 5.43-1.45c5.4-3.92 8.65-13.06 8.65-13.06l15.72-18.7c2.94 8.2 6.4 14.7 9.17 17.82 6.92 7.84 7.8 30.47 9.92 38.74s.47 4.8 0 9.58a12.51 12.51 0 0 0 .29 3.49c-9.57-10.27-23.18-19.6-40.8-19.35z" transform="translate(-39.48 -24.1)" fill="url(#B)"/><use xlink:href="#H" class="D"/><use xlink:href="#H" class="C"/><path d="M535.42 827.26v3.2a6.24 6.24 0 0 1-6.24 6.24H346.96c-3.45 0 0-6.9 0-6.9l-2.06-45.13a7.45 7.45 0 0 1 5.62-7.56c10.14-2.56 17.12 1.55 17.12 1.55l112.88-2.87a36.19 36.19 0 0 1 7 .33 30.66 30.66 0 0 1 20.69 12.26l25.94 35.17a6.24 6.24 0 0 1 1.27 3.7z" class="D"/><path d="M535.42 830.46a6.24 6.24 0 0 1-6.24 6.24H346.96c-3.45 0 0-6.9 0-6.9s10.06-4.88 25-4l133-2.88s15.7.36 24.9 1.36a6.23 6.23 0 0 1 5.56 6.17z" class="B"/><path d="M483.7 783.55H369.36l3.16 34.77 132.44-2.3-21.26-32.47z" class="E"/><path d="M289.8 807.97v12.07L170 824.9s-27.4-1.87-30.75-18.7a15.7 15.7 0 0 1 .1-5.3c1.2-7.1 7.3-19.47 34.1-25.2l33-3.4h73.58s9.5 9.5 9.77 35.65z" class="D"/><path d="M289.8 808.35v11.7L170 824.9s-27.4-1.87-30.75-18.7a15.7 15.7 0 0 1 .1-5.3s16.56 15.66 39 13.36l105.44-4.6a59.28 59.28 0 0 0 6-1.32z" class="B"/><ellipse cx="237.35" cy="813.97" rx="36.83" ry="6.32" transform="matrix(.998675 -.051464 .051464 .998675 -81.1 -10.79)" class="B"/><g class="D"><path d="M209.52 786.9l-19.38 9.58-20.62-4.88-.1-33.6c1.3-24.53-10-73.63-15.6-95.88q-3.23-12.9-5.65-26l-6.34-34.15-10.32-88.74h24.56l14.44 20.68z"/><use xlink:href="#I"/></g><use xlink:href="#I" opacity=".15"/><use xlink:href="#J" class="D"/><use xlink:href="#J" class="B"/><path d="M324.82 720.56l-65.77 69.34-7.74.55-98.7-316a30.15 30.15 0 0 1-2.77-11.55l97.76 13.12a12.08 12.08 0 0 1 9.9 8.3l70.77 221.15a15.2 15.2 0 0 1-3.45 15.09z" class="D"/><path d="M320 708.9a14.66 14.66 0 0 1-2.66 3.3l-64.75 60.2-88.34-292.8 84.83 8.4a14.87 14.87 0 0 1 12.79 10.53l59.6 198.43A14.93 14.93 0 0 1 320 708.9z" class="E"/><path d="M320 708.9L249.08 488a14.87 14.87 0 0 1 12.79 10.53l59.6 198.43A14.93 14.93 0 0 1 320 708.9z" class="B"/><g fill="#945b79"><circle cx="700.27" cy="344.15" r="37.55"/><path d="M662.33 338.58c-.004-19.87 15.474-36.305 35.3-37.5-.74 0-1.48-.07-2.23-.07a37.56 37.56 0 0 0-33.038 56.512 37.56 37.56 0 0 0 33.038 18.598c.75 0 1.5 0 2.23-.07-19.832-1.185-35.308-17.613-35.3-37.48z"/></g><path d="M667.2 344.15c.002-19.874 15.5-36.305 35.33-37.48-.74 0-1.5-.07-2.24-.07-20.502.335-36.947 17.05-36.947 37.555s16.445 37.22 36.947 37.555c.75 0 1.5 0 2.24-.08-19.842-1.17-35.333-17.604-35.33-37.48z" class="B"/><path d="M507 765.18a101.83 101.83 0 0 1-10.82 4.93c-9.66 3.8-24.38 8.16-38.1 6.5-23.05-2.8-36.84 4.74-36.84 4.74L416.08 743s17-5 23.9-6.25c5.18-1 23.87-9.6 32.84-13.84l4.87-2.32h17.24z" class="I"/><path d="M507 765.18a101.83 101.83 0 0 1-10.82 4.93c-1.17-34.15-14.27-44.3-23.35-47.2l4.87-2.32h17.24z" class="B"/><path d="M570.78 650.56v84L551.82 757s-3.23 9-8.62 12.92-17.68-1.3-17.68-1.3l-3.45 5.6s-7.75 1.5-11.4 0-12.72 4.3-12.72 4.3c1.3-61.62-32.1-56.66-32.1-56.66 23.05-24.78 37.27-16.8 37.27-16.8l9.92-9.48 12.28-12.44c-2.8-9.63 7.32-11.7 9.7-12.77s8.62-11.42 8.4-12.7 1.93-9.7 5.38-9.37c1.92.18 4.55-3.2 6.53-6.22 1.58-2.44 2.74-4.66 2.74-4.66zm29.82-83.96l25.4-13-1.44 15.23 5 15.3-5.16 13.14c-.57 1.3-11.5 28.3-11.5 28.3l-8.76-11.06z" class="J"/><path d="M604.17 614.5l-3.56-47.9 25.4-13" class="B"/><path d="M709.75 552.3s-8.44 12.14-20 27.6c-26.9 36-70.66 90-64 50.82.22-1.28.4-2.56.54-3.85-1.64 1.1-5.4.14-9.5-1.8l-.28-.13a48.9 48.9 0 0 1-5.84-3.38c-.2-.13-.4-.27-.6-.4-4.55-3.17-8.2-6.88-8-9.44 3.23-56.24 16.32-29.42 20-23.18a4.06 4.06 0 0 0 .84 1.17q-.24-.66-.54-1.38c-2.58-6.33-7.5-15.8-13.14-25.9v-.1l-.75-1.34-14.3-24.74-1.23-2.06-12.8-21.1s32.7-29.92 60.28-48.1c23-15.2 42.48-22.2 36.25 3.28-4 16.38-2.83 30.4.86 42a27.35 27.35 0 0 0 .42 1.28 67.8 67.8 0 0 0 2.56 6.51 73.94 73.94 0 0 0 4.48 8.5 82.39 82.39 0 0 0 24.77 25.74z" class="I"/><path d="M658.9 506.9c-15.5 16.85-18.8 33-43.52 33a85 85 0 0 1-21.31-2.7l-14-23.15s110.22-100.8 96.53-44.82c-4.18 16.9-21.7 25.77-17.7 37.67z" opacity=".15"/><path d="M700.27 452.34c0 34.34-20.686 65.298-52.412 78.438s-68.244 5.875-92.524-18.408-31.542-60.802-18.398-92.527 44.105-52.407 78.445-52.403a84.52 84.52 0 0 1 84.89 84.9z" class="I"/><path d="M613.44 599.28s1.5 24.13 16.8 22.2 3.66 51.28 3.66 51.28l-17 15.5-18.34 5.64s-16.16-4.74-15.94-5.6 6.46-51.27 6.46-51.27l9.48-26.94z" class="B"/><path d="M613.44 601s1.5 24.13 16.8 22.2 3.66 51.28 3.66 51.28l-17 15.5-18.32 5.6s-16.16-4.74-15.94-5.6 6.46-51.28 6.46-51.28l9.48-26.93z" class="D"/><path d="M570.78 650.56v84l-4.5 5.34c-4.65-12.34-8.2-29.07-6-44.1 2.85-19.94-2.83-45.46-4.9-53.73 1.58-2.44 2.74-4.66 2.74-4.66zm44.6-46.96a49.27 49.27 0 0 1-3.65 13.74l-1.7 3.83c-4.55-3.17-8.2-6.88-8-9.44 3.23-56.24 16.32-29.42 20-23.18-1.8 1.36-5.82 5.36-6.65 15.05zm6.92-15.27c-2.7-6.63-8-16.7-13.93-27.34l.75-.38 13.73 27.4a2.92 2.92 0 0 0-.54.34zm87.45-36.03s-93.5 134.45-84 78.43l.54-3.85c-1.68 1.12-5.57.1-9.78-1.94l1-6.3 10.35-29.28s6-23.27 5.17-28l.28-.2 51.5-34.55a82.39 82.39 0 0 0 24.93 25.68z" class="B"/><path d="M806.7 654l-7.33 37.9-22 159.87H586.52s3.44-28 3.44-32.32-3.87-10.77-3.44-15.5 2.08-1.3 0-9.48-3-30.6-9.87-38.35-18.13-36.2-14.7-60.3-5.6-56.45-5.6-56.45-7.75-11.2 0-11.64 10.78.4 10.35-7.34 3.44-22.4 8.18-25.4 11.64-14.22 12.93-18.53a7.23 7.23 0 0 1 2-2.81c3.88-3.72 11.77-7.53 11.77-7.53l7.54-3.77v.1l13.68 27.28s-6.4 3.1-7.47 15.6a49.17 49.17 0 0 1-3.65 13.74l-1.1 2.52a87.83 87.83 0 0 1-3.17 6.32C606 630.44 605 632 605 632l-.93 7c-1.15 8.38-3.1 21.66-4.24 24.84-1 2.82-3 7.67-4.1 12-.7 2.7-1.1 5.22-.73 6.86 0 .13.06.26.1.38 1.3 4 7.75-13.2 7.75-13.2s4.74-14.65 6.9-14.65c1.65 0 5.36-20.68 7-30.22l.77-4.7 10.35-29.3s1.43-5.53 2.8-11.75c1.44-6.54 2.8-13.83 2.37-16.26l.28-.2 52.3-35.08h-.08c-.36 0-1.4-.64-3.4-5.32a72.9 72.9 0 0 1-1.71-4.41s16.46-6.6 22.33-1.77a5.23 5.23 0 0 1 1 1.06 4.19 4.19 0 0 1 .43.71c3.88 8 5.6 14 9.48 19.18a16.68 16.68 0 0 0 1.36 1.57c4.7 4.9 14 10.66 12.43 12.22-1.72 1.72 12.93 9 12.93 9s8.57 4.9 11.26 9a4.1 4.1 0 0 1 .8 2.18c0 4.3 12.5 6.9 16.38 6.9s22.4 40.08 31.45 44.82S806.7 654 806.7 654z" class="J"/><path d="M613.37 589.7s-6.4 3.1-7.47 15.6a48.85 48.85 0 0 1-3.66 13.74 87.82 87.82 0 0 1-4.25 8.84l-2.42 4.12-.93 7c-1.12 8.45-3.12 21.73-4.25 24.9-1 2.82-3 7.67-4.1 12-.7 2.7-1.1 5.22-.73 6.86 0 .13.06.26.1.38 1.3 4 7.75-13.2 7.75-13.2s4.74-14.65 6.9-14.65c.6 0 1.5-2.86 2.48-6.94l1.33-9.28.93-7s.57-.88 1.45-2.4l1.56-9.25 10.35-29.3 1.7-6.9-11-21.87-7.54 3.77zm186.87 33.28c-9-4.74-27.57-44.82-31.45-44.82s-16.38-2.58-16.38-6.9-12.06-11.2-12.06-11.2-14.65-7.32-12.93-9c1.55-1.56-7.74-7.3-12.43-12.22a18 18 0 0 1-1.36-1.57c-3.88-5.18-5.6-11.2-9.48-19.18a4.72 4.72 0 0 0-.43-.72 5.82 5.82 0 0 0-1-1.06c-2.64-2.17-7.4-2-11.86-1.22a7.15 7.15 0 0 1 2.38 1.22 5.82 5.82 0 0 1 1 1.06 4.72 4.72 0 0 1 .43.72c3.88 8 5.6 14 9.48 19.18a18 18 0 0 0 1.37 1.53c4.7 4.9 14 10.66 12.43 12.22-1.72 1.72 12.93 9 12.93 9s12.06 6.9 12.06 11.2 12.5 6.9 16.38 6.9 22.4 40.08 31.45 44.82 6.47 31 6.47 31l-7.34 37.96-22 159.87h9.48l22-159.87 7.33-37.92s2.58-26.26-6.47-31z" class="B"/><path d="M423.92 743.77s-54.8-15.86-58.7 8.5 22.4 38.35 39.2 37.92 24.13-16.38 24.13-16.38zm274.84 74.85s-12.28 8.83-38.35 8.83-56.45 5.6-56.45 5.6-38.78-91.35-116.56-13.15c0 0-14 18.1 58.6 20 0 0 25.64-.86 31.24 11.85h145l19.83-14.85z" class="I"/><path d="M407.03 704.42s-3.66-8.6-8 0l-2.35 66.8 5.16 15.73 5.16-14z" class="D"/><path d="M703.72 517.34c-7.52 2.56-15.77 8.56-18.2 10.44-.45 0-2-1-5.1-9.73-.01 0 18.6-7.47 23.3-.7z" class="B"/><use xlink:href="#K" class="J"/><use xlink:href="#K" class="B"/><path d="M715 540.53c-9.6 7.86-35.45 30.16-38.42 45.32-3.66 18.7-14.65 16.88-14.65 16.88-13.73-29.78-23.18-37.08-28.6-38.1l52.3-35.1h-.1c-.36 0-1.4-.63-3.4-5.3l20.62-6.2a5.23 5.23 0 0 1 1 1.06 4.63 4.63 0 0 1 .43.71c3.88 8 5.6 14 9.48 19.18a18.09 18.09 0 0 0 1.33 1.55z" class="B"/><path d="M715 538.8c-9.6 7.86-35.45 30.17-38.42 45.33C672.9 602.8 661.92 601 661.92 601c-13.73-29.77-23.18-37.1-28.6-38.1l52.3-35.08h-.1c-.36 0-1.4-.64-3.4-5.32l20.62-6.18a5.23 5.23 0 0 1 1 1.06 4.19 4.19 0 0 1 .43.71c3.88 8 5.6 14 9.48 19.18a16.68 16.68 0 0 0 1.33 1.53z" class="J"/><path d="M656.75 689.77c.64-.2 34.22-19.22 30.36-4.76s-30.36 4.76-30.36 4.76zm-145.23 18.2s17.66 27.47 23.9 26.6-23.9-26.6-23.9-26.6zm22-10.23s1.08 21.33 10.35 22.83-10.35-22.83-10.35-22.83zm98 68.5s21.94 36.5 17.67 49.13z" class="B"/><path d="M656.96 770.57s29.68 39 24.54 42.23-24.54-42.23-24.54-42.23zm-66.73-62.6s-3.05 27.73 8.4 35.8zm133.1-123.35s-50.8 39.43-42.67 80.37 16 43.95 16 43.95 3 16.37 8.62 23.27 4.74 11.42 4.74 11.42 5.17-2.37 6.9 9.48 10.77 20.25 10.77 20.25 3 9.48-4.74 14.65-6 10.78-6 10.78l-31.46 18.3 35.04 34.7h90.5s-2.6-4.52 3-11 2.8-32.1 2.8-32.1-3.13-4.1.7-13.15-3.3-34.9-3.3-34.9l-8-25.2s-6.68-17.88-5.6-27.47-2.2-20.07-2.2-20.07l-17.37-54.8s.86-54.72-57.74-48.47z" class="B"/><path d="M725.05 584.63S674.2 624.06 682.4 665s15.94 43.95 15.94 43.95 3 16.37 8.62 23.27 4.74 11.42 4.74 11.42 5.17-2.37 6.9 9.48 10.77 20.25 10.77 20.25 3 9.48-4.74 14.65-6 10.78-6 10.78l-31.46 18.3 35.12 34.7h90.5s-2.58-4.52 3-11 2.8-32.1 2.8-32.1-3.13-4.1.7-13.15-3.3-34.9-3.3-34.9l-8-25.2s-6.68-17.88-5.6-27.47-2.22-20.07-2.22-20.07l-17.37-54.8s.86-54.72-57.74-48.47z" class="J"/><path d="M742.07 612.42s36.2 12.28 45.9 18.32-14.22-23.92-45.9-18.32zm18.96 186.38s51.5 6.46 48.5 16.6-48.5-16.6-48.5-16.6zm-10.1 10.98s37.67 12.07 31 22-31-22-31-22zm.66-240.68c-20.55 4-41.2 7.42-61.86 10.83l-5.38.9c-11.36 1.87-22.8 3.75-34.3 3.7-5.6 0-11.4-.58-16.37-3.18a18 18 0 0 1-3-2c-3.5-2.8-6-6.87-5.94-11.3.06-8.06 7.7-13.65 14.3-18.3 9.63-6.83 19.14-15.5 22.86-26.4a30.07 30.07 0 0 0 1.45-6.3c1.1-9.25-2.27-18.38-5.86-27-3.92-9.35-9.3-19.4-17.16-25.08a23.58 23.58 0 0 0-10.81-4.37c-12.08-1.6-23.5 7-35.68 6.52-9.9-.43-18.3-6.78-24.24-14.25-4.33-5.44-7.07-12.72-13.6-15.95-7.06-3.5-15.1-4.34-22.94-5.5 8.746-34.37 37.936-59.684 73.198-63.477s69.168 14.733 85.023 46.458 10.32 69.963-13.882 95.9a27.35 27.35 0 0 0 .42 1.28 67.8 67.8 0 0 0 2.56 6.51s16.46-6.6 22.33-1.77a5.23 5.23 0 0 1 1 1.06 4.19 4.19 0 0 1 .43.71c3.88 8 5.6 14 9.48 19.18a16.68 16.68 0 0 0 1.36 1.57c4.7 4.9 14 10.66 12.43 12.22-1.72 1.72 12.93 9 12.93 9s8.57 4.95 11.26 9.07z" class="B"/><g fill="#945b79"><path d="M508.67 416.1c-7.66-9.88-6.83-23.84-4-36 1.78-7.67 4.3-15.38 9.27-21.5s12.77-10.4 20.58-9.33c4.57.62 8.7 2.95 13 4.65 19.3 7.64 43.24 1.3 56.22-14.92 2.94-3.67 5.37-7.8 8.85-11a31.42 31.42 0 0 1 13.58-6.85c21.72-5.48 44.12 5.3 62.7 17.82 15.86 10.68 30.94 23.15 41.35 39.18a93.88 93.88 0 0 1 15 49.07c.53 27.6-11.1 55.44-4.45 82.22 6.57 26.45 32.4 46.8 59.65 47-37.42 9.18-75.48 15.47-113.5 21.74-11.37 1.88-22.8 3.76-34.3 3.7-5.6 0-11.4-.58-16.37-3.18s-9-7.65-9-13.26c.06-8.07 7.72-13.65 14.3-18.3 11.42-8.1 22.67-18.8 24.32-32.7 1.1-9.25-2.27-18.4-5.87-27-5.5-13.1-13.86-27.6-27.94-29.5-12.07-1.6-23.5 7-35.68 6.5-9.88-.43-18.3-6.78-24.24-14.25-4.33-5.44-7.07-12.72-13.58-15.95-16.1-7.96-37.32-1.97-49.88-18.16z"/><path d="M728.75 365.75c16.322-11.33 20.995-33.41 10.66-50.38a39.5 39.5 0 0 1 1.33 1.79 37.56 37.56 0 0 1-27.603 59.331 37.56 37.56 0 0 1-34.107-16.511c-.42-.62-.83-1.25-1.2-1.88 12.278 15.624 34.603 18.978 50.93 7.65z"/></g><path d="M609.76 335.37c2.94-3.68 5.37-7.8 8.85-11a22.51 22.51 0 0 1 1.79-1.47 27.66 27.66 0 0 0-7.82 4.91c-3.48 3.18-5.9 7.3-8.85 11a46.21 46.21 0 0 1-10.49 9.54 47.46 47.46 0 0 0 16.52-12.98zM693 574.6c-11.36 1.87-22.8 3.75-34.3 3.68-5.6 0-11.4-.57-16.37-3.17s-9-7.65-8.95-13.27c.06-8.06 7.7-13.64 14.3-18.3 11.42-8.1 22.66-18.8 24.3-32.7 1.1-9.24-2.27-18.4-5.87-27-5.5-13.1-13.85-27.62-27.94-29.5-12.07-1.6-23.5 7-35.67 6.5-9.88-.42-18.3-6.77-24.24-14.24-4.34-5.44-7.08-12.72-13.6-15.95-16.16-8-37.4-2-50-18.22-7.66-9.88-6.82-23.85-4-36 1.78-7.67 4.3-15.38 9.26-21.5a28 28 0 0 1 4.72-4.57 26.84 26.84 0 0 0-10.75 8c-5 6.1-7.5 13.83-9.27 21.5-2.83 12.18-3.66 26.15 4 36 12.56 16.2 33.8 10.2 50 18.22 6.5 3.24 9.25 10.52 13.58 16 6 7.46 14.36 13.82 24.24 14.24 12.17.52 23.6-8.12 35.68-6.5 14.08 1.88 22.45 16.4 27.94 29.5 3.6 8.58 7 17.72 5.87 27-1.65 13.9-12.9 24.6-24.32 32.7-6.57 4.66-14.23 10.25-14.3 18.3 0 5.6 4 10.67 9 13.27s10.76 3.14 16.37 3.17c11.52.07 23-1.8 34.3-3.7 38-6.27 76.07-12.55 113.5-21.74a56.19 56.19 0 0 1-6.62-.46c-33.34 7.6-67.13 13.17-100.87 18.74z" class="B"/><ellipse cx="410.72" cy="755.48" rx="16.4" ry="8.96" class="I"/><path d="M681.7 89.12c-18.25-4.87-36.68-9.76-55.56-10.54s-38.5 2.88-53.9 13.8c-7.7 5.46-14.1 12.53-20.6 19.4a668.22 668.22 0 0 1-114.66 96.94c-16.8 11.23-34.78 21.94-54.8 24.73s-42.66-4.15-53-21.5l6.16-3.16" fill="none" stroke="#000" stroke-width=".75" opacity=".3" class="O P"/><path d="M842.8 62.84H713.58a9.23 9.23 0 0 1-9.23-9.23V35.15a9.23 9.23 0 0 1 9.23-9.25H842.8a9.23 9.23 0 0 1 9.23 9.23V53.6a9.23 9.23 0 0 1-9.23 9.23zm-13.85-25.38a6.92 6.92 0 0 0 .013 13.84 6.92 6.92 0 0 0 4.886-11.817 6.92 6.92 0 0 0-4.9-2.023zm-18.46 0a6.92 6.92 0 0 0-4.893 11.813 6.92 6.92 0 0 0 11.813-4.893 6.92 6.92 0 0 0-6.9-6.92zM842.8 109H713.58a9.24 9.24 0 0 1-9.23-9.24V81.3a9.23 9.23 0 0 1 9.23-9.23H842.8a9.23 9.23 0 0 1 9.23 9.23v18.46a9.24 9.24 0 0 1-9.23 9.24zm-13.85-25.4a6.93 6.93 0 0 0-4.897 11.834 6.93 6.93 0 0 0 11.827-4.914 6.92 6.92 0 0 0-6.93-6.92zm-18.46 0a6.93 6.93 0 0 0-4.91 11.83 6.93 6.93 0 0 0 11.83-4.91 6.92 6.92 0 0 0-6.9-6.92zm32.3 71.54H713.58a9.23 9.23 0 0 1-9.23-9.23v-18.46a9.23 9.23 0 0 1 9.23-9.23H842.8a9.23 9.23 0 0 1 9.23 9.23v18.44a9.23 9.23 0 0 1-9.23 9.25zm-13.85-25.4a6.93 6.93 0 0 0-4.9 11.83 6.93 6.93 0 0 0 11.83-4.9 6.92 6.92 0 0 0-6.93-6.93zm-18.46 0a6.93 6.93 0 0 0-4.914 11.827 6.93 6.93 0 0 0 11.834-4.897 6.92 6.92 0 0 0-6.9-6.93z" class="D"/><path d="M863.73 87.55c8.3-.9 17.16-.64 24.27 3.73 7.53 4.63 11.88 13.27 13.34 22s.44 17.65-.6 26.43l-5.6 47.36c-.8 6.63-1.55 13.53.6 19.86s8.1 11.9 14.75 11.3M322.1 489.6c21.35.53 45.42 0 60.17-15.44 11.2-11.72 13.83-28.9 17.6-44.66 6.8-28.47 19.2-55.87 38-78.32s44.2-39.75 72.62-46.73c22.84-5.62 46.86-4.56 69.82-9.6s46.54-18.66 52.9-41.3" opacity=".3" fill="none" stroke="#000" stroke-width=".75" class="O P"/><path d="M680 203.95l-57.6 21a1.13 1.13 0 0 0-.22 2l8.6 4.77a2.18 2.18 0 0 1 1 1.3l4.93 15.6c0 .66 1.2 1 1.3.36l.7-12.2a4.41 4.41 0 0 1 1.33-2.29l31.66-23a.71.71 0 0 1 .63-.08.64.64 0 0 1 .2 1.06l-28.15 25.67a5.4 5.4 0 0 0-1.29 2.26l-3 10.2c0 .92.64 1.37 1.34.64l6-5.27a1.09 1.09 0 0 1 1.55 0l11.82 11.6a1.08 1.08 0 0 0 1.78-.41l18.7-51.72a1.09 1.09 0 0 0-1.38-1.43z" opacity=".5" class="E"/></svg>