<svg xmlns="http://www.w3.org/2000/svg" width="3176.471" height="1023.529"><g transform="matrix(8.823529 0 0 8.823529 88.235294 88.235294)"><path d="M73.673 47.787c.003 5.698 1.418 10.313 3.163 10.313s3.16-4.62 3.164-10.3c-.003-5.698-1.416-10.315-3.163-10.315s-3.167 4.618-3.164 10.312zm-39.23-34.03C20 19.75 10 32.84 10 48.015S20 76.28 34.45 82.27c-8.274-7.16-13.77-19.83-13.77-34.255s5.5-27.094 13.763-34.258zM44.22 10c-6.766 0-12.26 17.095-12.26 38.162 0 21.08 5.492 38.164 12.263 38.166 3.343-.002 6.377-4.18 8.588-10.952 1.87 4.554 4.226 7.275 6.783 7.275 6.096.002 11.042-15.383 11.037-34.357.005-18.973-4.937-34.36-11.03-34.353-2.538 0-4.876 2.678-6.742 7.166C50.643 14.25 47.592 10.004 44.22 10zm24.776 38.296c.005 10.648-2.646 19.286-5.9 19.286S57.17 58.943 57.17 48.3c0-10.654 2.646-19.3 5.913-19.293 3.27.003 5.915 8.637 5.9 19.3zM52.304 22.53c-2.293 6.296-3.74 15.502-3.74 25.764-.001 10.17 1.42 19.308 3.678 25.6-1.1 1.493-2.315 2.32-3.6 2.32-4.98-.004-9.014-12.56-9.014-28.053 0-15.486 4.033-28.047 9.007-28.047 1.304.003 2.542.868 3.66 2.417z" fill-rule="evenodd"/><path d="M100 37.23h3v1.295c0 .347.055.584.146.748.128.2.365.292.675.292a.81.81 0 0 0 .657-.31c.128-.182.2-.42.2-.71v-.84c0-.456-.036-.84-.09-1.15-.146-.474-.492-.73-1.058-.748h-1.15V33.6h1.13c.53-.018.857-.274.985-.766.055-.274.09-.657.09-1.13v-.328c0-.292-.055-.53-.182-.71-.128-.2-.328-.3-.62-.3-.3 0-.51.09-.62.292-.09.164-.146.42-.146.748v.803h-2.973a17.77 17.77 0 0 1 .091-1.623 2.67 2.67 0 0 1 .602-1.496c.365-.438.857-.71 1.46-.803s1.167-.146 1.696-.146c.967 0 2.243.073 2.99.803.657.638.766 1.57.766 2.426 0 .73-.018 1.57-.328 2.225-.255.492-.73.803-1.404.948v.036c.766.164 1.295.53 1.57 1.094.292.657.3 1.477.3 2.207 0 1.04-.11 2.316-.857 3.064-.4.4-.894.638-1.496.73a10.6 10.6 0 0 1-1.642.128 10.71 10.71 0 0 1-1.806-.164 2.19 2.19 0 0 1-1.459-.948 3.13 3.13 0 0 1-.511-1.66L100 37.23zm16.98.274v.71c-.018 1.02-.237 2.152-1.04 2.827-.82.657-2.025.748-3.046.748-.547 0-1.13-.055-1.75-.146s-1.13-.328-1.532-.73c-.71-.657-.784-1.696-.784-2.627v-1.04h3.046v.912c0 .456.055.748.146.912.128.255.4.383.803.383.237 0 .438-.055.565-.164.347-.292.292-.693.292-1.113v-.84c0-.584-.602-.93-1.094-1.15l-1.806-.766c-.492-.2-.857-.438-1.13-.71-.71-.657-.748-1.642-.748-2.535v-.492c0-.967.09-2.19.894-2.918.803-.71 2.098-.766 3.12-.766a7.65 7.65 0 0 1 1.86.237c.675.146 1.167.492 1.496 1.04.237.42.383.857.4 1.35l.055 1.66h-2.845v-.638c0-.42-.055-.71-.164-.912-.146-.255-.42-.383-.84-.383-.22 0-.383.055-.51.164-.3.292-.255.73-.255 1.113v.438c0 .657.602 1.003 1.113 1.222l1.842.784c.456.2.84.456 1.15.766.71.71.766 1.733.766 2.663zm4.414 4.122V28.182h3.228v13.443h-3.228zM125.6 30.79v-2.608h7.606v2.608h-2.19v10.834h-3.228V30.79h-2.19zm11.3 0v-2.608h7.606v2.608h-2.19v10.834h-3.228V30.79h-2.19zm11.07.948l.3 1.204h.036a3.58 3.58 0 0 1 .876-1.003c.383-.255.857-.383 1.44-.383a3.14 3.14 0 0 1 .948.128v2.864c-.2-.073-.42-.128-.62-.182l-.657-.036c-.675 0-1.167.22-1.477.638-.347.438-.51 1.076-.51 1.933v4.724h-2.955V31.74h2.608zm8.244 3.83v-.748c0-.22.018-.51-.036-.748-.09-.274-.274-.42-.51-.42-.3 0-.492.11-.584.3-.073.146-.11.383-.11.73h-2.627c0-.803.018-1.86.62-2.462.328-.328.748-.53 1.26-.584l1.44-.09c.876 0 2.025.036 2.772.602.71.53.84 1.477.84 2.28v7.186h-2.554l-.22-.857h-.036c-.255.42-.547.693-.876.82-.347.128-.748.2-1.204.2-.748 0-1.514-.164-1.933-.84-.42-.638-.456-1.496-.456-2.243 0-.82.128-1.733.766-2.37.492-.456 1.186-.638 1.842-.766.3-.055.602-.073.876-.055l.73.055zm.11 3.3v-1.66c-.036-.018-.11-.018-.22-.018-.347.018-.602.11-.766.255-.2.182-.3.438-.3.748v.565c0 .347.055.584.146.73.09.164.255.237.53.237.237 0 .4-.09.492-.255.09-.146.128-.347.128-.602zm4.213-8.48v-2.225h2.955v2.225h-2.955zm0 11.236V31.74h2.955v9.886h-2.955zm8.61 0V34.73a1.15 1.15 0 0 0-.146-.584c-.09-.146-.274-.22-.547-.22s-.456.073-.547.237a1.24 1.24 0 0 0-.146.565v6.895h-2.955V31.74h2.627l.292 1.13h.036c.237-.474.53-.803.857-1.003.347-.2.784-.3 1.277-.3.675 0 1.222.182 1.623.565.383.383.584.967.584 1.715v7.788h-2.955zm4.232-11.236v-2.225h2.955v2.225h-2.955zm0 11.236V31.74h2.955v9.886h-2.955zm8.61 0V34.73a1.15 1.15 0 0 0-.146-.584c-.09-.146-.274-.22-.547-.22s-.456.073-.547.237a1.24 1.24 0 0 0-.146.565v6.895h-2.955V31.74h2.627l.292 1.13h.036c.237-.474.53-.803.857-1.003.347-.2.784-.3 1.277-.3.675 0 1.222.182 1.623.565.383.383.584.967.584 1.715v7.788h-2.955zm4.378.53h2.663c.018.237.11.383.274.474.09.055.255.09.53.09.182 0 .328-.036.42-.11.237-.22.22-.51.22-.876v-1.477h-.036c-.22.365-.492.638-.82.82-.328.2-.748.292-1.26.292-1.167 0-1.733-.657-2.006-1.55-.237-.876-.237-2.006-.237-2.9v-2.262c0-.73.036-1.605.456-2.262s1.222-.84 1.97-.84c.456 0 .857.073 1.204.2.328.164.62.438.876.84h.036l.22-.857h2.554v10.14c0 .803-.128 1.75-.84 2.28-.748.565-1.897.602-2.772.602-.438 0-.93-.036-1.496-.09s-1.003-.255-1.33-.584c-.492-.492-.602-1.26-.62-1.933zm4.104-4.232v-2.754c0-.42-.036-.73-.128-.967-.128-.237-.3-.365-.565-.365s-.438.128-.565.365c-.073.2-.11.51-.11.967v2.754c0 .456.036.784.11.948.11.255.292.383.565.383.255 0 .438-.128.565-.383.09-.2.128-.51.128-.948zm11.382 3.867a11.69 11.69 0 0 1-1.86-.164c-.657-.09-1.167-.42-1.532-.948a3.38 3.38 0 0 1-.529-1.678l-.036-1.88v-.638c0-.675.164-1.24.492-1.66.328-.4.784-.657 1.35-.748v-.036l-.693-1.003c-.328-.565-.492-1.04-.492-1.44-.018-1.404.292-2.37.967-2.864.657-.492 1.623-.602 2.882-.602.565 0 1.15.073 1.787.237.638.146 1.13.492 1.46 1.04a2.95 2.95 0 0 1 .383 1.35l.018 1.02H203.1c0-.438-.036-.748-.128-.912-.128-.255-.347-.383-.657-.383a.47.47 0 0 0-.383.164c-.237.292-.2.73-.2 1.26 0 .292.055.51.164.638l1.222 1.897h.036v-1.57h2.663v5.217l.274.438c.128.164.328.3.638.42v2.68c-.4 0-.73-.036-.985-.11-.365-.073-.657-.2-.894-.4-.803.657-2.06.675-3 .675zm1.076-2.99l-1.696-2.535c-.164.018-.292.128-.347.3-.073.146-.11.328-.11.547v1.404c0 .347.055.584.146.748.128.2.365.292.675.292h.53c.3 0 .53-.09.675-.292.055-.11.11-.274.128-.474zm11.418-2.99v3.447h.803c.383 0 .657-.09.82-.292.22-.292.22-.766.22-1.13v-.584c0-.456-.073-.803-.2-1.076-.128-.237-.4-.365-.82-.365h-.82zm-3.2 5.818V28.182h4.65c.876 0 1.988.073 2.7.73.657.657.748 1.66.748 2.517 0 .93-.146 1.66-.42 2.152-.274.51-.803.84-1.55 1.003v.036c.784.09 1.368.42 1.715.948.347.565.51 1.295.51 2.19 0 1.386-.255 2.37-.784 2.955-.53.602-1.368.912-2.554.912h-5.016zm3.903-11.053h-.693v3H215c.42 0 .71-.11.84-.3s.2-.53.2-.967v-.474c0-.456-.055-.766-.182-.967-.146-.2-.42-.292-.84-.292zm8.317 1.167v6.895c0 .237.055.438.146.584s.274.22.547.22.474-.09.565-.255c.09-.146.128-.328.128-.547V31.74h2.955v9.886h-2.627l-.292-1.13h-.036c-.255.492-.547.82-.857 1.003-.383.2-.803.292-1.277.292-.71 0-1.24-.182-1.623-.547-.383-.383-.584-.967-.584-1.715V31.74h2.955zm8.226 2.68c0 .438.51.71.93.857l1.55.584a3.81 3.81 0 0 1 .967.547c.584.51.638 1.277.638 1.952v.383c-.018.876-.182 1.824-.894 2.408s-1.715.638-2.572.638c-.948 0-2.116-.055-2.79-.638-.602-.51-.675-1.277-.675-1.952v-.675h2.663v.274c0 .3.036.547.11.693.09.182.292.274.602.274.164 0 .3-.036.42-.128.237-.2.22-.53.22-.82 0-.438-.53-.71-.912-.857l-1.477-.565c-.383-.128-.71-.3-.948-.53-.584-.492-.62-1.222-.62-1.88v-.4c0-.803.09-1.806.766-2.39s1.77-.638 2.645-.638c.492 0 1.02.055 1.587.164s.985.365 1.277.784c.2.3.328.657.347 1.003l.036 1.15h-2.572v-.2c0-.3-.036-.547-.11-.693-.128-.182-.328-.274-.62-.274-.164 0-.274.036-.365.128-.237.22-.2.53-.2.803zm5.052-4.03v-2.225h2.955v2.225h-2.955zm0 11.236V31.74h2.955v9.886h-2.955zm8.61 0V34.73a1.15 1.15 0 0 0-.146-.584c-.09-.146-.274-.22-.547-.22s-.456.073-.547.237a1.24 1.24 0 0 0-.146.565v6.895h-2.955V31.74h2.627l.292 1.13h.036c.237-.474.53-.803.857-1.003.347-.2.784-.3 1.277-.3.675 0 1.222.182 1.623.565.383.383.584.967.584 1.715v7.788h-2.955zm7.68.164c-.584 0-1.186-.055-1.787-.164-.602-.128-1.058-.438-1.33-.948-.3-.53-.51-1.696-.51-2.718v-2.353c0-.967.2-2.006.438-2.6.237-.602.675-1.003 1.313-1.186a7.3 7.3 0 0 1 2.006-.274c1.44 0 2.426.3 2.937.912a3.06 3.06 0 0 1 .784 2.098v2.718h-4.47v1.222a3.66 3.66 0 0 0 .091.766c.055.237.274.365.657.365.365 0 .584-.128.638-.365a3.66 3.66 0 0 0 .091-.766v-.164h2.973c0 .675-.146 1.806-.438 2.335-.292.51-.766.82-1.404.948a11.7 11.7 0 0 1-1.988.164zm-.638-6.33h1.514l-.018-.857c-.018-.584-.274-.876-.73-.876-.492 0-.73.292-.748.876l-.018.857zm8.135-1.04c0 .438.51.71.93.857l1.55.584a3.81 3.81 0 0 1 .967.547c.584.51.638 1.277.638 1.952v.383c-.018.876-.182 1.824-.894 2.408s-1.715.638-2.572.638c-.948 0-2.116-.055-2.79-.638-.602-.51-.675-1.277-.675-1.952v-.675h2.663v.274c0 .3.036.547.11.693.09.182.292.274.602.274.164 0 .3-.036.42-.128.237-.2.22-.53.22-.82 0-.438-.53-.71-.912-.857l-1.477-.565c-.383-.128-.71-.3-.948-.53-.584-.492-.62-1.222-.62-1.88v-.4c0-.803.09-1.806.766-2.39s1.77-.638 2.645-.638c.492 0 1.02.055 1.587.164s.985.365 1.277.784c.2.3.328.657.347 1.003l.036 1.15h-2.572v-.2c0-.3-.036-.547-.11-.693-.128-.182-.328-.274-.62-.274-.164 0-.274.036-.365.128-.237.22-.2.53-.2.803zm7.624 0c0 .438.51.71.93.857l1.55.584a3.81 3.81 0 0 1 .967.547c.584.51.638 1.277.638 1.952v.383c-.018.876-.182 1.824-.894 2.408s-1.715.638-2.572.638c-.948 0-2.116-.055-2.79-.638-.602-.51-.675-1.277-.675-1.952v-.675h2.663v.274c0 .3.036.547.11.693.09.182.292.274.602.274.164 0 .3-.036.42-.128.237-.2.22-.53.22-.82 0-.438-.53-.71-.912-.857l-1.477-.565c-.383-.128-.71-.3-.948-.53-.584-.492-.62-1.222-.62-1.88v-.4c0-.803.09-1.806.766-2.39s1.77-.638 2.645-.638c.492 0 1.02.055 1.587.164s.985.365 1.277.784c.2.3.328.657.347 1.003l.036 1.15h-2.572v-.2c0-.3-.036-.547-.11-.693-.128-.182-.328-.274-.62-.274-.164 0-.274.036-.365.128-.237.22-.2.53-.2.803zm16.27 3.082v.71c-.018 1.02-.237 2.152-1.04 2.827-.82.657-2.025.748-3.046.748-.547 0-1.13-.055-1.75-.146s-1.13-.328-1.532-.73c-.71-.657-.784-1.696-.784-2.627v-1.04h3.046v.912c0 .456.055.748.146.912.128.255.4.383.803.383.237 0 .438-.055.565-.164.347-.292.292-.693.292-1.113v-.84c0-.584-.602-.93-1.094-1.15l-1.806-.766c-.492-.2-.857-.438-1.13-.71-.71-.657-.748-1.642-.748-2.535v-.492c0-.967.09-2.19.894-2.918.803-.71 2.098-.766 3.12-.766a7.65 7.65 0 0 1 1.86.237c.675.146 1.167.492 1.496 1.04.237.42.383.857.4 1.35l.055 1.66h-2.845v-.638c0-.42-.055-.71-.164-.912-.146-.255-.42-.383-.84-.383-.22 0-.383.055-.51.164-.3.292-.255.73-.255 1.113v.438c0 .657.602 1.003 1.113 1.222l1.842.784c.456.2.84.456 1.15.766.71.71.766 1.733.766 2.663zm4.542-5.946c1.404 0 2.645.237 3.174 1.46.51 1.167.602 2.608.602 3.83l-.073 1.952c-.036.71-.22 1.33-.53 1.88-.292.51-.748.82-1.35.948-.602.11-1.204.164-1.824.164s-1.222-.055-1.824-.164c-.602-.128-1.04-.438-1.33-.948-.3-.547-.492-1.167-.547-1.88l-.055-1.952c0-1.222.09-2.663.602-3.83.51-1.222 1.75-1.46 3.155-1.46zm0 8.135c.383 0 .62-.128.675-.365a3.66 3.66 0 0 0 .091-.766l.018-1.988-.018-2.025c-.018-.584-.274-.876-.766-.876s-.73.292-.748.876l-.036 2.025.036 1.988c0 .255.018.51.073.766.055.237.292.365.675.365zm4.852 1.933V28.182h2.955v13.443h-2.955zm7.186-9.886v6.895c0 .237.055.438.146.584s.274.22.547.22.474-.09.565-.255c.09-.146.128-.328.128-.547V31.74h2.955v9.886h-2.627l-.292-1.13h-.036c-.255.492-.547.82-.857 1.003-.383.2-.803.292-1.277.292-.71 0-1.24-.182-1.623-.547-.383-.383-.584-.967-.584-1.715V31.74h2.955zm5.946 0v-2.517h2.955v2.517h1.33v2.134h-1.33v4.96c0 .292.055.492.164.602.11.128.292.2.565.2a2.43 2.43 0 0 0 .511-.055v2.152l-.803.018-.876.036c-.638 0-1.386-.036-1.897-.4-.51-.383-.62-1.076-.62-1.678v-5.837h-.84V31.74h.84zm5.07-1.35v-2.225h2.955v2.225H311.9zm0 11.236V31.74h2.955v9.886H311.9zm7.788-10.068c1.404 0 2.645.237 3.174 1.46.51 1.167.602 2.608.602 3.83l-.073 1.952c-.036.71-.22 1.33-.53 1.88-.292.51-.748.82-1.35.948-.602.11-1.204.164-1.824.164s-1.222-.055-1.824-.164c-.602-.128-1.04-.438-1.33-.948-.3-.547-.492-1.167-.547-1.88l-.055-1.952c0-1.222.09-2.663.602-3.83.51-1.222 1.75-1.46 3.155-1.46zm0 8.135c.383 0 .62-.128.675-.365a3.66 3.66 0 0 0 .091-.766l.018-1.988-.018-2.025c-.018-.584-.274-.876-.766-.876s-.73.292-.748.876l-.036 2.025.036 1.988c0 .255.018.51.073.766.055.237.292.365.675.365zm9.193 1.933V34.73a1.15 1.15 0 0 0-.146-.584c-.09-.146-.274-.22-.547-.22s-.456.073-.547.237a1.24 1.24 0 0 0-.146.565v6.895h-2.955V31.74h2.627l.292 1.13h.036c.237-.474.53-.803.857-1.003.347-.2.784-.3 1.277-.3.675 0 1.222.182 1.623.565.383.383.584.967.584 1.715v7.788h-2.955zm6.803-7.205c0 .438.51.71.93.857l1.55.584a3.81 3.81 0 0 1 .967.547c.584.51.638 1.277.638 1.952v.383c-.018.876-.182 1.824-.894 2.408s-1.715.638-2.572.638c-.948 0-2.116-.055-2.79-.638-.602-.51-.675-1.277-.675-1.952v-.675h2.663v.274c0 .3.036.547.11.693.09.182.292.274.602.274.164 0 .3-.036.42-.128.237-.2.22-.53.22-.82 0-.438-.53-.71-.912-.857l-1.477-.565c-.383-.128-.71-.3-.948-.53-.584-.492-.62-1.222-.62-1.88v-.4c0-.803.09-1.806.766-2.39s1.77-.638 2.645-.638c.492 0 1.02.055 1.587.164s.985.365 1.277.784c.2.3.328.657.347 1.003l.036 1.15h-2.572v-.2c0-.3-.036-.547-.11-.693-.128-.182-.328-.274-.62-.274-.164 0-.274.036-.365.128-.237.22-.2.53-.2.803z"/><path d="M103.39 70.174v-4.01q-1-1.534-1.836-2.962-.837-1.428-1.555-2.78h1.112q.59 1.238 1.302 2.512.71 1.274 1.485 2.427.746-1.154 1.464-2.427.718-1.274 1.323-2.512h1.04q-.746 1.337-1.576 2.78-.83 1.442-1.8 2.934v4.04h-.957zm11.89-3.63q0 .858-.246 1.562-.246.704-.7 1.196-.443.493-1.048.767-.605.274-1.337.274-.732 0-1.337-.274-.605-.274-1.048-.767-.443-.493-.7-1.196-.246-.704-.246-1.562 0-.858.246-1.562.246-.704.7-1.203.443-.5 1.048-.774.605-.274 1.337-.274.732 0 1.337.274.605.274 1.048.774.443.5.7 1.203.246.704.246 1.562zm-.97 0q0-1.365-.633-2.174-.633-.81-1.717-.81-1.084 0-1.717.81-.633.81-.633 2.174 0 1.365.633 2.167.633.802 1.717.802 1.084 0 1.717-.802.633-.802.633-2.167zm8.542 3.377q-.408.113-1.098.253-.7.14-1.69.14-.816 0-1.365-.24-.55-.24-.887-.675-.338-.436-.485-1.055-.148-.62-.148-1.365V62.9h.915v3.785q0 .774.113 1.31.113.535.366.865.253.33.654.478.4.148.978.148.647 0 1.126-.07.478-.07.605-.127V62.9h.915v7.022zm4.897-7.163q.45 0 .85.07.4.07.556.14l-.183.788q-.113-.056-.457-.12-.345-.063-.908-.063-.59 0-.95.084-.36.084-.47.14v6.375h-.915v-6.938q.352-.155.97-.317.62-.162 1.506-.162zm7.486 6.77q.788 0 1.302-.26.514-.26.514-.88 0-.296-.09-.507-.09-.21-.303-.38-.21-.17-.556-.324-.345-.155-.85-.366-.408-.17-.774-.345-.366-.176-.647-.408-.28-.232-.45-.556-.17-.324-.17-.788 0-.887.668-1.435.668-.55 1.836-.55.746 0 1.23.127.485.127.683.225l-.21.816q-.17-.084-.57-.225-.4-.14-1.175-.14-.3 0-.584.063-.274.063-.485.197-.21.134-.338.338-.127.204-.127.5 0 .296.113.507.113.21.33.373.218.162.535.303.317.14.725.3.422.17.81.345.387.176.683.422.296.246.478.59.183.345.183.865 0 .985-.74 1.492-.74.507-2.02.507-.957 0-1.464-.162-.507-.162-.675-.246l.24-.83q.042.028.183.09.14.063.38.14.24.077.57.134.33.056.767.056zm10.118.394q-.408.113-1.098.253-.7.14-1.69.14-.816 0-1.365-.24-.55-.24-.887-.675-.338-.436-.485-1.055-.148-.62-.148-1.365V62.9h.915v3.785q0 .774.113 1.31.113.535.366.865.253.33.654.478.4.148.978.148.647 0 1.126-.07.478-.07.605-.127V62.9h.915v7.022zm5.432.408q-.844 0-1.492-.267-.647-.267-1.077-.767-.43-.5-.654-1.196-.225-.697-.225-1.54 0-.858.232-1.562.232-.704.668-1.2.436-.507 1.055-.78.62-.274 1.393-.274.59 0 1.105.1.514.1.795.253l-.24.788q-.28-.14-.633-.225-.352-.084-.943-.084-1.2 0-1.836.78-.626.78-.626 2.216 0 .647.14 1.19.14.542.457.93.317.387.816.605.5.218 1.217.218.59 0 .992-.134.4-.134.584-.232l.197.788q-.253.14-.795.274-.542.134-1.133.134zm6.473 0q-.844 0-1.492-.267-.647-.267-1.077-.767-.43-.5-.654-1.196-.225-.697-.225-1.54 0-.858.232-1.562.232-.704.668-1.2.436-.507 1.055-.78.62-.274 1.393-.274.59 0 1.105.1.514.1.795.253l-.24.788q-.28-.14-.633-.225-.352-.084-.943-.084-1.2 0-1.836.78-.626.78-.626 2.216 0 .647.14 1.19.14.542.457.93.317.387.816.605.5.218 1.217.218.59 0 .992-.134.4-.134.584-.232l.197.788q-.253.14-.795.274-.542.134-1.133.134zm3.026-3.8q0-.957.274-1.668.274-.71.718-1.19.443-.478 1.013-.71.57-.232 1.175-.232 1.337 0 2.132.872.795.872.795 2.688 0 .113-.007.225-.007.113-.02.21h-5.108q.042 1.337.66 2.055.62.718 1.97.718.746 0 1.182-.14.436-.14.633-.24l.17.788q-.197.113-.74.267-.542.155-1.274.155-.957 0-1.632-.28-.675-.28-1.112-.788-.436-.507-.633-1.203-.197-.697-.197-1.527zm5.164-.577q-.028-1.14-.535-1.773-.507-.633-1.435-.633-.493 0-.88.197-.387.197-.675.528-.288.33-.45.767-.162.436-.2.915h4.165zm4.475 3.574q.788 0 1.302-.26.514-.26.514-.88 0-.296-.09-.507-.09-.21-.303-.38-.21-.17-.556-.324-.345-.155-.85-.366-.408-.17-.774-.345-.366-.176-.647-.408-.28-.232-.45-.556-.17-.324-.17-.788 0-.887.668-1.435.668-.55 1.836-.55.746 0 1.23.127.485.127.683.225l-.21.816q-.17-.084-.57-.225-.4-.14-1.175-.14-.3 0-.584.063-.274.063-.485.197-.21.134-.338.338-.127.204-.127.5 0 .296.113.507.113.21.33.373.218.162.535.303.317.14.725.3.422.17.81.345.387.176.683.422.296.246.478.59.183.345.183.865 0 .985-.74 1.492-.74.507-2.02.507-.957 0-1.464-.162-.507-.162-.675-.246l.24-.83q.042.028.183.09.14.063.38.14.24.077.57.134.33.056.767.056zm6.023 0q.788 0 1.302-.26.514-.26.514-.88 0-.296-.09-.507-.09-.21-.303-.38-.21-.17-.556-.324-.345-.155-.85-.366-.408-.17-.774-.345-.366-.176-.647-.408-.28-.232-.45-.556-.17-.324-.17-.788 0-.887.668-1.435.668-.55 1.836-.55.746 0 1.23.127.485.127.683.225l-.21.816q-.17-.084-.57-.225-.4-.14-1.175-.14-.3 0-.584.063-.274.063-.485.197-.21.134-.338.338-.127.204-.127.5 0 .296.113.507.113.21.33.373.218.162.535.303.317.14.725.3.422.17.81.345.387.176.683.422.296.246.478.59.183.345.183.865 0 .985-.74 1.492-.74.507-2.02.507-.957 0-1.464-.162-.507-.162-.675-.246l.24-.83q.042.028.183.09.14.063.38.14.24.077.57.134.33.056.767.056zm8.654-.66q.127.1.317.21.2.113.443.21.253.1.55.162.296.063.62.063.675 0 1.133-.232.457-.232.74-.633.28-.4.408-.943.127-.542.127-1.147 0-1.435-.718-2.202-.718-.767-1.9-.767-.675 0-1.09.063-.415.063-.626.134v5.08zm0 3.912h-.915v-9.625q.408-.14 1.04-.267.633-.127 1.604-.127.802 0 1.456.26.654.26 1.126.753.47.493.732 1.196.26.704.26 1.6 0 .83-.218 1.527-.218.697-.64 1.196-.422.5-1.034.78-.612.28-1.4.28-.718 0-1.245-.204-.528-.204-.767-.387v3.026zm9.583-3.265q.535 0 .936-.035.4-.035.683-.09v-2.56q-.155-.07-.493-.148-.338-.077-.93-.077-.338 0-.704.05-.366.05-.675.21-.3.162-.507.443-.197.28-.197.746 0 .408.134.7.134.28.38.45.246.17.59.246.345.077.78.077zm-.084-6.783q.718 0 1.217.204.5.204.81.563.3.36.45.85.14.493.14 1.07v4.588q-.14.042-.408.09-.267.05-.62.106-.352.056-.78.09-.43.035-.88.035-.577 0-1.062-.127-.485-.127-.844-.4-.36-.274-.563-.704-.204-.43-.204-1.048 0-.59.225-1.013.225-.422.633-.697.408-.274.97-.4.563-.127 1.224-.127.197 0 .415.02.218.02.422.056.204.035.352.07.148.035.204.063v-.45q0-.38-.056-.74-.056-.36-.246-.647-.2-.288-.535-.464-.345-.176-.908-.176-.802 0-1.196.113-.394.113-.577.183l-.127-.802q.24-.113.74-.21.5-.1 1.203-.1zm7.43.028q.45 0 .85.07.4.07.556.14l-.183.788q-.113-.056-.457-.12-.345-.063-.908-.063-.59 0-.95.084-.36.084-.47.14v6.375h-.915v-6.938q.352-.155.97-.317.62-.162 1.506-.162zm3.645.14h2.9v.774h-2.9v3.87q0 .62.106 1.006.106.387.303.598.197.21.478.28.28.07.62.07.577 0 .93-.134.352-.134.55-.246l.225.76q-.197.127-.7.288-.493.162-1.07.162-.675 0-1.133-.176-.457-.176-.732-.535-.274-.36-.387-.894-.113-.535-.113-1.266V60.76l.915-.17V62.9zm4.588.253q.408-.113 1.098-.253.7-.14 1.69-.14.83 0 1.386.24.556.24.887.683.33.443.47 1.062.14.62.14 1.365v4.067h-.915v-3.77q0-.774-.106-1.31-.106-.535-.352-.872-.246-.338-.647-.485-.4-.148-1.006-.148-.647 0-1.12.07-.47.07-.612.127v6.39h-.915v-7.022zm7.57 3.377q0-.957.274-1.668.274-.71.718-1.19.443-.478 1.013-.71.57-.232 1.175-.232 1.337 0 2.132.872.795.872.795 2.688 0 .113-.007.225-.007.113-.02.21h-5.108q.042 1.337.66 2.055.62.718 1.97.718.746 0 1.182-.14.436-.14.633-.24l.17.788q-.197.113-.74.267-.542.155-1.274.155-.957 0-1.632-.28-.675-.28-1.112-.788-.436-.507-.633-1.203-.197-.697-.197-1.527zm5.164-.577q-.028-1.14-.535-1.773-.507-.633-1.435-.633-.493 0-.88.197-.387.197-.675.528-.288.33-.45.767-.162.436-.2.915h4.165zm5.46-3.194q.45 0 .85.07.4.07.556.14l-.183.788q-.113-.056-.457-.12-.345-.063-.908-.063-.59 0-.95.084-.36.084-.47.14v6.375h-.915v-6.938q.352-.155.97-.317.62-.162 1.506-.162zm6.91 7.416h-.915V62.9h.915v7.275zm.21-9.47q0 .324-.197.514-.197.2-.478.2-.28 0-.478-.2-.197-.2-.197-.514 0-.324.197-.514.197-.2.478-.2.28 0 .478.2.197.2.197.514zm2.21 2.45q.408-.113 1.098-.253.7-.14 1.69-.14.83 0 1.386.24.556.24.887.683.33.443.47 1.062.14.62.14 1.365v4.067h-.915v-3.77q0-.774-.106-1.31-.106-.535-.352-.872-.246-.338-.647-.485-.4-.148-1.006-.148-.647 0-1.12.07-.47.07-.612.127v6.39h-.915v-7.022zm11.272-2.73h.957v9.752h-.957v-9.752zm9.682 0v.83h-3.124v8.922h-.957v-8.922h-3.124v-.83h7.205z"/></g></svg>