
		<svg xmlns="http://www.w3.org/2000/svg" xmlns:xlink="http://www.w3.org/1999/xlink" version="1.1" width="3176.470588235294" height="1023.529411764706">
			<rect fill="#000000" width="3176.470588235294" height="1023.529411764706"/>
			<g transform="scale(8.823529411764707) translate(10, 10)">
				<defs id="SvgjsDefs3195"></defs><g id="SvgjsG3196" featureKey="root" fill="#000000"></g><g id="SvgjsG3197" featureKey="symbol1" fill="#1896d1" transform="matrix(0.957474440761706,0,0,0.957474440761706,-3.030269861559713,0.2050369093047646)"><g xmlns="http://www.w3.org/2000/svg"><path fill-rule="evenodd" clip-rule="evenodd" d="M80.11,49.695c0.003,5.951,1.481,10.771,3.303,10.771   c1.823,0,3.302-4.824,3.305-10.768c-0.003-5.951-1.479-10.773-3.303-10.773C81.591,38.926,80.107,43.748,80.11,49.695z"></path><path fill-rule="evenodd" clip-rule="evenodd" d="M39.138,14.154c-15.075,6.26-25.529,19.93-25.529,35.779   c-0.004,15.852,10.454,29.52,25.536,35.777C30.504,78.232,24.764,65,24.764,49.934S30.508,21.637,39.138,14.154z"></path><path fill-rule="evenodd" clip-rule="evenodd" d="M49.349,10.23c-7.066,0-12.803,17.854-12.803,39.857   c0,22.016,5.736,39.859,12.808,39.861c3.491-0.002,6.66-4.367,8.969-11.438c1.954,4.756,4.414,7.598,7.084,7.598   c6.367,0.002,11.532-16.066,11.527-35.883c0.005-19.816-5.156-35.887-11.521-35.879c-2.651,0-5.093,2.797-7.041,7.484   C56.057,14.668,52.871,10.234,49.349,10.23z M75.225,50.227c0.005,11.121-2.764,20.143-6.174,20.143   c-3.412,0-6.176-9.023-6.176-20.139c0-11.127,2.764-20.146,6.176-20.15C72.465,30.084,75.229,39.102,75.225,50.227z M57.792,23.318   c-2.395,6.576-3.907,16.191-3.907,26.908c-0.001,10.623,1.484,20.166,3.841,26.736c-1.15,1.559-2.418,2.424-3.748,2.424   c-5.202-0.004-9.414-13.117-9.414-29.299c0-16.174,4.212-29.293,9.407-29.293C55.333,20.797,56.626,21.701,57.792,23.318z"></path></g></g><g id="SvgjsG3198" featureKey="text1" fill="#ffffff" transform="matrix(0.9119816574165951,0,0,0.9119816574165951,99.52576955553803,23.385371561055813)"><path d="M0.52 15.18 l3.3 0 l0 1.42 c0 0.38 0.06 0.64 0.16 0.82 c0.14 0.22 0.4 0.32 0.74 0.32 c0.3 0 0.54 -0.12 0.72 -0.34 c0.14 -0.2 0.22 -0.46 0.22 -0.78 l0 -0.92 c0 -0.5 -0.04 -0.92 -0.1 -1.26 c-0.16 -0.52 -0.54 -0.8 -1.16 -0.82 l-1.26 0 l0 -2.42 l1.24 0 c0.58 -0.02 0.94 -0.3 1.08 -0.84 c0.06 -0.3 0.1 -0.72 0.1 -1.24 l0 -0.36 c0 -0.32 -0.06 -0.58 -0.2 -0.78 c-0.14 -0.22 -0.36 -0.34 -0.68 -0.34 c-0.34 0 -0.56 0.1 -0.68 0.32 c-0.1 0.18 -0.16 0.46 -0.16 0.82 l0 0.88 l-3.26 0 c0 -0.54 0.04 -1.14 0.1 -1.78 s0.28 -1.18 0.66 -1.64 c0.4 -0.48 0.94 -0.78 1.6 -0.88 s1.28 -0.16 1.86 -0.16 c1.06 0 2.46 0.08 3.28 0.88 c0.72 0.7 0.84 1.72 0.84 2.66 c0 0.8 -0.02 1.72 -0.36 2.44 c-0.28 0.54 -0.8 0.88 -1.54 1.04 l0 0.04 c0.84 0.18 1.42 0.58 1.72 1.2 c0.32 0.72 0.34 1.62 0.34 2.42 c0 1.14 -0.12 2.54 -0.94 3.36 c-0.44 0.44 -0.98 0.7 -1.64 0.8 c-0.64 0.1 -1.24 0.14 -1.8 0.14 c-0.62 0 -1.28 -0.06 -1.98 -0.18 c-0.7 -0.14 -1.22 -0.48 -1.6 -1.04 c-0.34 -0.52 -0.54 -1.12 -0.56 -1.82 s-0.04 -1.36 -0.04 -1.96 z M19.14 15.48 l0 0.78 c-0.02 1.12 -0.26 2.36 -1.14 3.1 c-0.9 0.72 -2.22 0.82 -3.34 0.82 c-0.6 0 -1.24 -0.06 -1.92 -0.16 s-1.24 -0.36 -1.68 -0.8 c-0.78 -0.72 -0.86 -1.86 -0.86 -2.88 l0 -1.14 l3.34 0 l0 1 c0 0.5 0.06 0.82 0.16 1 c0.14 0.28 0.44 0.42 0.88 0.42 c0.26 0 0.48 -0.06 0.62 -0.18 c0.38 -0.32 0.32 -0.76 0.32 -1.22 l0 -0.92 c0 -0.64 -0.66 -1.02 -1.2 -1.26 l-1.98 -0.84 c-0.54 -0.22 -0.94 -0.48 -1.24 -0.78 c-0.78 -0.72 -0.82 -1.8 -0.82 -2.78 l0 -0.54 c0 -1.06 0.1 -2.4 0.98 -3.2 c0.88 -0.78 2.3 -0.84 3.42 -0.84 c0.64 0 1.32 0.08 2.04 0.26 c0.74 0.16 1.28 0.54 1.64 1.14 c0.26 0.46 0.42 0.94 0.44 1.48 l0.06 1.82 l-3.12 0 l0 -0.7 c0 -0.46 -0.06 -0.78 -0.18 -1 c-0.16 -0.28 -0.46 -0.42 -0.92 -0.42 c-0.24 0 -0.42 0.06 -0.56 0.18 c-0.34 0.32 -0.28 0.8 -0.28 1.22 l0 0.48 c0 0.72 0.66 1.1 1.22 1.34 l2.02 0.86 c0.5 0.22 0.92 0.5 1.26 0.84 c0.78 0.78 0.84 1.9 0.84 2.92 z  M23.98 20 l0 -14.74 l3.54 0 l0 14.74 l-3.54 0 z M28.58 8.12 l0 -2.86 l8.34 0 l0 2.86 l-2.4 0 l0 11.88 l-3.54 0 l0 -11.88 l-2.4 0 z  M40.96 8.12 l0 -2.86 l8.34 0 l0 2.86 l-2.4 0 l0 11.88 l-3.54 0 l0 -11.88 l-2.4 0 z M53.1 9.16 l0.34 1.32 l0.04 0 c0.26 -0.44 0.58 -0.8 0.96 -1.1 c0.42 -0.28 0.94 -0.42 1.58 -0.42 c0.38 0 0.72 0.04 1.04 0.14 l0 3.14 c-0.22 -0.08 -0.46 -0.14 -0.68 -0.2 c-0.32 -0.02 -0.56 -0.04 -0.72 -0.04 c-0.74 0 -1.28 0.24 -1.62 0.7 c-0.38 0.48 -0.56 1.18 -0.56 2.12 l0 5.18 l-3.24 0 l0 -10.84 l2.86 0 z M62.14000000000001 13.36 l0 -0.82 c0 -0.24 0.02 -0.56 -0.04 -0.82 c-0.1 -0.3 -0.3 -0.46 -0.56 -0.46 c-0.34 0 -0.54 0.12 -0.64 0.34 c-0.08 0.16 -0.12 0.42 -0.12 0.8 l-2.88 0 c0 -0.88 0.02 -2.04 0.68 -2.7 c0.36 -0.36 0.82 -0.58 1.38 -0.64 c0.58 -0.06 1.1 -0.1 1.58 -0.1 c0.96 0 2.22 0.04 3.04 0.66 c0.78 0.58 0.92 1.62 0.92 2.5 l0 7.88 l-2.8 0 l-0.24 -0.94 l-0.04 0 c-0.28 0.46 -0.6 0.76 -0.96 0.9 c-0.38 0.14 -0.82 0.22 -1.32 0.22 c-0.82 0 -1.66 -0.18 -2.12 -0.92 c-0.46 -0.7 -0.5 -1.64 -0.5 -2.46 c0 -0.9 0.14 -1.9 0.84 -2.6 c0.54 -0.5 1.3 -0.7 2.02 -0.84 c0.34 -0.06 0.66 -0.08 0.96 -0.06 c0.26 0.02 0.54 0.04 0.8 0.06 z M62.260000000000005 16.98 l0 -1.82 c-0.04 -0.02 -0.12 -0.02 -0.24 -0.02 c-0.38 0.02 -0.66 0.12 -0.84 0.28 c-0.22 0.2 -0.34 0.48 -0.34 0.82 l0 0.62 c0 0.38 0.06 0.64 0.16 0.8 c0.1 0.18 0.28 0.26 0.58 0.26 c0.26 0 0.44 -0.1 0.54 -0.28 c0.1 -0.16 0.14 -0.38 0.14 -0.66 z M66.88000000000001 7.68 l0 -2.44 l3.24 0 l0 2.44 l-3.24 0 z M66.88000000000001 20 l0 -10.84 l3.24 0 l0 10.84 l-3.24 0 z M76.32000000000001 20 l0 -7.56 c0 -0.26 -0.06 -0.46 -0.16 -0.64 c-0.1 -0.16 -0.3 -0.24 -0.6 -0.24 s-0.5 0.08 -0.6 0.26 c-0.1 0.2 -0.16 0.4 -0.16 0.62 l0 7.56 l-3.24 0 l0 -10.84 l2.88 0 l0.32 1.24 l0.04 0 c0.26 -0.52 0.58 -0.88 0.94 -1.1 c0.38 -0.22 0.86 -0.34 1.4 -0.34 c0.74 0 1.34 0.2 1.78 0.62 c0.42 0.42 0.64 1.06 0.64 1.88 l0 8.54 l-3.24 0 z M80.96000000000001 7.68 l0 -2.44 l3.24 0 l0 2.44 l-3.24 0 z M80.96000000000001 20 l0 -10.84 l3.24 0 l0 10.84 l-3.24 0 z M90.40000000000002 20 l0 -7.56 c0 -0.26 -0.06 -0.46 -0.16 -0.64 c-0.1 -0.16 -0.3 -0.24 -0.6 -0.24 s-0.5 0.08 -0.6 0.26 c-0.1 0.2 -0.16 0.4 -0.16 0.62 l0 7.56 l-3.24 0 l0 -10.84 l2.88 0 l0.32 1.24 l0.04 0 c0.26 -0.52 0.58 -0.88 0.94 -1.1 c0.38 -0.22 0.86 -0.34 1.4 -0.34 c0.74 0 1.34 0.2 1.78 0.62 c0.42 0.42 0.64 1.06 0.64 1.88 l0 8.54 l-3.24 0 z M95.20000000000002 20.58 l2.92 0 c0.02 0.26 0.12 0.42 0.3 0.52 c0.1 0.06 0.28 0.1 0.58 0.1 c0.2 0 0.36 -0.04 0.46 -0.12 c0.26 -0.24 0.24 -0.56 0.24 -0.96 l0 -1.62 l-0.04 0 c-0.24 0.4 -0.54 0.7 -0.9 0.9 c-0.36 0.22 -0.82 0.32 -1.38 0.32 c-1.28 0 -1.9 -0.72 -2.2 -1.7 c-0.26 -0.96 -0.26 -2.2 -0.26 -3.18 l0 -2.48 c0 -0.8 0.04 -1.76 0.5 -2.48 s1.34 -0.92 2.16 -0.92 c0.5 0 0.94 0.08 1.32 0.22 c0.36 0.18 0.68 0.48 0.96 0.92 l0.04 0 l0.24 -0.94 l2.8 0 l0 11.12 c0 0.88 -0.14 1.92 -0.92 2.5 c-0.82 0.62 -2.08 0.66 -3.04 0.66 c-0.48 0 -1.02 -0.04 -1.64 -0.1 s-1.1 -0.28 -1.46 -0.64 c-0.54 -0.54 -0.66 -1.38 -0.68 -2.12 z M99.70000000000002 15.940000000000001 l0 -3.02 c0 -0.46 -0.04 -0.8 -0.14 -1.06 c-0.14 -0.26 -0.34 -0.4 -0.62 -0.4 s-0.48 0.14 -0.62 0.4 c-0.08 0.22 -0.12 0.56 -0.12 1.06 l0 3.02 c0 0.5 0.04 0.86 0.12 1.04 c0.12 0.28 0.32 0.42 0.62 0.42 c0.28 0 0.48 -0.14 0.62 -0.42 c0.1 -0.22 0.14 -0.56 0.14 -1.04 z  M112.18000000000002 20.18 c-0.62 0 -1.3 -0.06 -2.04 -0.18 c-0.72 -0.1 -1.28 -0.46 -1.68 -1.04 c-0.34 -0.52 -0.54 -1.14 -0.58 -1.84 c-0.02 -0.72 -0.04 -1.4 -0.04 -2.06 l0 -0.7 c0 -0.74 0.18 -1.36 0.54 -1.82 c0.36 -0.44 0.86 -0.72 1.48 -0.82 l0 -0.04 c-0.24 -0.32 -0.52 -0.7 -0.76 -1.1 c-0.36 -0.62 -0.54 -1.14 -0.54 -1.58 c-0.02 -1.54 0.32 -2.6 1.06 -3.14 c0.72 -0.54 1.78 -0.66 3.16 -0.66 c0.62 0 1.26 0.08 1.96 0.26 c0.7 0.16 1.24 0.54 1.6 1.14 c0.26 0.46 0.4 0.96 0.42 1.48 l0.02 1.12 l-3.22 0 c0 -0.48 -0.04 -0.82 -0.14 -1 c-0.14 -0.28 -0.38 -0.42 -0.72 -0.42 c-0.18 0 -0.32 0.06 -0.42 0.18 c-0.26 0.32 -0.22 0.8 -0.22 1.38 c0 0.32 0.06 0.56 0.18 0.7 l1.34 2.08 l0.04 0 l0 -1.72 l2.92 0 l0 4.66 l0 1.06 l0.3 0.48 c0.14 0.18 0.36 0.34 0.7 0.46 l0 2.94 c-0.44 0 -0.8 -0.04 -1.08 -0.12 c-0.4 -0.08 -0.72 -0.22 -0.98 -0.44 c-0.88 0.72 -2.26 0.74 -3.3 0.74 z M113.36000000000001 16.9 l-1.86 -2.78 c-0.18 0.02 -0.32 0.14 -0.38 0.34 c-0.08 0.16 -0.12 0.36 -0.12 0.6 l0 1.54 c0 0.38 0.06 0.64 0.16 0.82 c0.14 0.22 0.4 0.32 0.74 0.32 l0.58 0 c0.34 0 0.58 -0.1 0.74 -0.32 c0.06 -0.12 0.12 -0.3 0.14 -0.52 z  M125.88000000000001 13.620000000000001 l0 3.78 l0.88 0 c0.42 0 0.72 -0.1 0.9 -0.32 c0.24 -0.32 0.24 -0.84 0.24 -1.24 l0 -0.64 c0 -0.5 -0.08 -0.88 -0.22 -1.18 c-0.14 -0.26 -0.44 -0.4 -0.9 -0.4 l-0.9 0 z M122.36000000000001 20 l0 -14.74 l5.1 0 c0.96 0 2.18 0.08 2.96 0.8 c0.72 0.72 0.82 1.82 0.82 2.76 c0 1.02 -0.16 1.82 -0.46 2.36 c-0.3 0.56 -0.88 0.92 -1.7 1.1 l0 0.04 c0.86 0.1 1.5 0.46 1.88 1.04 c0.38 0.62 0.56 1.42 0.56 2.4 c0 1.52 -0.28 2.6 -0.86 3.24 c-0.58 0.66 -1.5 1 -2.8 1 l-5.5 0 z M126.64000000000001 7.880000000000001 l-0.76 0 l0 3.3 l0.74 0 c0.46 0 0.78 -0.12 0.92 -0.34 s0.22 -0.58 0.22 -1.06 l0 -0.52 c0 -0.5 -0.06 -0.84 -0.2 -1.06 c-0.16 -0.22 -0.46 -0.32 -0.92 -0.32 z M135.76 9.16 l0 7.56 c0 0.26 0.06 0.48 0.16 0.64 s0.3 0.24 0.6 0.24 s0.52 -0.1 0.62 -0.28 c0.1 -0.16 0.14 -0.36 0.14 -0.6 l0 -7.56 l3.24 0 l0 10.84 l-2.88 0 l-0.32 -1.24 l-0.04 0 c-0.28 0.54 -0.6 0.9 -0.94 1.1 c-0.42 0.22 -0.88 0.32 -1.4 0.32 c-0.78 0 -1.36 -0.2 -1.78 -0.6 c-0.42 -0.42 -0.64 -1.06 -0.64 -1.88 l0 -8.54 l3.24 0 z M144.78 12.1 c0 0.48 0.56 0.78 1.02 0.94 l1.7 0.64 c0.4 0.16 0.76 0.36 1.06 0.6 c0.64 0.56 0.7 1.4 0.7 2.14 l0 0.42 c-0.02 0.96 -0.2 2 -0.98 2.64 s-1.88 0.7 -2.82 0.7 c-1.04 0 -2.32 -0.06 -3.06 -0.7 c-0.66 -0.56 -0.74 -1.4 -0.74 -2.14 l0 -0.74 l2.92 0 l0 0.3 c0 0.34 0.04 0.6 0.12 0.76 c0.1 0.2 0.32 0.3 0.66 0.3 c0.18 0 0.34 -0.04 0.46 -0.14 c0.26 -0.22 0.24 -0.58 0.24 -0.9 c0 -0.48 -0.58 -0.78 -1 -0.94 l-1.62 -0.62 c-0.42 -0.14 -0.78 -0.34 -1.04 -0.58 c-0.64 -0.54 -0.68 -1.34 -0.68 -2.06 l0 -0.44 c0 -0.88 0.1 -1.98 0.84 -2.62 s1.94 -0.7 2.9 -0.7 c0.54 0 1.12 0.06 1.74 0.18 s1.08 0.4 1.4 0.86 c0.22 0.34 0.36 0.72 0.38 1.1 l0.04 1.26 l-2.82 0 l0 -0.22 c0 -0.34 -0.04 -0.6 -0.12 -0.76 c-0.14 -0.2 -0.36 -0.3 -0.68 -0.3 c-0.18 0 -0.3 0.04 -0.4 0.14 c-0.26 0.24 -0.22 0.58 -0.22 0.88 z M150.32000000000002 7.68 l0 -2.44 l3.24 0 l0 2.44 l-3.24 0 z M150.32000000000002 20 l0 -10.84 l3.24 0 l0 10.84 l-3.24 0 z M159.76000000000002 20 l0 -7.56 c0 -0.26 -0.06 -0.46 -0.16 -0.64 c-0.1 -0.16 -0.3 -0.24 -0.6 -0.24 s-0.5 0.08 -0.6 0.26 c-0.1 0.2 -0.16 0.4 -0.16 0.62 l0 7.56 l-3.24 0 l0 -10.84 l2.88 0 l0.32 1.24 l0.04 0 c0.26 -0.52 0.58 -0.88 0.94 -1.1 c0.38 -0.22 0.86 -0.34 1.4 -0.34 c0.74 0 1.34 0.2 1.78 0.62 c0.42 0.42 0.64 1.06 0.64 1.88 l0 8.54 l-3.24 0 z M168.18000000000004 20.18 c-0.64 0 -1.3 -0.06 -1.96 -0.18 c-0.66 -0.14 -1.16 -0.48 -1.46 -1.04 c-0.34 -0.58 -0.56 -1.86 -0.56 -2.98 l0 -2.58 c0 -1.06 0.22 -2.2 0.48 -2.84 c0.26 -0.66 0.74 -1.1 1.44 -1.3 s1.44 -0.3 2.2 -0.3 c1.58 0 2.66 0.34 3.22 1 c0.58 0.66 0.86 1.42 0.86 2.3 l0 2.98 l-4.9 0 l0 1.34 c0 0.28 0.04 0.56 0.1 0.84 c0.06 0.26 0.3 0.4 0.72 0.4 c0.4 0 0.64 -0.14 0.7 -0.4 c0.06 -0.28 0.1 -0.56 0.1 -0.84 l0 -0.18 l3.26 0 c0 0.74 -0.16 1.98 -0.48 2.56 c-0.32 0.56 -0.84 0.9 -1.54 1.04 c-0.7 0.12 -1.42 0.18 -2.18 0.18 z M167.48000000000005 13.24 l1.66 0 c-0.02 -0.32 -0.02 -0.7 -0.02 -0.94 c-0.02 -0.64 -0.3 -0.96 -0.8 -0.96 c-0.54 0 -0.8 0.32 -0.82 0.96 c0 0.38 -0.02 0.68 -0.02 0.94 z M176.40000000000003 12.1 c0 0.48 0.56 0.78 1.02 0.94 l1.7 0.64 c0.4 0.16 0.76 0.36 1.06 0.6 c0.64 0.56 0.7 1.4 0.7 2.14 l0 0.42 c-0.02 0.96 -0.2 2 -0.98 2.64 s-1.88 0.7 -2.82 0.7 c-1.04 0 -2.32 -0.06 -3.06 -0.7 c-0.66 -0.56 -0.74 -1.4 -0.74 -2.14 l0 -0.74 l2.92 0 l0 0.3 c0 0.34 0.04 0.6 0.12 0.76 c0.1 0.2 0.32 0.3 0.66 0.3 c0.18 0 0.34 -0.04 0.46 -0.14 c0.26 -0.22 0.24 -0.58 0.24 -0.9 c0 -0.48 -0.58 -0.78 -1 -0.94 l-1.62 -0.62 c-0.42 -0.14 -0.78 -0.34 -1.04 -0.58 c-0.64 -0.54 -0.68 -1.34 -0.68 -2.06 l0 -0.44 c0 -0.88 0.1 -1.98 0.84 -2.62 s1.94 -0.7 2.9 -0.7 c0.54 0 1.12 0.06 1.74 0.18 s1.08 0.4 1.4 0.86 c0.22 0.34 0.36 0.72 0.38 1.1 l0.04 1.26 l-2.82 0 l0 -0.22 c0 -0.34 -0.04 -0.6 -0.12 -0.76 c-0.14 -0.2 -0.36 -0.3 -0.68 -0.3 c-0.18 0 -0.3 0.04 -0.4 0.14 c-0.26 0.24 -0.22 0.58 -0.22 0.88 z M184.76000000000002 12.1 c0 0.48 0.56 0.78 1.02 0.94 l1.7 0.64 c0.4 0.16 0.76 0.36 1.06 0.6 c0.64 0.56 0.7 1.4 0.7 2.14 l0 0.42 c-0.02 0.96 -0.2 2 -0.98 2.64 s-1.88 0.7 -2.82 0.7 c-1.04 0 -2.32 -0.06 -3.06 -0.7 c-0.66 -0.56 -0.74 -1.4 -0.74 -2.14 l0 -0.74 l2.92 0 l0 0.3 c0 0.34 0.04 0.6 0.12 0.76 c0.1 0.2 0.32 0.3 0.66 0.3 c0.18 0 0.34 -0.04 0.46 -0.14 c0.26 -0.22 0.24 -0.58 0.24 -0.9 c0 -0.48 -0.58 -0.78 -1 -0.94 l-1.62 -0.62 c-0.42 -0.14 -0.78 -0.34 -1.04 -0.58 c-0.64 -0.54 -0.68 -1.34 -0.68 -2.06 l0 -0.44 c0 -0.88 0.1 -1.98 0.84 -2.62 s1.94 -0.7 2.9 -0.7 c0.54 0 1.12 0.06 1.74 0.18 s1.08 0.4 1.4 0.86 c0.22 0.34 0.36 0.72 0.38 1.1 l0.04 1.26 l-2.82 0 l0 -0.22 c0 -0.34 -0.04 -0.6 -0.12 -0.76 c-0.14 -0.2 -0.36 -0.3 -0.68 -0.3 c-0.18 0 -0.3 0.04 -0.4 0.14 c-0.26 0.24 -0.22 0.58 -0.22 0.88 z  M202.60000000000002 15.48 l0 0.78 c-0.02 1.12 -0.26 2.36 -1.14 3.1 c-0.9 0.72 -2.22 0.82 -3.34 0.82 c-0.6 0 -1.24 -0.06 -1.92 -0.16 s-1.24 -0.36 -1.68 -0.8 c-0.78 -0.72 -0.86 -1.86 -0.86 -2.88 l0 -1.14 l3.34 0 l0 1 c0 0.5 0.06 0.82 0.16 1 c0.14 0.28 0.44 0.42 0.88 0.42 c0.26 0 0.48 -0.06 0.62 -0.18 c0.38 -0.32 0.32 -0.76 0.32 -1.22 l0 -0.92 c0 -0.64 -0.66 -1.02 -1.2 -1.26 l-1.98 -0.84 c-0.54 -0.22 -0.94 -0.48 -1.24 -0.78 c-0.78 -0.72 -0.82 -1.8 -0.82 -2.78 l0 -0.54 c0 -1.06 0.1 -2.4 0.98 -3.2 c0.88 -0.78 2.3 -0.84 3.42 -0.84 c0.64 0 1.32 0.08 2.04 0.26 c0.74 0.16 1.28 0.54 1.64 1.14 c0.26 0.46 0.42 0.94 0.44 1.48 l0.06 1.82 l-3.12 0 l0 -0.7 c0 -0.46 -0.06 -0.78 -0.18 -1 c-0.16 -0.28 -0.46 -0.42 -0.92 -0.42 c-0.24 0 -0.42 0.06 -0.56 0.18 c-0.34 0.32 -0.28 0.8 -0.28 1.22 l0 0.48 c0 0.72 0.66 1.1 1.22 1.34 l2.02 0.86 c0.5 0.22 0.92 0.5 1.26 0.84 c0.78 0.78 0.84 1.9 0.84 2.92 z M207.58000000000004 8.96 c1.54 0 2.9 0.26 3.48 1.6 c0.56 1.28 0.66 2.86 0.66 4.2 c0 0.64 -0.02 1.36 -0.08 2.14 c-0.04 0.78 -0.24 1.46 -0.58 2.06 c-0.32 0.56 -0.82 0.9 -1.48 1.04 c-0.66 0.12 -1.32 0.18 -2 0.18 s-1.34 -0.06 -2 -0.18 c-0.66 -0.14 -1.14 -0.48 -1.46 -1.04 c-0.34 -0.6 -0.54 -1.28 -0.6 -2.06 c-0.04 -0.78 -0.06 -1.5 -0.06 -2.14 c0 -1.34 0.1 -2.92 0.66 -4.2 c0.56 -1.34 1.92 -1.6 3.46 -1.6 z M207.58000000000004 17.88 c0.42 0 0.68 -0.14 0.74 -0.4 c0.06 -0.28 0.1 -0.56 0.1 -0.84 c0 -0.86 0 -1.6 0.02 -2.18 c0.02 -0.6 0 -1.34 -0.02 -2.22 c-0.02 -0.64 -0.3 -0.96 -0.84 -0.96 s-0.8 0.32 -0.82 0.96 c-0.04 0.88 -0.06 1.62 -0.04 2.22 c0.02 0.58 0.04 1.32 0.04 2.18 c0 0.28 0.02 0.56 0.08 0.84 c0.06 0.26 0.32 0.4 0.74 0.4 z M212.90000000000003 20 l0 -14.74 l3.24 0 l0 14.74 l-3.24 0 z M220.78000000000003 9.16 l0 7.56 c0 0.26 0.06 0.48 0.16 0.64 s0.3 0.24 0.6 0.24 s0.52 -0.1 0.62 -0.28 c0.1 -0.16 0.14 -0.36 0.14 -0.6 l0 -7.56 l3.24 0 l0 10.84 l-2.88 0 l-0.32 -1.24 l-0.04 0 c-0.28 0.54 -0.6 0.9 -0.94 1.1 c-0.42 0.22 -0.88 0.32 -1.4 0.32 c-0.78 0 -1.36 -0.2 -1.78 -0.6 c-0.42 -0.42 -0.64 -1.06 -0.64 -1.88 l0 -8.54 l3.24 0 z M227.30000000000004 9.16 l0 -2.76 l3.24 0 l0 2.76 l1.46 0 l0 2.34 l-1.46 0 l0 5.44 c0 0.32 0.06 0.54 0.18 0.66 c0.12 0.14 0.32 0.22 0.62 0.22 c0.18 0 0.38 -0.02 0.56 -0.06 l0 2.36 c-0.36 0 -0.66 0 -0.88 0.02 c-0.24 0.02 -0.56 0.04 -0.96 0.04 c-0.7 0 -1.52 -0.04 -2.08 -0.44 c-0.56 -0.42 -0.68 -1.18 -0.68 -1.84 l0 -6.4 l-0.92 0 l0 -2.34 l0.92 0 z M232.86000000000004 7.68 l0 -2.44 l3.24 0 l0 2.44 l-3.24 0 z M232.86000000000004 20 l0 -10.84 l3.24 0 l0 10.84 l-3.24 0 z M241.40000000000006 8.96 c1.54 0 2.9 0.26 3.48 1.6 c0.56 1.28 0.66 2.86 0.66 4.2 c0 0.64 -0.02 1.36 -0.08 2.14 c-0.04 0.78 -0.24 1.46 -0.58 2.06 c-0.32 0.56 -0.82 0.9 -1.48 1.04 c-0.66 0.12 -1.32 0.18 -2 0.18 s-1.34 -0.06 -2 -0.18 c-0.66 -0.14 -1.14 -0.48 -1.46 -1.04 c-0.34 -0.6 -0.54 -1.28 -0.6 -2.06 c-0.04 -0.78 -0.06 -1.5 -0.06 -2.14 c0 -1.34 0.1 -2.92 0.66 -4.2 c0.56 -1.34 1.92 -1.6 3.46 -1.6 z M241.40000000000006 17.88 c0.42 0 0.68 -0.14 0.74 -0.4 c0.06 -0.28 0.1 -0.56 0.1 -0.84 c0 -0.86 0 -1.6 0.02 -2.18 c0.02 -0.6 0 -1.34 -0.02 -2.22 c-0.02 -0.64 -0.3 -0.96 -0.84 -0.96 s-0.8 0.32 -0.82 0.96 c-0.04 0.88 -0.06 1.62 -0.04 2.22 c0.02 0.58 0.04 1.32 0.04 2.18 c0 0.28 0.02 0.56 0.08 0.84 c0.06 0.26 0.32 0.4 0.74 0.4 z M251.48000000000005 20 l0 -7.56 c0 -0.26 -0.06 -0.46 -0.16 -0.64 c-0.1 -0.16 -0.3 -0.24 -0.6 -0.24 s-0.5 0.08 -0.6 0.26 c-0.1 0.2 -0.16 0.4 -0.16 0.62 l0 7.56 l-3.24 0 l0 -10.84 l2.88 0 l0.32 1.24 l0.04 0 c0.26 -0.52 0.58 -0.88 0.94 -1.1 c0.38 -0.22 0.86 -0.34 1.4 -0.34 c0.74 0 1.34 0.2 1.78 0.62 c0.42 0.42 0.64 1.06 0.64 1.88 l0 8.54 l-3.24 0 z M258.94000000000005 12.1 c0 0.48 0.56 0.78 1.02 0.94 l1.7 0.64 c0.4 0.16 0.76 0.36 1.06 0.6 c0.64 0.56 0.7 1.4 0.7 2.14 l0 0.42 c-0.02 0.96 -0.2 2 -0.98 2.64 s-1.88 0.7 -2.82 0.7 c-1.04 0 -2.32 -0.06 -3.06 -0.7 c-0.66 -0.56 -0.74 -1.4 -0.74 -2.14 l0 -0.74 l2.92 0 l0 0.3 c0 0.34 0.04 0.6 0.12 0.76 c0.1 0.2 0.32 0.3 0.66 0.3 c0.18 0 0.34 -0.04 0.46 -0.14 c0.26 -0.22 0.24 -0.58 0.24 -0.9 c0 -0.48 -0.58 -0.78 -1 -0.94 l-1.62 -0.62 c-0.42 -0.14 -0.78 -0.34 -1.04 -0.58 c-0.64 -0.54 -0.68 -1.34 -0.68 -2.06 l0 -0.44 c0 -0.88 0.1 -1.98 0.84 -2.62 s1.94 -0.7 2.9 -0.7 c0.54 0 1.12 0.06 1.74 0.18 s1.08 0.4 1.4 0.86 c0.22 0.34 0.36 0.72 0.38 1.1 l0.04 1.26 l-2.82 0 l0 -0.22 c0 -0.34 -0.04 -0.6 -0.12 -0.76 c-0.14 -0.2 -0.36 -0.3 -0.68 -0.3 c-0.18 0 -0.3 0.04 -0.4 0.14 c-0.26 0.24 -0.22 0.58 -0.22 0.88 z"></path></g><g id="SvgjsG3199" featureKey="text3" fill="#1896d1" transform="matrix(0.7036086863417967,0,0,0.7036086863417967,99.85927839693434,53.287572488126266)"><path d="M5.02 24 l0 -5.7 q-1.42 -2.18 -2.61 -4.21 t-2.21 -3.95 l1.58 0 q0.84 1.76 1.85 3.57 t2.11 3.45 q1.06 -1.64 2.08 -3.45 t1.88 -3.57 l1.48 0 q-1.06 1.9 -2.24 3.95 t-2.56 4.17 l0 5.74 l-1.36 0 z M21.92 18.84 q0 1.22 -0.35 2.22 t-0.98 1.7 t-1.49 1.09 t-1.9 0.39 t-1.9 -0.39 t-1.49 -1.09 t-0.98 -1.7 t-0.35 -2.22 t0.35 -2.22 t0.98 -1.71 t1.49 -1.1 t1.9 -0.39 t1.9 0.39 t1.49 1.1 t0.98 1.71 t0.35 2.22 z M20.54 18.84 q0 -1.94 -0.9 -3.09 t-2.44 -1.15 t-2.44 1.15 t-0.9 3.09 t0.9 3.08 t2.44 1.14 t2.44 -1.14 t0.9 -3.08 z M32.68000000000001 23.64 q-0.58 0.16 -1.56 0.36 t-2.4 0.2 q-1.16 0 -1.94 -0.34 t-1.26 -0.96 t-0.69 -1.5 t-0.21 -1.94 l0 -5.8 l1.3 0 l0 5.38 q0 1.1 0.16 1.86 t0.52 1.23 t0.93 0.68 t1.39 0.21 q0.92 0 1.6 -0.1 t0.86 -0.18 l0 -9.08 l1.3 0 l0 9.98 z M39.64000000000001 13.46 q0.64 0 1.21 0.1 t0.79 0.2 l-0.26 1.12 q-0.16 -0.08 -0.65 -0.17 t-1.29 -0.09 q-0.84 0 -1.35 0.12 t-0.67 0.2 l0 9.06 l-1.3 0 l0 -9.86 q0.5 -0.22 1.38 -0.45 t2.14 -0.23 z  M50.280000000000015 23.08 q1.12 0 1.85 -0.37 t0.73 -1.25 q0 -0.42 -0.13 -0.72 t-0.43 -0.54 t-0.79 -0.46 t-1.21 -0.52 q-0.58 -0.24 -1.1 -0.49 t-0.92 -0.58 t-0.64 -0.79 t-0.24 -1.12 q0 -1.26 0.95 -2.04 t2.61 -0.78 q1.06 0 1.75 0.18 t0.97 0.32 l-0.3 1.16 q-0.24 -0.12 -0.81 -0.32 t-1.67 -0.2 q-0.44 0 -0.83 0.09 t-0.69 0.28 t-0.48 0.48 t-0.18 0.71 t0.16 0.72 t0.47 0.53 t0.76 0.43 t1.03 0.44 q0.6 0.24 1.15 0.49 t0.97 0.6 t0.68 0.84 t0.26 1.23 q0 1.4 -1.05 2.12 t-2.87 0.72 q-1.36 0 -2.08 -0.23 t-0.96 -0.35 l0.34 -1.18 q0.06 0.04 0.26 0.13 t0.54 0.2 t0.81 0.19 t1.09 0.08 z M64.66000000000001 23.64 q-0.58 0.16 -1.56 0.36 t-2.4 0.2 q-1.16 0 -1.94 -0.34 t-1.26 -0.96 t-0.69 -1.5 t-0.21 -1.94 l0 -5.8 l1.3 0 l0 5.38 q0 1.1 0.16 1.86 t0.52 1.23 t0.93 0.68 t1.39 0.21 q0.92 0 1.6 -0.1 t0.86 -0.18 l0 -9.08 l1.3 0 l0 9.98 z M72.38000000000001 24.22 q-1.2 0 -2.12 -0.38 t-1.53 -1.09 t-0.93 -1.7 t-0.32 -2.19 q0 -1.22 0.33 -2.22 t0.95 -1.72 t1.5 -1.11 t1.98 -0.39 q0.84 0 1.57 0.14 t1.13 0.36 l-0.34 1.12 q-0.4 -0.2 -0.9 -0.32 t-1.34 -0.12 q-1.72 0 -2.61 1.11 t-0.89 3.15 q0 0.92 0.2 1.69 t0.65 1.32 t1.16 0.86 t1.73 0.31 q0.84 0 1.41 -0.19 t0.83 -0.33 l0.28 1.12 q-0.36 0.2 -1.13 0.39 t-1.61 0.19 z M81.58000000000001 24.22 q-1.2 0 -2.12 -0.38 t-1.53 -1.09 t-0.93 -1.7 t-0.32 -2.19 q0 -1.22 0.33 -2.22 t0.95 -1.72 t1.5 -1.11 t1.98 -0.39 q0.84 0 1.57 0.14 t1.13 0.36 l-0.34 1.12 q-0.4 -0.2 -0.9 -0.32 t-1.34 -0.12 q-1.72 0 -2.61 1.11 t-0.89 3.15 q0 0.92 0.2 1.69 t0.65 1.32 t1.16 0.86 t1.73 0.31 q0.84 0 1.41 -0.19 t0.83 -0.33 l0.28 1.12 q-0.36 0.2 -1.13 0.39 t-1.61 0.19 z M85.88000000000001 18.82 q0 -1.36 0.39 -2.37 t1.02 -1.69 t1.44 -1.01 t1.67 -0.33 q1.9 0 3.03 1.24 t1.13 3.82 q0 0.16 -0.01 0.32 t-0.03 0.3 l-7.26 0 q0.06 1.9 0.94 2.92 t2.8 1.02 q1.06 0 1.68 -0.2 t0.9 -0.34 l0.24 1.12 q-0.28 0.16 -1.05 0.38 t-1.81 0.22 q-1.36 0 -2.32 -0.4 t-1.58 -1.12 t-0.9 -1.71 t-0.28 -2.17 z M93.22000000000001 18 q-0.04 -1.62 -0.76 -2.52 t-2.04 -0.9 q-0.7 0 -1.25 0.28 t-0.96 0.75 t-0.64 1.09 t-0.27 1.3 l5.92 0 z M99.58000000000001 23.08 q1.12 0 1.85 -0.37 t0.73 -1.25 q0 -0.42 -0.13 -0.72 t-0.43 -0.54 t-0.79 -0.46 t-1.21 -0.52 q-0.58 -0.24 -1.1 -0.49 t-0.92 -0.58 t-0.64 -0.79 t-0.24 -1.12 q0 -1.26 0.95 -2.04 t2.61 -0.78 q1.06 0 1.75 0.18 t0.97 0.32 l-0.3 1.16 q-0.24 -0.12 -0.81 -0.32 t-1.67 -0.2 q-0.44 0 -0.83 0.09 t-0.69 0.28 t-0.48 0.48 t-0.18 0.71 t0.16 0.72 t0.47 0.53 t0.76 0.43 t1.03 0.44 q0.6 0.24 1.15 0.49 t0.97 0.6 t0.68 0.84 t0.26 1.23 q0 1.4 -1.05 2.12 t-2.87 0.72 q-1.36 0 -2.08 -0.23 t-0.96 -0.35 l0.34 -1.18 q0.06 0.04 0.26 0.13 t0.54 0.2 t0.81 0.19 t1.09 0.08 z M108.14000000000001 23.08 q1.12 0 1.85 -0.37 t0.73 -1.25 q0 -0.42 -0.13 -0.72 t-0.43 -0.54 t-0.79 -0.46 t-1.21 -0.52 q-0.58 -0.24 -1.1 -0.49 t-0.92 -0.58 t-0.64 -0.79 t-0.24 -1.12 q0 -1.26 0.95 -2.04 t2.61 -0.78 q1.06 0 1.75 0.18 t0.97 0.32 l-0.3 1.16 q-0.24 -0.12 -0.81 -0.32 t-1.67 -0.2 q-0.44 0 -0.83 0.09 t-0.69 0.28 t-0.48 0.48 t-0.18 0.71 t0.16 0.72 t0.47 0.53 t0.76 0.43 t1.03 0.44 q0.6 0.24 1.15 0.49 t0.97 0.6 t0.68 0.84 t0.26 1.23 q0 1.4 -1.05 2.12 t-2.87 0.72 q-1.36 0 -2.08 -0.23 t-0.96 -0.35 l0.34 -1.18 q0.06 0.04 0.26 0.13 t0.54 0.2 t0.81 0.19 t1.09 0.08 z  M120.44000000000001 22.14 q0.18 0.14 0.45 0.3 t0.63 0.3 t0.78 0.23 t0.88 0.09 q0.96 0 1.61 -0.33 t1.05 -0.9 t0.58 -1.34 t0.18 -1.63 q0 -2.04 -1.02 -3.13 t-2.7 -1.09 q-0.96 0 -1.55 0.09 t-0.89 0.19 l0 7.22 z M120.44000000000001 27.7 l-1.3 0 l0 -13.68 q0.58 -0.2 1.48 -0.38 t2.28 -0.18 q1.14 0 2.07 0.37 t1.6 1.07 t1.04 1.7 t0.37 2.26 q0 1.18 -0.31 2.17 t-0.91 1.7 t-1.47 1.11 t-1.99 0.4 q-1.02 0 -1.77 -0.29 t-1.09 -0.55 l0 4.3 z M134.06 23.06 q0.76 0 1.33 -0.05 t0.97 -0.13 l0 -3.64 q-0.22 -0.1 -0.7 -0.21 t-1.32 -0.11 q-0.48 0 -1 0.07 t-0.96 0.3 t-0.72 0.63 t-0.28 1.06 q0 0.58 0.19 0.98 t0.54 0.64 t0.84 0.35 t1.11 0.11 z M133.94000000000003 13.42 q1.02 0 1.73 0.29 t1.15 0.8 t0.64 1.21 t0.2 1.52 l0 6.52 q-0.2 0.06 -0.58 0.13 t-0.88 0.15 t-1.11 0.13 t-1.25 0.05 q-0.82 0 -1.51 -0.18 t-1.2 -0.57 t-0.8 -1 t-0.29 -1.49 q0 -0.84 0.32 -1.44 t0.9 -0.99 t1.38 -0.57 t1.74 -0.18 q0.28 0 0.59 0.03 t0.6 0.08 t0.5 0.1 t0.29 0.09 l0 -0.64 q0 -0.54 -0.08 -1.05 t-0.35 -0.92 t-0.76 -0.66 t-1.29 -0.25 q-1.14 0 -1.7 0.16 t-0.82 0.26 l-0.18 -1.14 q0.34 -0.16 1.05 -0.3 t1.71 -0.14 z M144.50000000000003 13.46 q0.64 0 1.21 0.1 t0.79 0.2 l-0.26 1.12 q-0.16 -0.08 -0.65 -0.17 t-1.29 -0.09 q-0.84 0 -1.35 0.12 t-0.67 0.2 l0 9.06 l-1.3 0 l0 -9.86 q0.5 -0.22 1.38 -0.45 t2.14 -0.23 z M149.68 13.66 l4.12 0 l0 1.1 l-4.12 0 l0 5.5 q0 0.88 0.15 1.43 t0.43 0.85 t0.68 0.4 t0.88 0.1 q0.82 0 1.32 -0.19 t0.78 -0.35 l0.32 1.08 q-0.28 0.18 -0.98 0.41 t-1.52 0.23 q-0.96 0 -1.61 -0.25 t-1.04 -0.76 t-0.55 -1.27 t-0.16 -1.8 l0 -9.52 l1.3 -0.24 l0 3.28 z M156.20000000000002 14.02 q0.58 -0.16 1.56 -0.36 t2.4 -0.2 q1.18 0 1.97 0.34 t1.26 0.97 t0.67 1.51 t0.2 1.94 l0 5.78 l-1.3 0 l0 -5.36 q0 -1.1 -0.15 -1.86 t-0.5 -1.24 t-0.92 -0.69 t-1.43 -0.21 q-0.92 0 -1.59 0.1 t-0.87 0.18 l0 9.08 l-1.3 0 l0 -9.98 z M166.96 18.82 q0 -1.36 0.39 -2.37 t1.02 -1.69 t1.44 -1.01 t1.67 -0.33 q1.9 0 3.03 1.24 t1.13 3.82 q0 0.16 -0.01 0.32 t-0.03 0.3 l-7.26 0 q0.06 1.9 0.94 2.92 t2.8 1.02 q1.06 0 1.68 -0.2 t0.9 -0.34 l0.24 1.12 q-0.28 0.16 -1.05 0.38 t-1.81 0.22 q-1.36 0 -2.32 -0.4 t-1.58 -1.12 t-0.9 -1.71 t-0.28 -2.17 z M174.3 18 q-0.04 -1.62 -0.76 -2.52 t-2.04 -0.9 q-0.7 0 -1.25 0.28 t-0.96 0.75 t-0.64 1.09 t-0.27 1.3 l5.92 0 z M182.06000000000003 13.46 q0.64 0 1.21 0.1 t0.79 0.2 l-0.26 1.12 q-0.16 -0.08 -0.65 -0.17 t-1.29 -0.09 q-0.84 0 -1.35 0.12 t-0.67 0.2 l0 9.06 l-1.3 0 l0 -9.86 q0.5 -0.22 1.38 -0.45 t2.14 -0.23 z  M191.88000000000002 24 l-1.3 0 l0 -10.34 l1.3 0 l0 10.34 z M192.18 10.54 q0 0.46 -0.28 0.73 t-0.68 0.27 t-0.68 -0.27 t-0.28 -0.73 t0.28 -0.73 t0.68 -0.27 t0.68 0.27 t0.28 0.73 z M195.32000000000002 14.02 q0.58 -0.16 1.56 -0.36 t2.4 -0.2 q1.18 0 1.97 0.34 t1.26 0.97 t0.67 1.51 t0.2 1.94 l0 5.78 l-1.3 0 l0 -5.36 q0 -1.1 -0.15 -1.86 t-0.5 -1.24 t-0.92 -0.69 t-1.43 -0.21 q-0.92 0 -1.59 0.1 t-0.87 0.18 l0 9.08 l-1.3 0 l0 -9.98 z  M211.34000000000003 10.14 l1.36 0 l0 13.86 l-1.36 0 l0 -13.86 z M225.10000000000002 10.14 l0 1.18 l-4.44 0 l0 12.68 l-1.36 0 l0 -12.68 l-4.44 0 l0 -1.18 l10.24 0 z"></path></g>
			</g>
		</svg>
	